<?xml version="1.0" encoding="utf-8" standalone="no"?>
<!DOCTYPE svg PUBLIC "-//W3C//DTD SVG 1.1//EN"
  "http://www.w3.org/Graphics/SVG/1.1/DTD/svg11.dtd">
<svg height="648pt" version="1.1" viewBox="0 0 864 648" width="864pt" xmlns="http://www.w3.org/2000/svg" xmlns:xlink="http://www.w3.org/1999/xlink">
 <metadata>
  <rdf:RDF xmlns:cc="http://creativecommons.org/ns#" xmlns:dc="http://purl.org/dc/elements/1.1/" xmlns:rdf="http://www.w3.org/1999/02/22-rdf-syntax-ns#">
   <cc:Work>
    <dc:type rdf:resource="http://purl.org/dc/dcmitype/StillImage"/>
    <dc:date>2021-11-09T13:49:19.780713</dc:date>
    <dc:format>image/svg+xml</dc:format>
    <dc:creator>
     <cc:Agent>
      <dc:title>Matplotlib v3.4.2, https://matplotlib.org/</dc:title>
     </cc:Agent>
    </dc:creator>
   </cc:Work>
  </rdf:RDF>
 </metadata>
 <defs>
  <style type="text/css">*{stroke-linecap:butt;stroke-linejoin:round;}</style>
 </defs>
 <g id="figure_1">
  <g id="patch_1">
   <path d="M 0 648 
L 864 648 
L 864 0 
L 0 0 
z
" style="fill:#ffffff;"/>
  </g>
  <g id="axes_1">
   <g id="patch_2">
    <path d="M 108 576.72 
L 777.6 576.72 
L 777.6 77.76 
L 108 77.76 
z
" style="fill:#ffffff;"/>
   </g>
   <g id="patch_3">
    <path clip-path="url(#p38721389fd)" d="M 491.498182 145.476 
L 500.629091 141.912 
L 500.629091 145.44036 
L 528.021818 145.44036 
L 528.021818 145.51164 
L 500.629091 145.51164 
L 500.629091 149.04 
z
" style="stroke:#000000;stroke-linejoin:miter;"/>
   </g>
   <g id="matplotlib.axis_1">
    <g id="xtick_1">
     <g id="line2d_1">
      <defs>
       <path d="M 0 0 
L 0 3.5 
" id="mabc3d3ee08" style="stroke:#000000;stroke-width:0.8;"/>
      </defs>
      <g>
       <use style="stroke:#000000;stroke-width:0.8;" x="108" xlink:href="#mabc3d3ee08" y="576.72"/>
      </g>
     </g>
     <g id="line2d_2">
      <defs>
       <path d="M 0 0 
L 0 -3.5 
" id="m821b9e0d73" style="stroke:#000000;stroke-width:0.8;"/>
      </defs>
      <g>
       <use style="stroke:#000000;stroke-width:0.8;" x="108" xlink:href="#m821b9e0d73" y="77.76"/>
      </g>
     </g>
    </g>
    <g id="xtick_2">
     <g id="line2d_3">
      <g>
       <use style="stroke:#000000;stroke-width:0.8;" x="229.745455" xlink:href="#mabc3d3ee08" y="576.72"/>
      </g>
     </g>
     <g id="line2d_4">
      <g>
       <use style="stroke:#000000;stroke-width:0.8;" x="229.745455" xlink:href="#m821b9e0d73" y="77.76"/>
      </g>
     </g>
    </g>
    <g id="xtick_3">
     <g id="line2d_5">
      <g>
       <use style="stroke:#000000;stroke-width:0.8;" x="351.490909" xlink:href="#mabc3d3ee08" y="576.72"/>
      </g>
     </g>
     <g id="line2d_6">
      <g>
       <use style="stroke:#000000;stroke-width:0.8;" x="351.490909" xlink:href="#m821b9e0d73" y="77.76"/>
      </g>
     </g>
    </g>
    <g id="xtick_4">
     <g id="line2d_7">
      <g>
       <use style="stroke:#000000;stroke-width:0.8;" x="473.236364" xlink:href="#mabc3d3ee08" y="576.72"/>
      </g>
     </g>
     <g id="line2d_8">
      <g>
       <use style="stroke:#000000;stroke-width:0.8;" x="473.236364" xlink:href="#m821b9e0d73" y="77.76"/>
      </g>
     </g>
    </g>
    <g id="xtick_5">
     <g id="line2d_9">
      <g>
       <use style="stroke:#000000;stroke-width:0.8;" x="594.981818" xlink:href="#mabc3d3ee08" y="576.72"/>
      </g>
     </g>
     <g id="line2d_10">
      <g>
       <use style="stroke:#000000;stroke-width:0.8;" x="594.981818" xlink:href="#m821b9e0d73" y="77.76"/>
      </g>
     </g>
    </g>
    <g id="xtick_6">
     <g id="line2d_11">
      <g>
       <use style="stroke:#000000;stroke-width:0.8;" x="716.727273" xlink:href="#mabc3d3ee08" y="576.72"/>
      </g>
     </g>
     <g id="line2d_12">
      <g>
       <use style="stroke:#000000;stroke-width:0.8;" x="716.727273" xlink:href="#m821b9e0d73" y="77.76"/>
      </g>
     </g>
    </g>
   </g>
   <g id="matplotlib.axis_2">
    <g id="ytick_1">
     <g id="line2d_13">
      <defs>
       <path d="M 0 0 
L -3.5 0 
" id="mfde38afd5d" style="stroke:#000000;stroke-width:0.8;"/>
      </defs>
      <g>
       <use style="stroke:#000000;stroke-width:0.8;" x="108" xlink:href="#mfde38afd5d" y="576.72"/>
      </g>
     </g>
     <g id="line2d_14">
      <defs>
       <path d="M 0 0 
L 3.5 0 
" id="maaea219135" style="stroke:#000000;stroke-width:0.8;"/>
      </defs>
      <g>
       <use style="stroke:#000000;stroke-width:0.8;" x="777.6" xlink:href="#maaea219135" y="576.72"/>
      </g>
     </g>
    </g>
    <g id="ytick_2">
     <g id="line2d_15">
      <g>
       <use style="stroke:#000000;stroke-width:0.8;" x="108" xlink:href="#mfde38afd5d" y="505.44"/>
      </g>
     </g>
     <g id="line2d_16">
      <g>
       <use style="stroke:#000000;stroke-width:0.8;" x="777.6" xlink:href="#maaea219135" y="505.44"/>
      </g>
     </g>
    </g>
    <g id="ytick_3">
     <g id="line2d_17">
      <g>
       <use style="stroke:#000000;stroke-width:0.8;" x="108" xlink:href="#mfde38afd5d" y="434.16"/>
      </g>
     </g>
     <g id="line2d_18">
      <g>
       <use style="stroke:#000000;stroke-width:0.8;" x="777.6" xlink:href="#maaea219135" y="434.16"/>
      </g>
     </g>
    </g>
    <g id="ytick_4">
     <g id="line2d_19">
      <g>
       <use style="stroke:#000000;stroke-width:0.8;" x="108" xlink:href="#mfde38afd5d" y="362.88"/>
      </g>
     </g>
     <g id="line2d_20">
      <g>
       <use style="stroke:#000000;stroke-width:0.8;" x="777.6" xlink:href="#maaea219135" y="362.88"/>
      </g>
     </g>
    </g>
    <g id="ytick_5">
     <g id="line2d_21">
      <g>
       <use style="stroke:#000000;stroke-width:0.8;" x="108" xlink:href="#mfde38afd5d" y="291.6"/>
      </g>
     </g>
     <g id="line2d_22">
      <g>
       <use style="stroke:#000000;stroke-width:0.8;" x="777.6" xlink:href="#maaea219135" y="291.6"/>
      </g>
     </g>
    </g>
    <g id="ytick_6">
     <g id="line2d_23">
      <g>
       <use style="stroke:#000000;stroke-width:0.8;" x="108" xlink:href="#mfde38afd5d" y="220.32"/>
      </g>
     </g>
     <g id="line2d_24">
      <g>
       <use style="stroke:#000000;stroke-width:0.8;" x="777.6" xlink:href="#maaea219135" y="220.32"/>
      </g>
     </g>
    </g>
    <g id="ytick_7">
     <g id="line2d_25">
      <g>
       <use style="stroke:#000000;stroke-width:0.8;" x="108" xlink:href="#mfde38afd5d" y="149.04"/>
      </g>
     </g>
     <g id="line2d_26">
      <g>
       <use style="stroke:#000000;stroke-width:0.8;" x="777.6" xlink:href="#maaea219135" y="149.04"/>
      </g>
     </g>
    </g>
    <g id="ytick_8">
     <g id="line2d_27">
      <g>
       <use style="stroke:#000000;stroke-width:0.8;" x="108" xlink:href="#mfde38afd5d" y="77.76"/>
      </g>
     </g>
     <g id="line2d_28">
      <g>
       <use style="stroke:#000000;stroke-width:0.8;" x="777.6" xlink:href="#maaea219135" y="77.76"/>
      </g>
     </g>
    </g>
   </g>
   <g id="line2d_29">
    <path clip-path="url(#p38721389fd)" d="M 108 576.72 
L 128.839312 554.130392 
L 142.153317 540.077447 
L 151.415233 530.765385 
L 158.361671 524.292132 
L 163.571499 519.900136 
L 168.202457 516.455505 
L 172.254545 513.827666 
L 176.306634 511.552358 
L 179.779853 509.848339 
L 183.253071 508.337607 
L 187.30516 506.771016 
L 191.357248 505.373231 
L 197.145946 503.617111 
L 203.513514 501.901183 
L 212.77543 499.732425 
L 223.773956 497.498625 
L 235.930221 495.334107 
L 249.823096 493.144945 
L 267.189189 490.71018 
L 288.028501 488.087197 
L 313.498771 485.181308 
L 345.336609 481.865211 
L 385.278624 478.043438 
L 436.798034 473.49185 
L 503.368059 468.04359 
L 543.888943 464.899667 
L 590.777396 461.384418 
L 646.348894 457.356176 
L 686.290909 454.534224 
L 686.290909 454.534224 
" style="fill:none;stroke:#000000;stroke-linecap:square;stroke-width:1.5;"/>
   </g>
   <g id="line2d_30">
    <path clip-path="url(#p38721389fd)" d="M 108 576.72 
L 132.312531 550.224558 
L 146.784275 534.791828 
L 157.203931 524.059301 
L 165.886978 515.561299 
L 172.833415 509.189705 
L 179.200983 503.763478 
L 184.989681 499.177167 
L 190.778378 494.879682 
L 196.567076 490.80724 
L 202.934644 486.516298 
L 215.669779 478.307691 
L 231.878133 468.196011 
L 254.454054 454.387202 
L 288.607371 433.725402 
L 360.966093 390.243634 
L 513.208845 299.099244 
L 686.290909 195.626128 
L 686.290909 195.626128 
" style="fill:none;stroke:#000000;stroke-linecap:square;stroke-width:1.5;"/>
   </g>
   <g id="line2d_31">
    <path clip-path="url(#p38721389fd)" d="M 108 576.72 
L 128.839312 554.126966 
L 142.732187 539.467071 
L 151.415233 530.711933 
L 158.361671 524.175548 
L 164.150369 519.240778 
L 168.781327 515.725462 
L 173.412285 512.645212 
L 176.885504 510.597029 
L 180.937592 508.464822 
L 184.989681 506.555367 
L 189.041769 504.823406 
L 193.672727 503.009034 
L 202.355774 499.964527 
L 212.19656 496.873269 
L 223.195086 493.703884 
L 235.930221 490.27958 
L 251.559705 486.313168 
L 270.662408 481.687171 
L 294.396069 476.139537 
L 324.497297 469.282944 
L 386.436364 455.479699 
L 481.949877 434.51218 
L 631.87715 401.870029 
L 686.290909 390.061532 
L 686.290909 390.061532 
" style="fill:none;stroke:#000000;stroke-linecap:square;stroke-width:1.5;"/>
   </g>
   <g id="line2d_32">
    <path clip-path="url(#p38721389fd)" d="M 108 576.72 
L 128.839312 554.129875 
L 142.153317 540.074685 
L 151.415233 530.757253 
L 158.361671 524.274232 
L 163.571499 519.867954 
L 168.202457 516.4041 
L 172.254545 513.753573 
L 176.306634 511.450574 
L 179.779853 509.717839 
L 183.831941 507.931825 
L 187.884029 506.348892 
L 191.936118 504.926508 
L 200.040295 502.448305 
L 208.723342 500.155853 
L 219.142998 497.736309 
L 230.720393 495.332743 
L 244.613268 492.721638 
L 261.400491 489.829843 
L 282.239803 486.488197 
L 308.288943 482.539788 
L 341.284521 477.748171 
L 384.120885 471.7233 
L 440.271253 464.009433 
L 514.945455 453.924258 
L 615.668796 440.48754 
L 686.290909 431.131719 
L 686.290909 431.131719 
" style="fill:none;stroke:#000000;stroke-linecap:square;stroke-width:1.5;"/>
   </g>
   <g id="line2d_33">
    <path clip-path="url(#p38721389fd)" d="M 108 576.72 
L 503.672727 113.4 
L 503.672727 113.4 
" style="fill:none;stroke:#000000;stroke-linecap:square;stroke-width:1.5;"/>
   </g>
   <g id="patch_4">
    <path d="M 108 576.72 
L 108 77.76 
" style="fill:none;stroke:#000000;stroke-linecap:square;stroke-linejoin:miter;stroke-width:0.8;"/>
   </g>
   <g id="patch_5">
    <path d="M 777.6 576.72 
L 777.6 77.76 
" style="fill:none;stroke:#000000;stroke-linecap:square;stroke-linejoin:miter;stroke-width:0.8;"/>
   </g>
   <g id="patch_6">
    <path d="M 108 576.72 
L 777.6 576.72 
" style="fill:none;stroke:#000000;stroke-linecap:square;stroke-linejoin:miter;stroke-width:0.8;"/>
   </g>
   <g id="patch_7">
    <path d="M 108 77.76 
L 777.6 77.76 
" style="fill:none;stroke:#000000;stroke-linecap:square;stroke-linejoin:miter;stroke-width:0.8;"/>
   </g>
   <g id="text_1">
    <!-- $c_{T   }(m) = 45$ degree line -->
    <g transform="translate(534.109091 149.04)scale(0.22 -0.22)">
     <defs>
      <path d="M 2502 2432 
C 2381 2432 2323 2432 2234 2355 
C 2195 2323 2125 2227 2125 2124 
C 2125 1996 2221 1919 2342 1919 
C 2496 1919 2669 2047 2669 2303 
C 2669 2591 2374 2816 1933 2816 
C 1094 2816 256 1932 256 1011 
C 256 446 602 -64 1254 -64 
C 2125 -64 2675 622 2675 706 
C 2675 745 2637 777 2611 777 
C 2592 777 2586 771 2528 712 
C 2118 161 1510 64 1267 64 
C 826 64 685 453 685 777 
C 685 1004 794 1634 1024 2073 
C 1190 2374 1536 2687 1939 2687 
C 2022 2687 2374 2676 2502 2432 
z
" id="CMMI12-63" transform="scale(0.015625)"/>
      <path d="M 2669 3886 
C 2707 4038 2720 4096 2816 4121 
C 2867 4134 3078 4134 3213 4134 
C 3853 4134 4154 4109 4154 3612 
C 4154 3516 4128 3274 4090 3038 
L 4083 2962 
C 4083 2937 4109 2898 4147 2898 
C 4211 2898 4211 2930 4230 3032 
L 4416 4159 
C 4429 4217 4429 4230 4429 4249 
C 4429 4319 4390 4319 4262 4319 
L 762 4319 
C 614 4319 608 4313 570 4198 
L 179 3051 
C 173 3038 154 2968 154 2962 
C 154 2930 179 2898 218 2898 
C 269 2898 282 2924 307 3007 
C 576 3777 710 4134 1562 4134 
L 1990 4134 
C 2144 4134 2208 4134 2208 4064 
C 2208 4045 2208 4032 2176 3917 
L 1318 497 
C 1254 249 1242 185 563 185 
C 403 185 358 185 358 64 
C 358 0 429 0 461 0 
C 621 0 787 12 947 12 
L 1946 12 
C 2106 12 2278 0 2438 0 
C 2509 0 2573 0 2573 121 
C 2573 185 2528 185 2362 185 
C 1786 185 1786 242 1786 338 
C 1786 344 1786 389 1811 491 
L 2669 3886 
z
" id="CMMI12-54" transform="scale(0.015625)"/>
      <path d="M 1958 -1562 
C 1958 -1556 1958 -1543 1939 -1524 
C 1645 -1223 858 -403 858 1596 
C 858 3595 1632 4408 1946 4729 
C 1946 4735 1958 4748 1958 4767 
C 1958 4787 1939 4800 1914 4800 
C 1843 4800 1299 4325 986 3620 
C 666 2909 576 2218 576 1603 
C 576 1141 621 360 1005 -467 
C 1312 -1133 1837 -1600 1914 -1600 
C 1946 -1600 1958 -1588 1958 -1562 
z
" id="CMR17-28" transform="scale(0.015625)"/>
      <path d="M 1318 1870 
C 1331 1909 1491 2228 1728 2432 
C 1894 2585 2112 2687 2362 2687 
C 2618 2687 2707 2496 2707 2241 
C 2707 2202 2707 2075 2630 1775 
L 2470 1117 
C 2419 925 2298 453 2285 383 
C 2259 287 2221 121 2221 95 
C 2221 6 2291 -64 2387 -64 
C 2579 -64 2611 83 2669 313 
L 3053 1838 
C 3066 1890 3398 2687 4102 2687 
C 4358 2687 4448 2496 4448 2241 
C 4448 1883 4198 1187 4058 804 
C 4000 651 3968 568 3968 453 
C 3968 166 4166 -64 4474 -64 
C 5069 -64 5293 874 5293 913 
C 5293 945 5267 970 5229 970 
C 5171 970 5165 951 5133 842 
C 4986 332 4749 64 4493 64 
C 4429 64 4326 70 4326 274 
C 4326 440 4403 645 4429 715 
C 4544 1021 4832 1775 4832 2145 
C 4832 2528 4608 2816 4122 2816 
C 3693 2816 3347 2573 3091 2196 
C 3072 2541 2861 2816 2381 2816 
C 1811 2816 1510 2413 1395 2253 
C 1376 2617 1114 2816 832 2816 
C 646 2816 499 2726 378 2483 
C 262 2253 173 1864 173 1838 
C 173 1813 198 1781 243 1781 
C 294 1781 301 1787 339 1934 
C 435 2311 557 2687 813 2687 
C 960 2687 1011 2585 1011 2394 
C 1011 2253 947 2004 902 1807 
L 723 1117 
C 698 996 627 708 595 593 
C 550 427 480 127 480 95 
C 480 6 550 -64 646 -64 
C 723 -64 813 -26 864 70 
C 877 102 934 325 966 453 
L 1107 1028 
L 1318 1870 
z
" id="CMMI12-6d" transform="scale(0.015625)"/>
      <path d="M 1683 1596 
C 1683 2057 1638 2839 1254 3665 
C 947 4332 422 4800 346 4800 
C 326 4800 301 4793 301 4761 
C 301 4748 307 4742 314 4729 
C 621 4408 1402 3595 1402 1603 
C 1402 -396 627 -1210 314 -1530 
C 307 -1543 301 -1549 301 -1562 
C 301 -1594 326 -1600 346 -1600 
C 416 -1600 960 -1127 1274 -422 
C 1594 289 1683 981 1683 1596 
z
" id="CMR17-29" transform="scale(0.015625)"/>
      <path d="M 4115 2048 
C 4211 2048 4307 2048 4307 2156 
C 4307 2272 4198 2272 4090 2272 
L 512 2272 
C 403 2272 294 2272 294 2156 
C 294 2048 390 2048 486 2048 
L 4115 2048 
z
M 4090 927 
C 4198 927 4307 927 4307 1043 
C 4307 1152 4211 1152 4115 1152 
L 486 1152 
C 390 1152 294 1152 294 1043 
C 294 927 403 927 512 927 
L 4090 927 
z
" id="CMR17-3d" transform="scale(0.015625)"/>
      <path d="M 2150 4147 
C 2150 4281 2144 4288 2029 4288 
L 128 1254 
L 128 1088 
L 1779 1088 
L 1779 460 
C 1779 230 1766 166 1318 166 
L 1197 166 
L 1197 0 
C 1402 12 1747 12 1965 12 
C 2182 12 2528 12 2733 0 
L 2733 166 
L 2611 166 
C 2163 166 2150 230 2150 460 
L 2150 1088 
L 2803 1088 
L 2803 1254 
L 2150 1254 
L 2150 4147 
z
M 1798 3723 
L 1798 1254 
L 256 1254 
L 1798 3723 
z
" id="CMR17-34" transform="scale(0.015625)"/>
      <path d="M 730 3750 
C 794 3724 1056 3641 1325 3641 
C 1920 3641 2246 3961 2432 4140 
C 2432 4191 2432 4224 2394 4224 
C 2387 4224 2374 4224 2323 4198 
C 2099 4102 1837 4032 1517 4032 
C 1325 4032 1037 4055 723 4191 
C 653 4224 640 4224 634 4224 
C 602 4224 595 4217 595 4090 
L 595 2231 
C 595 2113 595 2080 659 2080 
C 691 2080 704 2093 736 2139 
C 941 2435 1222 2560 1542 2560 
C 1766 2560 2246 2415 2246 1293 
C 2246 1087 2246 716 2054 422 
C 1894 159 1645 25 1370 25 
C 947 25 518 319 403 812 
C 429 806 480 793 506 793 
C 589 793 749 838 749 1036 
C 749 1209 627 1280 506 1280 
C 358 1280 262 1190 262 1011 
C 262 454 704 -128 1382 -128 
C 2042 -128 2669 441 2669 1267 
C 2669 2054 2170 2662 1549 2662 
C 1222 2662 947 2540 730 2304 
L 730 3750 
z
" id="CMR17-35" transform="scale(0.015625)"/>
      <path d="M 1882 4408 
L 1882 4265 
L 1952 4265 
C 2150 4265 2259 4207 2259 3960 
L 2253 2305 
C 2131 2603 1766 2805 1459 2805 
C 710 2805 269 2039 269 1357 
C 269 714 653 -19 1338 -64 
L 1395 -64 
C 1741 -64 2118 150 2246 468 
L 2253 -64 
L 2893 -26 
L 2893 117 
L 2816 117 
C 2605 117 2515 195 2515 422 
L 2515 4480 
L 1882 4408 
z
M 595 1214 
L 595 1312 
C 595 1760 659 2292 1056 2577 
C 1190 2675 1344 2727 1498 2727 
C 1862 2727 2259 2376 2259 2000 
C 2259 1928 2253 1850 2253 1779 
L 2253 734 
C 2253 383 1811 13 1440 13 
C 947 13 678 520 621 948 
C 608 1039 608 1123 595 1214 
z
" id="SFRM3583-64" transform="scale(0.015625)"/>
      <path d="M 563 1515 
L 2246 1515 
C 2259 1515 2285 1508 2310 1508 
C 2355 1508 2374 1534 2374 1573 
C 2374 2149 2099 2816 1382 2816 
C 614 2816 237 2019 237 1385 
C 237 751 589 33 1350 -64 
C 1376 -58 1402 -64 1427 -64 
C 1869 -64 2208 245 2355 665 
C 2362 685 2368 710 2368 730 
C 2368 749 2362 768 2336 768 
C 2272 768 2266 665 2246 607 
C 2118 297 1843 26 1485 26 
C 1216 26 960 181 813 400 
C 576 723 563 1137 563 1517 
L 563 1515 
z
M 570 1595 
C 582 2099 832 2738 1370 2738 
C 1818 2738 2010 2260 2061 1886 
C 2067 1789 2067 1692 2080 1595 
L 570 1595 
z
" id="SFRM3583-65" transform="scale(0.015625)"/>
      <path d="M 659 1211 
L 659 1205 
C 531 1077 474 867 474 689 
C 474 460 570 313 749 172 
C 448 121 154 -172 154 -497 
C 154 -1038 896 -1280 1421 -1280 
C 1933 -1280 2701 -1089 2701 -459 
C 2701 -108 2464 160 2138 262 
C 1907 339 1658 345 1414 345 
L 1222 345 
C 1165 345 1107 339 1050 339 
C 742 339 582 530 582 791 
C 582 905 646 1135 710 1135 
L 717 1135 
C 755 1135 870 1039 947 1007 
C 1050 963 1158 944 1274 944 
C 1805 944 2144 1402 2144 1867 
C 2144 2077 2067 2332 1914 2484 
L 1914 2491 
C 2086 2625 2266 2739 2490 2739 
C 2534 2739 2579 2733 2624 2720 
C 2586 2695 2554 2656 2554 2605 
C 2554 2542 2611 2497 2669 2497 
C 2746 2497 2784 2548 2784 2605 
C 2784 2758 2630 2816 2502 2816 
C 2291 2816 2086 2726 1920 2593 
C 1907 2580 1882 2561 1862 2561 
C 1824 2561 1696 2669 1613 2714 
C 1504 2758 1389 2784 1274 2784 
C 742 2784 397 2319 397 1861 
C 397 1644 480 1357 659 1211 
z
M 358 -548 
L 358 -497 
C 358 -261 506 -25 717 70 
C 826 121 941 128 1062 128 
L 1594 128 
C 1958 128 2502 0 2502 -497 
C 2502 -994 1850 -1204 1434 -1204 
C 1005 -1204 422 -1007 358 -548 
z
M 710 1733 
L 710 1816 
C 710 2166 787 2701 1267 2701 
C 1683 2701 1830 2281 1830 1886 
C 1830 1612 1805 1256 1523 1096 
C 1446 1049 1357 1024 1274 1024 
C 896 1024 749 1392 710 1735 
L 710 1733 
z
" id="SFRM3583-67" transform="scale(0.015625)"/>
      <path d="M 288 2744 
L 288 2602 
L 352 2602 
C 557 2602 666 2557 666 2273 
L 666 360 
C 666 153 512 140 288 140 
L 288 0 
L 1389 0 
L 1389 140 
L 1261 140 
C 1075 140 922 160 922 405 
L 922 1349 
C 922 1898 1037 2738 1658 2738 
C 1728 2738 1798 2719 1862 2693 
C 1786 2660 1722 2609 1722 2518 
C 1722 2428 1792 2337 1901 2337 
C 1997 2337 2074 2421 2074 2518 
C 2074 2732 1837 2816 1664 2816 
C 1274 2816 979 2434 922 2079 
L 915 2816 
L 288 2744 
z
" id="SFRM3583-72" transform="scale(0.015625)"/>
      <path d="M 307 4408 
L 307 4266 
L 384 4266 
C 608 4266 678 4163 678 3950 
L 678 373 
C 678 179 595 140 307 140 
L 307 0 
L 1306 0 
L 1306 140 
L 1203 140 
C 1062 140 934 160 934 366 
L 934 4480 
L 307 4408 
z
" id="SFRM3583-6c" transform="scale(0.015625)"/>
      <path d="M 326 2732 
L 326 2590 
L 358 2590 
C 563 2590 678 2558 678 2250 
L 678 359 
C 678 153 531 140 307 140 
L 307 0 
L 1274 0 
L 1274 140 
L 1190 140 
C 1056 140 934 153 934 372 
L 934 2803 
L 326 2732 
z
M 698 4160 
C 595 4160 531 4044 531 3960 
C 531 3864 608 3748 730 3748 
C 858 3748 934 3857 934 3954 
C 934 4044 858 4160 736 4160 
C 723 4166 710 4160 698 4160 
z
" id="SFRM3583-69" transform="scale(0.015625)"/>
      <path d="M 301 2744 
L 301 2602 
L 365 2602 
C 570 2602 678 2557 678 2273 
L 678 360 
C 678 153 525 140 301 140 
L 301 0 
L 1318 0 
L 1318 140 
L 1229 140 
C 1082 140 941 160 941 360 
L 941 1775 
C 979 2215 1203 2738 1709 2738 
C 2112 2738 2266 2415 2266 1950 
L 2266 360 
C 2266 153 2112 140 1888 140 
L 1888 0 
L 2906 0 
L 2906 140 
L 2803 140 
C 2656 140 2528 160 2528 386 
L 2528 1885 
C 2528 2299 2451 2816 1760 2816 
C 1414 2816 1178 2628 1024 2350 
C 986 2279 947 2202 934 2124 
L 928 2816 
L 301 2744 
z
" id="SFRM3583-6e" transform="scale(0.015625)"/>
     </defs>
     <use transform="scale(0.996264)" xlink:href="#CMMI12-63"/>
     <use transform="translate(41.983234 -14.943915)scale(0.697382)" xlink:href="#CMMI12-54"/>
     <use transform="translate(91.987688 0)scale(0.996264)" xlink:href="#CMR17-28"/>
     <use transform="translate(127.268456 0)scale(0.996264)" xlink:href="#CMMI12-6d"/>
     <use transform="translate(212.59568 0)scale(0.996264)" xlink:href="#CMR17-29"/>
     <use transform="translate(275.550457 0)scale(0.996264)" xlink:href="#CMR17-3d"/>
     <use transform="translate(374.939254 0)scale(0.996264)" xlink:href="#CMR17-34"/>
     <use transform="translate(420.629731 0)scale(0.996264)" xlink:href="#CMR17-35"/>
     <use transform="translate(496.018501 0)scale(0.996264)" xlink:href="#SFRM3583-64"/>
     <use transform="translate(545.556929 0)scale(0.996264)" xlink:href="#SFRM3583-65"/>
     <use transform="translate(585.175328 0)scale(0.996264)" xlink:href="#SFRM3583-67"/>
     <use transform="translate(629.753795 0)scale(0.996264)" xlink:href="#SFRM3583-72"/>
     <use transform="translate(664.412141 0)scale(0.996264)" xlink:href="#SFRM3583-65"/>
     <use transform="translate(704.03054 0)scale(0.996264)" xlink:href="#SFRM3583-65"/>
     <use transform="translate(773.347232 0)scale(0.996264)" xlink:href="#SFRM3583-6c"/>
     <use transform="translate(798.085564 0)scale(0.996264)" xlink:href="#SFRM3583-69"/>
     <use transform="translate(822.823895 0)scale(0.996264)" xlink:href="#SFRM3583-6e"/>
     <use transform="translate(872.362324 0)scale(0.996264)" xlink:href="#SFRM3583-65"/>
    </g>
   </g>
   <g id="text_2">
    <!-- $c_{T-1 }(m)$ -->
    <g transform="translate(692.378182 198.936)scale(0.22 -0.22)">
     <defs>
      <path d="M 4218 1472 
C 4326 1472 4442 1472 4442 1600 
C 4442 1728 4326 1728 4218 1728 
L 755 1728 
C 646 1728 531 1728 531 1600 
C 531 1472 646 1472 755 1472 
L 4218 1472 
z
" id="CMSY10-0" transform="scale(0.015625)"/>
      <path d="M 1702 4083 
C 1702 4217 1696 4224 1606 4224 
C 1357 3927 979 3833 621 3820 
C 602 3820 570 3820 563 3808 
C 557 3795 557 3782 557 3648 
C 755 3648 1088 3686 1344 3839 
L 1344 467 
C 1344 243 1331 166 781 166 
L 589 166 
L 589 0 
C 896 6 1216 12 1523 12 
C 1830 12 2150 6 2458 0 
L 2458 166 
L 2266 166 
C 1715 166 1702 236 1702 467 
L 1702 4083 
z
" id="CMR17-31" transform="scale(0.015625)"/>
     </defs>
     <use transform="scale(0.996264)" xlink:href="#CMMI12-63"/>
     <use transform="translate(41.983234 -14.943915)scale(0.697382)" xlink:href="#CMMI12-54"/>
     <use transform="translate(91.489556 -14.943915)scale(0.697382)" xlink:href="#CMSY10-0"/>
     <use transform="translate(145.730549 -14.943915)scale(0.697382)" xlink:href="#CMR17-31"/>
     <use transform="translate(178.211863 0)scale(0.996264)" xlink:href="#CMR17-28"/>
     <use transform="translate(213.492631 0)scale(0.996264)" xlink:href="#CMMI12-6d"/>
     <use transform="translate(298.819855 0)scale(0.996264)" xlink:href="#CMR17-29"/>
    </g>
   </g>
   <g id="text_3">
    <!-- $c_{T-5 }(m)$ -->
    <g transform="translate(692.378182 391.392)scale(0.22 -0.22)">
     <use transform="scale(0.996264)" xlink:href="#CMMI12-63"/>
     <use transform="translate(41.983234 -14.943915)scale(0.697382)" xlink:href="#CMMI12-54"/>
     <use transform="translate(91.489556 -14.943915)scale(0.697382)" xlink:href="#CMSY10-0"/>
     <use transform="translate(145.730549 -14.943915)scale(0.697382)" xlink:href="#CMR17-35"/>
     <use transform="translate(178.211863 0)scale(0.996264)" xlink:href="#CMR17-28"/>
     <use transform="translate(213.492631 0)scale(0.996264)" xlink:href="#CMMI12-6d"/>
     <use transform="translate(298.819855 0)scale(0.996264)" xlink:href="#CMR17-29"/>
    </g>
   </g>
   <g id="text_4">
    <!-- $c_{T-10}(m)$ -->
    <g transform="translate(692.378182 427.032)scale(0.22 -0.22)">
     <defs>
      <path d="M 2688 2038 
C 2688 2430 2682 3099 2413 3613 
C 2176 4063 1798 4224 1466 4224 
C 1158 4224 768 4082 525 3620 
C 269 3137 243 2539 243 2038 
C 243 1671 250 1112 448 623 
C 723 -39 1216 -128 1466 -128 
C 1760 -128 2208 -7 2470 604 
C 2662 1048 2688 1568 2688 2038 
z
M 1466 -26 
C 1056 -26 813 328 723 816 
C 653 1196 653 1749 653 2109 
C 653 2604 653 3015 736 3407 
C 858 3954 1216 4121 1466 4121 
C 1728 4121 2067 3947 2189 3420 
C 2272 3054 2278 2623 2278 2109 
C 2278 1691 2278 1176 2202 797 
C 2067 96 1690 -26 1466 -26 
z
" id="CMR17-30" transform="scale(0.015625)"/>
     </defs>
     <use transform="scale(0.996264)" xlink:href="#CMMI12-63"/>
     <use transform="translate(41.983234 -14.943915)scale(0.697382)" xlink:href="#CMMI12-54"/>
     <use transform="translate(91.489556 -14.943915)scale(0.697382)" xlink:href="#CMSY10-0"/>
     <use transform="translate(145.730549 -14.943915)scale(0.697382)" xlink:href="#CMR17-31"/>
     <use transform="translate(177.713731 -14.943915)scale(0.697382)" xlink:href="#CMR17-30"/>
     <use transform="translate(210.195045 0)scale(0.996264)" xlink:href="#CMR17-28"/>
     <use transform="translate(245.475813 0)scale(0.996264)" xlink:href="#CMMI12-6d"/>
     <use transform="translate(330.803037 0)scale(0.996264)" xlink:href="#CMR17-29"/>
    </g>
   </g>
   <g id="text_5">
    <!-- $c(m)       $ -->
    <g transform="translate(692.378182 455.544)scale(0.22 -0.22)">
     <use transform="scale(0.996264)" xlink:href="#CMMI12-63"/>
     <use transform="translate(41.983234 0)scale(0.996264)" xlink:href="#CMR17-28"/>
     <use transform="translate(77.264001 0)scale(0.996264)" xlink:href="#CMMI12-6d"/>
     <use transform="translate(162.591226 0)scale(0.996264)" xlink:href="#CMR17-29"/>
    </g>
   </g>
   <g id="text_6">
    <!-- $c$ -->
    <g transform="translate(108 74.196)scale(0.26 -0.26)">
     <use transform="scale(0.996264)" xlink:href="#CMMI12-63"/>
    </g>
   </g>
   <g id="text_7">
    <!-- $m$ -->
    <g transform="translate(783.687273 576.72)scale(0.26 -0.26)">
     <use transform="scale(0.996264)" xlink:href="#CMMI12-6d"/>
    </g>
   </g>
  </g>
 </g>
 <defs>
  <clipPath id="p38721389fd">
   <rect height="498.96" width="669.6" x="108" y="77.76"/>
  </clipPath>
 </defs>
</svg>
