<?xml version="1.0" encoding="utf-8" standalone="no"?>
<!DOCTYPE svg PUBLIC "-//W3C//DTD SVG 1.1//EN"
  "http://www.w3.org/Graphics/SVG/1.1/DTD/svg11.dtd">
<svg height="576pt" version="1.1" viewBox="0 0 864 576" width="864pt" xmlns="http://www.w3.org/2000/svg" xmlns:xlink="http://www.w3.org/1999/xlink">
 <metadata>
  <rdf:RDF xmlns:cc="http://creativecommons.org/ns#" xmlns:dc="http://purl.org/dc/elements/1.1/" xmlns:rdf="http://www.w3.org/1999/02/22-rdf-syntax-ns#">
   <cc:Work>
    <dc:type rdf:resource="http://purl.org/dc/dcmitype/StillImage"/>
    <dc:date>2021-11-20T11:20:57.094615</dc:date>
    <dc:format>image/svg+xml</dc:format>
    <dc:creator>
     <cc:Agent>
      <dc:title>Matplotlib v3.4.2, https://matplotlib.org/</dc:title>
     </cc:Agent>
    </dc:creator>
   </cc:Work>
  </rdf:RDF>
 </metadata>
 <defs>
  <style type="text/css">*{stroke-linecap:butt;stroke-linejoin:round;}</style>
 </defs>
 <g id="figure_1">
  <g id="patch_1">
   <path d="M 0 576 
L 864 576 
L 864 0 
L 0 0 
z
" style="fill:#ffffff;"/>
  </g>
  <g id="axes_1">
   <g id="patch_2">
    <path d="M 108 512.64 
L 777.6 512.64 
L 777.6 69.12 
L 108 69.12 
z
" style="fill:#ffffff;"/>
   </g>
   <g id="patch_3">
    <path clip-path="url(#pc79e65b71d)" d="M 160.2288 415.960415 
L 162.262757 413.974198 
L 162.23653 416.186121 
L 173.621335 417.722368 
L 173.620265 417.812651 
L 162.23546 416.276404 
L 162.209232 418.488326 
z
" style="stroke:#000000;stroke-linejoin:miter;"/>
   </g>
   <g id="patch_4">
    <path clip-path="url(#pc79e65b71d)" d="M 140.1408 197.75985 
L 142.24191 196.873849 
L 142.113217 199.044552 
L 153.535426 206.751025 
L 153.530174 206.839626 
L 142.107964 199.133152 
L 141.979271 201.303855 
z
" style="stroke:#000000;stroke-linejoin:miter;"/>
   </g>
   <g id="patch_5">
    <path clip-path="url(#pc79e65b71d)" d="M 407.9808 170.411963 
L 412.074113 166.748449 
L 412.003107 170.581048 
L 429.420531 174.25336 
L 429.395469 175.606041 
L 411.978045 171.93373 
L 411.907039 175.766329 
z
" style="stroke:#000000;stroke-linejoin:miter;"/>
   </g>
   <g id="patch_6">
    <path clip-path="url(#pc79e65b71d)" d="M 256.6512 56.348499 
L 258.66 54.08963 
L 258.66 56.303322 
L 267.3648 56.303322 
L 267.3648 56.393677 
L 258.66 56.393677 
L 258.66 58.607368 
z
" style="stroke:#000000;stroke-linejoin:miter;"/>
   </g>
   <g id="patch_7">
    <path clip-path="url(#pc79e65b71d)" d="M 496.368 458.427148 
L 494.26689 459.31315 
L 494.395583 457.142447 
L 482.973374 449.435973 
L 482.978626 449.347373 
L 494.400836 457.053846 
L 494.529529 454.883143 
z
" style="stroke:#000000;stroke-linejoin:miter;"/>
   </g>
   <g id="matplotlib.axis_1">
    <g id="xtick_1">
     <g id="line2d_1">
      <defs>
       <path d="M 0 0 
L 0 3.5 
" id="ma20ad5f4cb" style="stroke:#000000;stroke-width:0.8;"/>
      </defs>
      <g>
       <use style="stroke:#000000;stroke-width:0.8;" x="108" xlink:href="#ma20ad5f4cb" y="512.64"/>
      </g>
     </g>
     <g id="line2d_2">
      <defs>
       <path d="M 0 0 
L 0 -3.5 
" id="m988ef4d288" style="stroke:#000000;stroke-width:0.8;"/>
      </defs>
      <g>
       <use style="stroke:#000000;stroke-width:0.8;" x="108" xlink:href="#m988ef4d288" y="69.12"/>
      </g>
     </g>
    </g>
    <g id="xtick_2">
     <g id="line2d_3">
      <g>
       <use style="stroke:#000000;stroke-width:0.8;" x="241.92" xlink:href="#ma20ad5f4cb" y="512.64"/>
      </g>
     </g>
     <g id="line2d_4">
      <g>
       <use style="stroke:#000000;stroke-width:0.8;" x="241.92" xlink:href="#m988ef4d288" y="69.12"/>
      </g>
     </g>
    </g>
    <g id="xtick_3">
     <g id="line2d_5">
      <g>
       <use style="stroke:#000000;stroke-width:0.8;" x="375.84" xlink:href="#ma20ad5f4cb" y="512.64"/>
      </g>
     </g>
     <g id="line2d_6">
      <g>
       <use style="stroke:#000000;stroke-width:0.8;" x="375.84" xlink:href="#m988ef4d288" y="69.12"/>
      </g>
     </g>
    </g>
    <g id="xtick_4">
     <g id="line2d_7">
      <g>
       <use style="stroke:#000000;stroke-width:0.8;" x="509.76" xlink:href="#ma20ad5f4cb" y="512.64"/>
      </g>
     </g>
     <g id="line2d_8">
      <g>
       <use style="stroke:#000000;stroke-width:0.8;" x="509.76" xlink:href="#m988ef4d288" y="69.12"/>
      </g>
     </g>
    </g>
    <g id="xtick_5">
     <g id="line2d_9">
      <g>
       <use style="stroke:#000000;stroke-width:0.8;" x="643.68" xlink:href="#ma20ad5f4cb" y="512.64"/>
      </g>
     </g>
     <g id="line2d_10">
      <g>
       <use style="stroke:#000000;stroke-width:0.8;" x="643.68" xlink:href="#m988ef4d288" y="69.12"/>
      </g>
     </g>
    </g>
    <g id="xtick_6">
     <g id="line2d_11">
      <g>
       <use style="stroke:#000000;stroke-width:0.8;" x="777.6" xlink:href="#ma20ad5f4cb" y="512.64"/>
      </g>
     </g>
     <g id="line2d_12">
      <g>
       <use style="stroke:#000000;stroke-width:0.8;" x="777.6" xlink:href="#m988ef4d288" y="69.12"/>
      </g>
     </g>
    </g>
   </g>
   <g id="matplotlib.axis_2">
    <g id="ytick_1">
     <g id="line2d_13">
      <defs>
       <path d="M 0 0 
L -3.5 0 
" id="m0a72e44ccd" style="stroke:#000000;stroke-width:0.8;"/>
      </defs>
      <g>
       <use style="stroke:#000000;stroke-width:0.8;" x="108" xlink:href="#m0a72e44ccd" y="512.64"/>
      </g>
     </g>
     <g id="line2d_14">
      <defs>
       <path d="M 0 0 
L 3.5 0 
" id="m3b4fd81676" style="stroke:#000000;stroke-width:0.8;"/>
      </defs>
      <g>
       <use style="stroke:#000000;stroke-width:0.8;" x="777.6" xlink:href="#m3b4fd81676" y="512.64"/>
      </g>
     </g>
    </g>
    <g id="ytick_2">
     <g id="line2d_15">
      <g>
       <use style="stroke:#000000;stroke-width:0.8;" x="108" xlink:href="#m0a72e44ccd" y="422.285247"/>
      </g>
     </g>
     <g id="line2d_16">
      <g>
       <use style="stroke:#000000;stroke-width:0.8;" x="777.6" xlink:href="#m3b4fd81676" y="422.285247"/>
      </g>
     </g>
    </g>
    <g id="ytick_3">
     <g id="line2d_17">
      <g>
       <use style="stroke:#000000;stroke-width:0.8;" x="108" xlink:href="#m0a72e44ccd" y="331.930495"/>
      </g>
     </g>
     <g id="line2d_18">
      <g>
       <use style="stroke:#000000;stroke-width:0.8;" x="777.6" xlink:href="#m3b4fd81676" y="331.930495"/>
      </g>
     </g>
    </g>
    <g id="ytick_4">
     <g id="line2d_19">
      <g>
       <use style="stroke:#000000;stroke-width:0.8;" x="108" xlink:href="#m0a72e44ccd" y="241.575742"/>
      </g>
     </g>
     <g id="line2d_20">
      <g>
       <use style="stroke:#000000;stroke-width:0.8;" x="777.6" xlink:href="#m3b4fd81676" y="241.575742"/>
      </g>
     </g>
    </g>
    <g id="ytick_5">
     <g id="line2d_21">
      <g>
       <use style="stroke:#000000;stroke-width:0.8;" x="108" xlink:href="#m0a72e44ccd" y="151.22099"/>
      </g>
     </g>
     <g id="line2d_22">
      <g>
       <use style="stroke:#000000;stroke-width:0.8;" x="777.6" xlink:href="#m3b4fd81676" y="151.22099"/>
      </g>
     </g>
    </g>
   </g>
   <g id="line2d_23">
    <path clip-path="url(#pc79e65b71d)" d="M 108 512.64 
L 120.064865 475.047425 
L 125.427027 459.063066 
L 128.778378 449.705814 
L 131.459459 442.863837 
L 133.47027 438.278364 
L 135.481081 434.261498 
L 137.491892 430.829149 
L 139.502703 427.919813 
L 141.513514 425.434103 
L 143.524324 423.276176 
L 146.205405 420.779657 
L 148.886486 418.604334 
L 152.237838 416.212062 
L 155.589189 414.087988 
L 159.610811 411.803295 
L 164.302703 409.415499 
L 169.664865 406.964025 
L 175.697297 404.467841 
L 182.4 401.931182 
L 190.443243 399.12701 
L 199.827027 396.098032 
L 210.551351 392.872314 
L 223.286486 389.284615 
L 238.032432 385.376545 
L 254.789189 381.176794 
L 273.556757 376.704749 
L 295.005405 371.824058 
L 319.135135 366.560697 
L 347.286486 360.657063 
L 378.118919 354.420504 
L 412.972973 347.597951 
L 452.518919 340.088876 
L 497.427027 331.799415 
L 547.697297 322.759191 
L 604 312.872155 
L 668.345946 301.808881 
L 761.513514 286.054994 
L 777.6 283.348962 
L 777.6 283.348962 
" style="fill:none;stroke:#000000;stroke-linecap:square;stroke-width:1.5;"/>
   </g>
   <g id="line2d_24">
    <path clip-path="url(#pc79e65b71d)" d="M 108 193.98375 
L 213.251121 181.826467 
L 213.251121 181.826467 
" style="fill:none;stroke:#000000;stroke-dasharray:5.55,2.4;stroke-dashoffset:0;stroke-width:1.5;"/>
   </g>
   <g id="line2d_25">
    <path clip-path="url(#pc79e65b71d)" d="M 213.251121 181.826467 
L 777.6 116.64 
L 777.6 116.64 
" style="fill:none;stroke:#000000;stroke-linecap:square;stroke-width:2.5;"/>
   </g>
   <g id="line2d_26">
    <path clip-path="url(#pc79e65b71d)" d="M 108 512.64 
L 213.251121 181.826467 
L 213.251121 181.826467 
" style="fill:none;stroke:#000000;stroke-linecap:square;stroke-width:2.5;"/>
   </g>
   <g id="line2d_27">
    <path clip-path="url(#pc79e65b71d)" d="M 213.251121 181.826467 
L 271.418907 -1 
L 271.418907 -1 
" style="fill:none;stroke:#000000;stroke-dasharray:5.55,2.4;stroke-dashoffset:0;stroke-width:1.5;"/>
   </g>
   <g id="line2d_28">
    <path clip-path="url(#pc79e65b71d)" d="M 108 512.64 
L 213.251121 500.482717 
L 213.251121 500.482717 
" style="fill:none;stroke:#000000;stroke-linecap:square;stroke-width:2.5;"/>
   </g>
   <g id="line2d_29">
    <path clip-path="url(#pc79e65b71d)" d="M 213.251121 500.482717 
L 777.6 435.29625 
L 777.6 435.29625 
" style="fill:none;stroke:#000000;stroke-linecap:square;stroke-width:2.5;"/>
   </g>
   <g id="patch_8">
    <path d="M 108 512.64 
L 108 69.12 
" style="fill:none;stroke:#000000;stroke-linecap:square;stroke-linejoin:miter;stroke-width:0.8;"/>
   </g>
   <g id="patch_9">
    <path d="M 777.6 512.64 
L 777.6 69.12 
" style="fill:none;stroke:#000000;stroke-linecap:square;stroke-linejoin:miter;stroke-width:0.8;"/>
   </g>
   <g id="patch_10">
    <path d="M 108 512.64 
L 777.6 512.64 
" style="fill:none;stroke:#000000;stroke-linecap:square;stroke-linejoin:miter;stroke-width:0.8;"/>
   </g>
   <g id="patch_11">
    <path d="M 108 69.12 
L 777.6 69.12 
" style="fill:none;stroke:#000000;stroke-linecap:square;stroke-linejoin:miter;stroke-width:0.8;"/>
   </g>
   <g id="text_1">
    <!-- $c$ -->
    <g transform="translate(108 64.602262)scale(0.22 -0.22)">
     <defs>
      <path d="M 2502 2432 
C 2381 2432 2323 2432 2234 2355 
C 2195 2323 2125 2227 2125 2124 
C 2125 1996 2221 1919 2342 1919 
C 2496 1919 2669 2047 2669 2303 
C 2669 2591 2374 2816 1933 2816 
C 1094 2816 256 1932 256 1011 
C 256 446 602 -64 1254 -64 
C 2125 -64 2675 622 2675 706 
C 2675 745 2637 777 2611 777 
C 2592 777 2586 771 2528 712 
C 2118 161 1510 64 1267 64 
C 826 64 685 453 685 777 
C 685 1004 794 1634 1024 2073 
C 1190 2374 1536 2687 1939 2687 
C 2022 2687 2374 2676 2502 2432 
z
" id="CMMI12-63" transform="scale(0.015625)"/>
     </defs>
     <use transform="scale(0.996264)" xlink:href="#CMMI12-63"/>
    </g>
   </g>
   <g id="text_2">
    <!-- $m$ -->
    <g transform="translate(780.2784 512.64)scale(0.22 -0.22)">
     <defs>
      <path d="M 1318 1870 
C 1331 1909 1491 2228 1728 2432 
C 1894 2585 2112 2687 2362 2687 
C 2618 2687 2707 2496 2707 2241 
C 2707 2202 2707 2075 2630 1775 
L 2470 1117 
C 2419 925 2298 453 2285 383 
C 2259 287 2221 121 2221 95 
C 2221 6 2291 -64 2387 -64 
C 2579 -64 2611 83 2669 313 
L 3053 1838 
C 3066 1890 3398 2687 4102 2687 
C 4358 2687 4448 2496 4448 2241 
C 4448 1883 4198 1187 4058 804 
C 4000 651 3968 568 3968 453 
C 3968 166 4166 -64 4474 -64 
C 5069 -64 5293 874 5293 913 
C 5293 945 5267 970 5229 970 
C 5171 970 5165 951 5133 842 
C 4986 332 4749 64 4493 64 
C 4429 64 4326 70 4326 274 
C 4326 440 4403 645 4429 715 
C 4544 1021 4832 1775 4832 2145 
C 4832 2528 4608 2816 4122 2816 
C 3693 2816 3347 2573 3091 2196 
C 3072 2541 2861 2816 2381 2816 
C 1811 2816 1510 2413 1395 2253 
C 1376 2617 1114 2816 832 2816 
C 646 2816 499 2726 378 2483 
C 262 2253 173 1864 173 1838 
C 173 1813 198 1781 243 1781 
C 294 1781 301 1787 339 1934 
C 435 2311 557 2687 813 2687 
C 960 2687 1011 2585 1011 2394 
C 1011 2253 947 2004 902 1807 
L 723 1117 
C 698 996 627 708 595 593 
C 550 427 480 127 480 95 
C 480 6 550 -64 646 -64 
C 723 -64 813 -26 864 70 
C 877 102 934 325 966 453 
L 1107 1028 
L 1318 1870 
z
" id="CMMI12-6d" transform="scale(0.015625)"/>
     </defs>
     <use transform="scale(0.996264)" xlink:href="#CMMI12-6d"/>
    </g>
   </g>
   <g id="text_3">
    <!-- $c(m)$ -->
    <g transform="translate(174.96 422.285247)scale(0.22 -0.22)">
     <defs>
      <path d="M 1958 -1562 
C 1958 -1556 1958 -1543 1939 -1524 
C 1645 -1223 858 -403 858 1596 
C 858 3595 1632 4408 1946 4729 
C 1946 4735 1958 4748 1958 4767 
C 1958 4787 1939 4800 1914 4800 
C 1843 4800 1299 4325 986 3620 
C 666 2909 576 2218 576 1603 
C 576 1141 621 360 1005 -467 
C 1312 -1133 1837 -1600 1914 -1600 
C 1946 -1600 1958 -1588 1958 -1562 
z
" id="CMR17-28" transform="scale(0.015625)"/>
      <path d="M 1683 1596 
C 1683 2057 1638 2839 1254 3665 
C 947 4332 422 4800 346 4800 
C 326 4800 301 4793 301 4761 
C 301 4748 307 4742 314 4729 
C 621 4408 1402 3595 1402 1603 
C 1402 -396 627 -1210 314 -1530 
C 307 -1543 301 -1549 301 -1562 
C 301 -1594 326 -1600 346 -1600 
C 416 -1600 960 -1127 1274 -422 
C 1594 289 1683 981 1683 1596 
z
" id="CMR17-29" transform="scale(0.015625)"/>
     </defs>
     <use transform="scale(0.996264)" xlink:href="#CMMI12-63"/>
     <use transform="translate(41.983234 0)scale(0.996264)" xlink:href="#CMR17-28"/>
     <use transform="translate(77.264001 0)scale(0.996264)" xlink:href="#CMMI12-6d"/>
     <use transform="translate(162.591226 0)scale(0.996264)" xlink:href="#CMR17-29"/>
    </g>
   </g>
   <g id="text_4">
    <!-- $~\leftarrow \overline{\overline{c}}(m)= \overline{\MPC}m = (1-\UnempPrb^{1/\CRRA}\pmb{\text{\TH}}_{R})m$ -->
    <g transform="translate(233.8848 125.391447)scale(0.22 -0.22)">
     <defs>
      <path d="M 5811 1472 
C 5926 1472 6042 1472 6042 1600 
C 6042 1728 5926 1728 5811 1728 
L 1056 1728 
C 1408 1996 1581 2259 1632 2342 
C 1920 2784 1971 3187 1971 3193 
C 1971 3270 1894 3270 1843 3270 
C 1734 3270 1728 3257 1702 3142 
C 1555 2515 1178 1984 454 1683 
C 384 1657 358 1644 358 1600 
C 358 1555 390 1542 454 1516 
C 1120 1241 1549 742 1709 25 
C 1728 -52 1734 -71 1843 -71 
C 1894 -71 1971 -71 1971 6 
C 1971 19 1914 422 1645 851 
C 1517 1043 1331 1267 1056 1472 
L 5811 1472 
z
" id="CMSY10-20" transform="scale(0.015625)"/>
      <path d="M 4115 2048 
C 4211 2048 4307 2048 4307 2156 
C 4307 2272 4198 2272 4090 2272 
L 512 2272 
C 403 2272 294 2272 294 2156 
C 294 2048 390 2048 486 2048 
L 4115 2048 
z
M 4090 927 
C 4198 927 4307 927 4307 1043 
C 4307 1152 4211 1152 4115 1152 
L 486 1152 
C 390 1152 294 1152 294 1043 
C 294 927 403 927 512 927 
L 4090 927 
z
" id="CMR17-3d" transform="scale(0.015625)"/>
      <path d="M 1363 1595 
C 1574 1710 1811 1908 1971 2042 
C 2355 2374 2496 2476 2739 2572 
C 2714 2534 2707 2483 2707 2438 
C 2707 2265 2854 2233 2918 2233 
C 3123 2233 3238 2425 3238 2547 
C 3238 2585 3226 2752 3002 2752 
C 2618 2752 2240 2425 1958 2188 
C 1587 1863 1402 1723 1139 1640 
L 1382 2655 
C 1382 2758 1299 2816 1216 2816 
C 1158 2816 1018 2796 966 2591 
L 371 223 
C 352 146 352 134 352 95 
C 352 6 422 -64 518 -64 
C 710 -64 749 102 781 236 
C 819 369 1082 1433 1094 1472 
C 1907 1433 2182 1229 2182 917 
C 2182 873 2182 854 2163 783 
C 2138 662 2138 592 2138 554 
C 2138 172 2387 -64 2701 -64 
C 2963 -64 3110 121 3206 286 
C 3341 535 3424 885 3424 911 
C 3424 943 3398 968 3360 968 
C 3302 968 3296 943 3270 841 
C 3187 535 3046 64 2720 64 
C 2579 64 2509 146 2509 369 
C 2509 490 2534 631 2560 726 
C 2573 790 2592 866 2592 936 
C 2592 1518 1786 1576 1363 1595 
z
" id="CMMI12-14" transform="scale(0.015625)"/>
      <path d="M 1702 4083 
C 1702 4217 1696 4224 1606 4224 
C 1357 3927 979 3833 621 3820 
C 602 3820 570 3820 563 3808 
C 557 3795 557 3782 557 3648 
C 755 3648 1088 3686 1344 3839 
L 1344 467 
C 1344 243 1331 166 781 166 
L 589 166 
L 589 0 
C 896 6 1216 12 1523 12 
C 1830 12 2150 6 2458 0 
L 2458 166 
L 2266 166 
C 1715 166 1702 236 1702 467 
L 1702 4083 
z
" id="CMR17-31" transform="scale(0.015625)"/>
      <path d="M 4218 1472 
C 4326 1472 4442 1472 4442 1600 
C 4442 1728 4326 1728 4218 1728 
L 755 1728 
C 646 1728 531 1728 531 1600 
C 531 1472 646 1472 755 1472 
L 4218 1472 
z
" id="CMSY10-0" transform="scale(0.015625)"/>
      <path d="M 1050 776 
C 1446 1687 2195 2495 3046 2495 
C 3366 2495 3507 2226 3507 1873 
C 3507 1597 3379 1000 3174 628 
C 3014 339 2733 64 2432 64 
C 2304 64 2010 121 2010 474 
C 2099 493 2138 558 2138 615 
C 2138 686 2086 724 2029 724 
C 1869 724 1869 526 1869 461 
C 1869 108 2144 -64 2432 -64 
C 3136 -64 3872 801 3872 1674 
C 3872 2155 3603 2624 3059 2624 
C 2669 2624 2234 2476 1786 2059 
C 1542 1841 1274 1527 954 904 
C 800 1077 800 1283 800 1373 
C 800 1854 1107 2674 1549 2751 
C 1587 2758 1626 2764 1626 2828 
C 1626 2835 1626 2880 1555 2880 
C 1101 2880 525 2014 525 1193 
C 525 859 595 763 794 500 
C 570 -143 480 -702 480 -906 
C 480 -1175 582 -1408 883 -1408 
C 1306 -1408 1715 -847 1715 -341 
C 1715 -104 1658 -26 1440 269 
C 1350 378 1133 660 1050 776 
z
M 890 365 
L 1357 -248 
C 1427 -354 1434 -433 1434 -525 
C 1434 -906 1152 -1280 883 -1280 
C 704 -1280 621 -1149 621 -899 
C 621 -597 800 108 890 365 
z
" id="CMMI12-7d" transform="scale(0.015625)"/>
      <path d="M 2746 4563 
C 2746 4569 2784 4665 2784 4678 
C 2784 4755 2720 4800 2669 4800 
C 2637 4800 2579 4800 2528 4659 
L 384 -1364 
C 384 -1370 346 -1466 346 -1479 
C 346 -1556 410 -1600 461 -1600 
C 499 -1600 557 -1594 602 -1460 
L 2746 4563 
z
" id="CMMI12-3d" transform="scale(0.015625)"/>
      <path d="M 198 -1085 
C 192 -1116 179 -1154 179 -1191 
C 179 -1287 256 -1351 352 -1351 
C 448 -1351 538 -1287 576 -1198 
C 602 -1141 781 -390 986 389 
C 1114 70 1350 -64 1600 -64 
C 2323 -64 3142 830 3142 1794 
C 3142 2477 2726 2816 2285 2816 
C 1722 2816 1037 2234 826 1385 
L 198 -1085 
z
M 1594 64 
C 1158 64 1050 568 1050 645 
C 1050 683 1210 1289 1229 1385 
C 1555 2656 2182 2687 2278 2687 
C 2566 2687 2726 2426 2726 2049 
C 2726 1724 2554 1091 2445 823 
C 2253 383 1920 64 1594 64 
z
" id="CMMI12-1a" transform="scale(0.015625)"/>
      <path d="M 474 4352 
L 474 4211 
L 582 4211 
C 749 4211 883 4192 883 3951 
L 883 409 
C 883 160 774 140 474 140 
L 474 0 
L 1594 0 
L 1594 140 
L 1466 140 
C 1318 140 1184 160 1184 364 
L 1184 1139 
L 2176 1139 
C 2797 1196 3251 1722 3251 2326 
C 3251 2872 2861 3411 2266 3500 
C 2163 3520 2061 3520 1958 3520 
L 1184 3520 
L 1184 3964 
C 1184 4137 1210 4211 1594 4211 
L 1594 4352 
L 474 4352 
z
M 1184 1280 
L 1184 3379 
L 1786 3379 
C 2093 3379 2394 3353 2624 3077 
C 2803 2872 2899 2596 2899 2326 
C 2899 1870 2586 1350 2003 1280 
L 1184 1280 
z
" id="SFRM3583-de" transform="scale(0.015625)"/>
      <path d="M 2355 3917 
C 2413 4153 2438 4166 2688 4166 
L 3149 4166 
C 3699 4166 4109 4000 4109 3503 
C 4109 3177 3942 2240 2656 2240 
L 1933 2240 
L 2355 3917 
z
M 3245 2163 
C 4038 2335 4659 2846 4659 3394 
C 4659 3892 4154 4352 3264 4352 
L 1530 4352 
C 1402 4352 1344 4352 1344 4230 
C 1344 4166 1389 4166 1510 4166 
C 1894 4166 1894 4115 1894 4045 
C 1894 4032 1894 3994 1869 3898 
L 1005 475 
C 947 253 934 190 493 190 
C 346 190 301 190 301 69 
C 301 6 371 6 390 6 
C 506 6 640 19 762 19 
L 1517 19 
C 1632 19 1766 6 1882 6 
C 1933 6 2003 6 2003 126 
C 2003 190 1946 190 1850 190 
C 1459 190 1459 241 1459 304 
C 1459 310 1459 355 1472 405 
L 1901 2112 
L 2669 2112 
C 3277 2112 3392 1731 3392 1522 
C 3392 1426 3328 1179 3283 1014 
C 3213 723 3194 653 3194 532 
C 3194 82 3565 -128 3994 -128 
C 4512 -128 4736 501 4736 589 
C 4736 634 4704 653 4666 653 
C 4614 653 4602 615 4589 564 
C 4435 114 4173 0 4013 0 
C 3853 0 3750 69 3750 355 
C 3750 507 3827 1084 3834 1116 
C 3866 1350 3866 1376 3866 1426 
C 3866 1889 3488 2086 3245 2163 
z
" id="CMMI12-52" transform="scale(0.015625)"/>
     </defs>
     <use transform="scale(0.996264)" xlink:href="#CMSY10-20"/>
     <use transform="translate(127.300683 0)scale(0.996264)" xlink:href="#CMMI12-63"/>
     <use transform="translate(169.283917 0)scale(0.996264)" xlink:href="#CMR17-28"/>
     <use transform="translate(204.564685 0)scale(0.996264)" xlink:href="#CMMI12-6d"/>
     <use transform="translate(289.891909 0)scale(0.996264)" xlink:href="#CMR17-29"/>
     <use transform="translate(352.846686 0)scale(0.996264)" xlink:href="#CMR17-3d"/>
     <use transform="translate(452.235483 0)scale(0.996264)" xlink:href="#CMMI12-14"/>
     <use transform="translate(508.390107 0)scale(0.996264)" xlink:href="#CMMI12-6d"/>
     <use transform="translate(621.39134 0)scale(0.996264)" xlink:href="#CMR17-3d"/>
     <use transform="translate(720.780137 0)scale(0.996264)" xlink:href="#CMR17-28"/>
     <use transform="translate(756.060905 0)scale(0.996264)" xlink:href="#CMR17-31"/>
     <use transform="translate(823.890589 0)scale(0.996264)" xlink:href="#CMSY10-0"/>
     <use transform="translate(923.517264 0)scale(0.996264)" xlink:href="#CMMI12-7d"/>
     <use transform="translate(985.621759 36.153639)scale(0.697382)" xlink:href="#CMR17-31"/>
     <use transform="translate(1017.604941 36.153639)scale(0.697382)" xlink:href="#CMMI12-3d"/>
     <use transform="translate(1051.747232 36.153639)scale(0.697382)" xlink:href="#CMMI12-1a"/>
     <use transform="translate(1083.037426 0)scale(0.996264)" xlink:href="#SFRM3583-de"/>
     <use transform="translate(1085.251307 2.767393)scale(0.996264)" xlink:href="#SFRM3583-de"/>
     <use transform="translate(1087.465188 0)scale(0.996264)" xlink:href="#SFRM3583-de"/>
     <use transform="translate(1143.174871 -14.943915)scale(0.697382)" xlink:href="#CMMI12-52"/>
     <use transform="translate(1196.222433 0)scale(0.996264)" xlink:href="#CMR17-29"/>
     <use transform="translate(1231.503201 0)scale(0.996264)" xlink:href="#CMMI12-6d"/>
     <path d="M 127.300683 74.77436 
L 169.283917 74.77436 
L 169.283917 78.75931 
L 127.300683 78.75931 
L 127.300683 74.77436 
z
"/>
     <path d="M 127.300683 54.849612 
L 169.283917 54.849612 
L 169.283917 58.834561 
L 127.300683 58.834561 
L 127.300683 54.849612 
z
"/>
     <path d="M 452.235483 54.849612 
L 508.390107 54.849612 
L 508.390107 58.834561 
L 452.235483 58.834561 
L 452.235483 54.849612 
z
"/>
    </g>
   </g>
   <g id="text_5">
    <!-- Upper Bound $ = $ Min $[\overline{\overline{c}}(m),\overline{c}(m)]$ -->
    <g transform="translate(429.408 183.965176)scale(0.22 -0.22)">
     <defs>
      <path d="M 467 4352 
L 467 4211 
L 595 4211 
C 742 4211 877 4191 877 3982 
L 877 1501 
C 877 808 1274 -64 2227 -64 
C 2976 -64 3379 744 3418 1367 
L 3418 3778 
C 3418 4109 3597 4211 3827 4211 
L 3827 4352 
L 2918 4352 
L 2918 4211 
C 3142 4211 3328 4109 3328 3784 
L 3328 1647 
C 3328 1196 3270 725 2925 382 
C 2733 191 2464 76 2195 76 
C 1747 76 1389 432 1274 846 
C 1197 1100 1190 1361 1190 1622 
L 1190 3975 
C 1190 4166 1261 4211 1600 4211 
L 1600 4352 
L 467 4352 
z
" id="SFRM3583-55" transform="scale(0.015625)"/>
      <path d="M 288 2745 
L 288 2605 
L 371 2605 
C 576 2605 666 2522 666 2324 
L 666 -724 
C 666 -769 672 -814 672 -858 
C 672 -1063 512 -1076 346 -1076 
L 288 -1076 
L 288 -1216 
L 1306 -1216 
L 1306 -1076 
L 1216 -1076 
C 1069 -1076 928 -1057 928 -852 
L 934 490 
C 1069 158 1459 -9 1728 -9 
C 2438 -9 2912 707 2912 1410 
C 2912 2036 2534 2816 1798 2816 
C 1453 2816 1050 2598 928 2298 
L 922 2816 
L 288 2745 
z
M 2579 1288 
C 2547 796 2278 68 1709 68 
C 1370 68 922 368 922 765 
C 922 803 928 841 928 880 
L 928 1825 
C 928 1889 922 1953 922 2017 
C 922 2375 1357 2733 1734 2733 
C 2349 2733 2586 1902 2586 1403 
C 2586 1365 2586 1327 2579 1288 
z
" id="SFRM3583-70" transform="scale(0.015625)"/>
      <path d="M 563 1515 
L 2246 1515 
C 2259 1515 2285 1508 2310 1508 
C 2355 1508 2374 1534 2374 1573 
C 2374 2149 2099 2816 1382 2816 
C 614 2816 237 2019 237 1385 
C 237 751 589 33 1350 -64 
C 1376 -58 1402 -64 1427 -64 
C 1869 -64 2208 245 2355 665 
C 2362 685 2368 710 2368 730 
C 2368 749 2362 768 2336 768 
C 2272 768 2266 665 2246 607 
C 2118 297 1843 26 1485 26 
C 1216 26 960 181 813 400 
C 576 723 563 1137 563 1517 
L 563 1515 
z
M 570 1595 
C 582 2099 832 2738 1370 2738 
C 1818 2738 2010 2260 2061 1886 
C 2067 1789 2067 1692 2080 1595 
L 570 1595 
z
" id="SFRM3583-65" transform="scale(0.015625)"/>
      <path d="M 288 2744 
L 288 2602 
L 352 2602 
C 557 2602 666 2557 666 2273 
L 666 360 
C 666 153 512 140 288 140 
L 288 0 
L 1389 0 
L 1389 140 
L 1261 140 
C 1075 140 922 160 922 405 
L 922 1349 
C 922 1898 1037 2738 1658 2738 
C 1728 2738 1798 2719 1862 2693 
C 1786 2660 1722 2609 1722 2518 
C 1722 2428 1792 2337 1901 2337 
C 1997 2337 2074 2421 2074 2518 
C 2074 2732 1837 2816 1664 2816 
C 1274 2816 979 2434 922 2079 
L 915 2816 
L 288 2744 
z
" id="SFRM3583-72" transform="scale(0.015625)"/>
      <path d="M 474 4352 
L 474 4211 
L 582 4211 
C 749 4211 883 4192 883 3943 
L 883 408 
C 883 159 774 140 474 140 
L 474 0 
L 2067 0 
C 2176 6 2278 0 2387 0 
C 2995 0 3738 368 3738 1151 
C 3738 1768 3168 2270 2554 2270 
C 2976 2383 3578 2580 3578 3274 
C 3578 3892 2989 4313 2387 4352 
L 474 4352 
z
M 1184 2223 
L 2285 2223 
C 2470 2223 2656 2211 2822 2115 
C 3168 1930 3379 1554 3379 1172 
C 3379 554 2854 134 2227 134 
C 2131 134 2029 140 1933 140 
L 1357 140 
C 1235 140 1184 210 1184 325 
L 1184 2223 
z
M 1184 2300 
L 1184 4001 
C 1184 4115 1210 4211 1357 4211 
L 1907 4211 
C 2003 4211 2099 4217 2202 4217 
C 2662 4217 3232 3950 3232 3281 
C 3232 2790 2816 2395 2342 2319 
C 2240 2300 2131 2300 2029 2300 
L 1184 2300 
z
" id="SFRM3583-42" transform="scale(0.015625)"/>
      <path d="M 1350 2816 
C 614 2725 237 2032 237 1359 
C 237 673 685 -64 1440 -64 
L 1504 -64 
C 2240 26 2624 712 2624 1366 
C 2624 2021 2182 2816 1440 2816 
C 1408 2822 1382 2816 1350 2816 
z
M 563 1256 
L 563 1359 
C 563 1845 621 2388 1114 2660 
C 1197 2699 1293 2731 1389 2738 
L 1434 2738 
C 2054 2738 2298 2006 2298 1482 
C 2298 971 2246 240 1606 46 
C 1549 33 1491 20 1434 20 
C 960 20 653 499 595 958 
C 576 1055 576 1159 563 1256 
z
" id="SFRM3583-6f" transform="scale(0.015625)"/>
      <path d="M 301 2744 
L 301 2600 
L 358 2600 
C 570 2600 685 2568 685 2183 
C 685 2099 678 2014 678 1929 
L 678 887 
C 678 418 762 -64 1459 -64 
C 1856 -64 2170 216 2266 587 
L 2272 -64 
L 2906 -25 
L 2906 118 
L 2842 118 
C 2675 118 2528 137 2528 411 
L 2528 2816 
L 1888 2744 
L 1888 2600 
L 1958 2600 
C 2176 2600 2266 2529 2266 2262 
L 2266 1063 
C 2266 587 2042 14 1491 14 
C 1318 14 1133 72 1030 222 
C 947 339 941 502 941 652 
L 941 2816 
L 301 2744 
z
" id="SFRM3583-75" transform="scale(0.015625)"/>
      <path d="M 301 2744 
L 301 2602 
L 365 2602 
C 570 2602 678 2557 678 2273 
L 678 360 
C 678 153 525 140 301 140 
L 301 0 
L 1318 0 
L 1318 140 
L 1229 140 
C 1082 140 941 160 941 360 
L 941 1775 
C 979 2215 1203 2738 1709 2738 
C 2112 2738 2266 2415 2266 1950 
L 2266 360 
C 2266 153 2112 140 1888 140 
L 1888 0 
L 2906 0 
L 2906 140 
L 2803 140 
C 2656 140 2528 160 2528 386 
L 2528 1885 
C 2528 2299 2451 2816 1760 2816 
C 1414 2816 1178 2628 1024 2350 
C 986 2279 947 2202 934 2124 
L 928 2816 
L 301 2744 
z
" id="SFRM3583-6e" transform="scale(0.015625)"/>
      <path d="M 1882 4408 
L 1882 4265 
L 1952 4265 
C 2150 4265 2259 4207 2259 3960 
L 2253 2305 
C 2131 2603 1766 2805 1459 2805 
C 710 2805 269 2039 269 1357 
C 269 714 653 -19 1338 -64 
L 1395 -64 
C 1741 -64 2118 150 2246 468 
L 2253 -64 
L 2893 -26 
L 2893 117 
L 2816 117 
C 2605 117 2515 195 2515 422 
L 2515 4480 
L 1882 4408 
z
M 595 1214 
L 595 1312 
C 595 1760 659 2292 1056 2577 
C 1190 2675 1344 2727 1498 2727 
C 1862 2727 2259 2376 2259 2000 
C 2259 1928 2253 1850 2253 1779 
L 2253 734 
C 2253 383 1811 13 1440 13 
C 947 13 678 520 621 948 
C 608 1039 608 1123 595 1214 
z
" id="SFRM3583-64" transform="scale(0.015625)"/>
      <path d="M 474 4352 
L 474 4211 
L 582 4211 
C 736 4211 890 4192 890 3975 
C 890 3924 883 3873 883 3829 
L 883 796 
C 883 733 890 669 890 599 
C 890 395 832 140 474 140 
L 474 0 
L 1382 0 
L 1382 140 
C 1005 140 973 401 973 624 
L 979 4217 
C 1005 4083 1069 3950 1114 3822 
C 1562 2631 1965 1427 2394 229 
C 2419 153 2458 0 2515 0 
C 2592 0 2790 663 2906 988 
C 3283 2013 3642 3058 4013 4096 
C 4026 4141 4051 4185 4058 4236 
L 4064 363 
C 4064 191 3994 140 3654 140 
L 3654 0 
L 4774 0 
L 4774 140 
L 4666 140 
C 4499 140 4365 159 4365 408 
L 4365 3797 
C 4365 3841 4358 3892 4358 3943 
C 4358 4198 4506 4211 4774 4211 
L 4774 4352 
L 4096 4352 
L 4032 4339 
L 3917 4052 
L 2624 421 
L 1331 4052 
L 1216 4339 
L 1152 4352 
L 474 4352 
z
" id="SFRM3583-4d" transform="scale(0.015625)"/>
      <path d="M 326 2732 
L 326 2590 
L 358 2590 
C 563 2590 678 2558 678 2250 
L 678 359 
C 678 153 531 140 307 140 
L 307 0 
L 1274 0 
L 1274 140 
L 1190 140 
C 1056 140 934 153 934 372 
L 934 2803 
L 326 2732 
z
M 698 4160 
C 595 4160 531 4044 531 3960 
C 531 3864 608 3748 730 3748 
C 858 3748 934 3857 934 3954 
C 934 4044 858 4160 736 4160 
C 723 4166 710 4160 698 4160 
z
" id="SFRM3583-69" transform="scale(0.015625)"/>
      <path d="M 1504 -1600 
L 1504 -1376 
L 902 -1376 
L 902 4575 
L 1504 4575 
L 1504 4800 
L 678 4800 
L 678 -1600 
L 1504 -1600 
z
" id="CMR17-5b" transform="scale(0.015625)"/>
      <path d="M 1248 -26 
C 1248 345 1126 620 864 620 
C 659 620 557 454 557 313 
C 557 172 653 0 870 0 
C 954 0 1024 25 1082 83 
C 1094 96 1101 96 1107 96 
C 1120 96 1120 6 1120 -26 
C 1120 -233 1082 -642 710 -1051 
C 640 -1127 640 -1140 640 -1152 
C 640 -1184 672 -1216 704 -1216 
C 755 -1216 1248 -749 1248 -26 
z
" id="CMMI12-3b" transform="scale(0.015625)"/>
      <path d="M 915 4800 
L 90 4800 
L 90 4575 
L 691 4575 
L 691 -1376 
L 90 -1376 
L 90 -1600 
L 915 -1600 
L 915 4800 
z
" id="CMR17-5d" transform="scale(0.015625)"/>
     </defs>
     <use transform="scale(0.996264)" xlink:href="#SFRM3583-55"/>
     <use transform="translate(66.840991 0)scale(0.996264)" xlink:href="#SFRM3583-70"/>
     <use transform="translate(116.379419 0)scale(0.996264)" xlink:href="#SFRM3583-70"/>
     <use transform="translate(168.39782 0)scale(0.996264)" xlink:href="#SFRM3583-65"/>
     <use transform="translate(208.016219 0)scale(0.996264)" xlink:href="#SFRM3583-72"/>
     <use transform="translate(272.372858 0)scale(0.996264)" xlink:href="#SFRM3583-42"/>
     <use transform="translate(335.522583 0)scale(0.996264)" xlink:href="#SFRM3583-6f"/>
     <use transform="translate(380.101049 0)scale(0.996264)" xlink:href="#SFRM3583-75"/>
     <use transform="translate(429.639478 0)scale(0.996264)" xlink:href="#SFRM3583-6e"/>
     <use transform="translate(479.177906 0)scale(0.996264)" xlink:href="#SFRM3583-64"/>
     <use transform="translate(558.414627 0)scale(0.996264)" xlink:href="#CMR17-3d"/>
     <use transform="translate(659.827709 0)scale(0.996264)" xlink:href="#SFRM3583-4d"/>
     <use transform="translate(741.548782 0)scale(0.996264)" xlink:href="#SFRM3583-69"/>
     <use transform="translate(766.287114 0)scale(0.996264)" xlink:href="#SFRM3583-6e"/>
     <use transform="translate(845.523835 0)scale(0.996264)" xlink:href="#CMR17-5b"/>
     <use transform="translate(870.394894 0)scale(0.996264)" xlink:href="#CMMI12-63"/>
     <use transform="translate(912.378127 0)scale(0.996264)" xlink:href="#CMR17-28"/>
     <use transform="translate(947.658895 0)scale(0.996264)" xlink:href="#CMMI12-6d"/>
     <use transform="translate(1032.98612 0)scale(0.996264)" xlink:href="#CMR17-29"/>
     <use transform="translate(1068.266887 0)scale(0.996264)" xlink:href="#CMMI12-3b"/>
     <use transform="translate(1111.96847 0)scale(0.996264)" xlink:href="#CMMI12-63"/>
     <use transform="translate(1153.951703 0)scale(0.996264)" xlink:href="#CMR17-28"/>
     <use transform="translate(1189.232471 0)scale(0.996264)" xlink:href="#CMMI12-6d"/>
     <use transform="translate(1274.559696 0)scale(0.996264)" xlink:href="#CMR17-29"/>
     <use transform="translate(1309.840463 0)scale(0.996264)" xlink:href="#CMR17-5d"/>
     <path d="M 870.394894 74.77436 
L 912.378127 74.77436 
L 912.378127 78.75931 
L 870.394894 78.75931 
L 870.394894 74.77436 
z
"/>
     <path d="M 870.394894 54.849612 
L 912.378127 54.849612 
L 912.378127 58.834561 
L 870.394894 58.834561 
L 870.394894 54.849612 
z
"/>
     <path d="M 1111.96847 54.849612 
L 1153.951703 54.849612 
L 1153.951703 58.834561 
L 1111.96847 58.834561 
L 1111.96847 54.849612 
z
"/>
    </g>
   </g>
   <g id="text_6">
    <!-- Lower Bound: $\tilde{c}(m)= (1-\pmb{\text{\TH}}_{R})\tilde{\kappa}m$ -->
    <g transform="translate(322.272 431.320723)scale(0.22 -0.22)">
     <defs>
      <path d="M 467 4352 
L 467 4211 
L 576 4211 
C 742 4211 877 4192 877 3943 
L 877 408 
C 877 159 768 140 467 140 
L 467 0 
L 3206 0 
L 3341 1586 
L 3258 1586 
C 3219 1096 3194 395 2470 191 
C 2278 140 2086 140 1888 140 
L 1376 140 
C 1242 140 1184 204 1184 344 
C 1184 389 1190 427 1190 465 
L 1190 3797 
C 1190 3841 1184 3892 1184 3943 
C 1184 4166 1306 4211 1562 4211 
L 1702 4211 
L 1702 4352 
L 467 4352 
z
" id="SFRM3583-4c" transform="scale(0.015625)"/>
      <path d="M 90 2752 
L 90 2611 
L 141 2611 
C 397 2611 429 2494 563 2081 
L 1216 91 
C 1235 39 1248 -64 1318 -64 
L 1325 -64 
C 1382 -52 1402 65 1421 116 
L 1792 1247 
C 1850 1428 1907 1609 1971 1790 
C 2003 1893 2048 1997 2067 2100 
L 2074 2100 
C 2093 1997 2138 1893 2170 1790 
C 2234 1609 2291 1428 2349 1247 
L 2720 116 
C 2739 65 2758 -52 2816 -64 
L 2822 -64 
C 2893 -64 2906 39 2925 91 
L 3098 614 
C 3264 1124 3430 1629 3597 2139 
C 3661 2346 3776 2611 4051 2611 
L 4051 2752 
L 3296 2752 
L 3296 2611 
C 3456 2611 3552 2462 3552 2346 
C 3552 2249 3514 2152 3482 2061 
C 3290 1486 3104 905 2912 330 
C 2835 511 2784 704 2726 892 
C 2579 1338 2426 1790 2278 2242 
C 2259 2307 2221 2385 2221 2456 
C 2221 2591 2387 2611 2490 2611 
L 2490 2752 
L 1600 2752 
L 1600 2611 
L 1645 2611 
C 1824 2611 1920 2572 1984 2352 
C 1997 2320 2016 2275 2016 2236 
L 2016 2223 
C 2010 2158 1984 2100 1965 2042 
L 1843 1687 
C 1690 1247 1536 795 1408 349 
L 1402 349 
C 1389 420 1357 491 1338 562 
L 1216 931 
C 1094 1299 973 1661 851 2029 
L 762 2313 
C 742 2359 723 2410 723 2456 
L 723 2475 
C 742 2591 896 2611 992 2611 
L 992 2752 
L 90 2752 
z
" id="SFRM3583-77" transform="scale(0.015625)"/>
      <path d="M 762 2752 
C 659 2752 595 2636 595 2553 
C 595 2456 672 2341 794 2341 
C 922 2341 1005 2450 1005 2546 
C 1005 2630 928 2752 800 2752 
C 787 2758 774 2752 762 2752 
z
M 762 410 
C 659 410 595 295 595 211 
C 595 115 672 0 794 0 
C 922 0 1005 109 1005 205 
C 1005 295 928 416 800 416 
C 787 416 774 410 762 410 
z
" id="SFRM3583-3a" transform="scale(0.015625)"/>
      <path d="M 2400 4198 
C 2182 3987 2061 3865 1862 3865 
C 1722 3865 1626 3936 1491 4032 
C 1363 4121 1261 4198 1120 4198 
C 890 4198 730 4012 461 3718 
L 531 3648 
C 749 3859 870 3980 1069 3980 
C 1210 3980 1306 3910 1440 3814 
C 1568 3724 1670 3648 1811 3648 
C 2042 3648 2202 3833 2470 4128 
L 2400 4198 
z
" id="CMR17-7e" transform="scale(0.015625)"/>
     </defs>
     <use transform="scale(0.996264)" xlink:href="#SFRM3583-4c"/>
     <use transform="translate(55.709683 0)scale(0.996264)" xlink:href="#SFRM3583-6f"/>
     <use transform="translate(97.808161 0)scale(0.996264)" xlink:href="#SFRM3583-77"/>
     <use transform="translate(159.74676 0)scale(0.996264)" xlink:href="#SFRM3583-65"/>
     <use transform="translate(199.365158 0)scale(0.996264)" xlink:href="#SFRM3583-72"/>
     <use transform="translate(263.721798 0)scale(0.996264)" xlink:href="#SFRM3583-42"/>
     <use transform="translate(326.871522 0)scale(0.996264)" xlink:href="#SFRM3583-6f"/>
     <use transform="translate(371.449989 0)scale(0.996264)" xlink:href="#SFRM3583-75"/>
     <use transform="translate(420.988417 0)scale(0.996264)" xlink:href="#SFRM3583-6e"/>
     <use transform="translate(470.526845 0)scale(0.996264)" xlink:href="#SFRM3583-64"/>
     <use transform="translate(520.065273 0)scale(0.996264)" xlink:href="#SFRM3583-3a"/>
     <use transform="translate(587.987734 0.006461)scale(0.996264)" xlink:href="#CMR17-7e"/>
     <use transform="translate(584.421913 0)scale(0.996264)" xlink:href="#CMMI12-63"/>
     <use transform="translate(626.405146 0)scale(0.996264)" xlink:href="#CMR17-28"/>
     <use transform="translate(661.685914 0)scale(0.996264)" xlink:href="#CMMI12-6d"/>
     <use transform="translate(747.013139 0)scale(0.996264)" xlink:href="#CMR17-29"/>
     <use transform="translate(809.967915 0)scale(0.996264)" xlink:href="#CMR17-3d"/>
     <use transform="translate(909.356712 0)scale(0.996264)" xlink:href="#CMR17-28"/>
     <use transform="translate(944.63748 0)scale(0.996264)" xlink:href="#CMR17-31"/>
     <use transform="translate(1012.467164 0)scale(0.996264)" xlink:href="#CMSY10-0"/>
     <use transform="translate(1107.665985 0)scale(0.996264)" xlink:href="#SFRM3583-de"/>
     <use transform="translate(1109.879866 2.767393)scale(0.996264)" xlink:href="#SFRM3583-de"/>
     <use transform="translate(1112.093748 0)scale(0.996264)" xlink:href="#SFRM3583-de"/>
     <use transform="translate(1167.803431 -14.943915)scale(0.697382)" xlink:href="#CMMI12-52"/>
     <use transform="translate(1220.850993 0)scale(0.996264)" xlink:href="#CMR17-29"/>
     <use transform="translate(1261.363834 0.006461)scale(0.996264)" xlink:href="#CMR17-7e"/>
     <use transform="translate(1256.131761 0)scale(0.996264)" xlink:href="#CMMI12-14"/>
     <use transform="translate(1312.286385 0)scale(0.996264)" xlink:href="#CMMI12-6d"/>
    </g>
   </g>
   <g id="text_7">
    <!-- $\overline{c}(m)= (m-1+h)\tilde{\kappa}$ -->
    <g transform="translate(153.5328 224.866276)scale(0.22 -0.22)">
     <defs>
      <path d="M 2413 1472 
L 4109 1472 
C 4198 1472 4307 1472 4307 1580 
C 4307 1696 4205 1696 4109 1696 
L 2413 1696 
L 2413 3385 
C 2413 3475 2413 3584 2304 3584 
C 2189 3584 2189 3481 2189 3385 
L 2189 1696 
L 493 1696 
C 403 1696 294 1696 294 1587 
C 294 1472 397 1472 493 1472 
L 2189 1472 
L 2189 -194 
C 2189 -282 2189 -391 2298 -391 
C 2413 -391 2413 -289 2413 -194 
L 2413 1472 
z
" id="CMR17-2b" transform="scale(0.015625)"/>
      <path d="M 1798 4255 
C 1805 4281 1818 4319 1818 4351 
C 1818 4416 1754 4416 1741 4416 
C 1734 4416 1421 4390 1389 4383 
C 1280 4377 1184 4364 1069 4358 
C 909 4345 864 4339 864 4223 
C 864 4159 915 4159 1005 4159 
C 1318 4159 1325 4103 1325 4040 
C 1325 4002 1312 3951 1306 3932 
L 378 249 
C 352 153 352 140 352 102 
C 352 -39 461 -64 525 -64 
C 634 -64 717 19 749 89 
L 1037 1245 
C 1069 1385 1107 1519 1139 1660 
C 1210 1928 1210 1934 1331 2119 
C 1453 2305 1741 2687 2234 2687 
C 2490 2687 2579 2496 2579 2241 
C 2579 1883 2330 1187 2189 804 
C 2131 651 2099 568 2099 453 
C 2099 166 2298 -64 2605 -64 
C 3200 -64 3424 874 3424 913 
C 3424 945 3398 970 3360 970 
C 3302 970 3296 951 3264 842 
C 3117 332 2880 64 2624 64 
C 2560 64 2458 70 2458 274 
C 2458 440 2534 645 2560 715 
C 2675 1021 2963 1775 2963 2145 
C 2963 2528 2739 2816 2253 2816 
C 1888 2816 1568 2643 1306 2311 
L 1798 4255 
z
" id="CMMI12-68" transform="scale(0.015625)"/>
     </defs>
     <use transform="scale(0.996264)" xlink:href="#CMMI12-63"/>
     <use transform="translate(41.983234 0)scale(0.996264)" xlink:href="#CMR17-28"/>
     <use transform="translate(77.264001 0)scale(0.996264)" xlink:href="#CMMI12-6d"/>
     <use transform="translate(162.591226 0)scale(0.996264)" xlink:href="#CMR17-29"/>
     <use transform="translate(225.546002 0)scale(0.996264)" xlink:href="#CMR17-3d"/>
     <use transform="translate(324.9348 0)scale(0.996264)" xlink:href="#CMR17-28"/>
     <use transform="translate(360.215567 0)scale(0.996264)" xlink:href="#CMMI12-6d"/>
     <use transform="translate(467.681999 0)scale(0.996264)" xlink:href="#CMSY10-0"/>
     <use transform="translate(567.308673 0)scale(0.996264)" xlink:href="#CMR17-31"/>
     <use transform="translate(635.138358 0)scale(0.996264)" xlink:href="#CMR17-2b"/>
     <use transform="translate(728.992353 0)scale(0.996264)" xlink:href="#CMMI12-68"/>
     <use transform="translate(785.146977 0)scale(0.996264)" xlink:href="#CMR17-29"/>
     <use transform="translate(825.659818 0.006461)scale(0.996264)" xlink:href="#CMR17-7e"/>
     <use transform="translate(820.427745 0)scale(0.996264)" xlink:href="#CMMI12-14"/>
     <path d="M 0 54.849612 
L 41.983234 54.849612 
L 41.983234 58.834561 
L 0 58.834561 
L 0 54.849612 
z
"/>
    </g>
   </g>
  </g>
 </g>
 <defs>
  <clipPath id="pc79e65b71d">
   <rect height="443.52" width="669.6" x="108" y="69.12"/>
  </clipPath>
 </defs>
</svg>
