<?xml version="1.0" encoding="utf-8" standalone="no"?>
<!DOCTYPE svg PUBLIC "-//W3C//DTD SVG 1.1//EN"
  "http://www.w3.org/Graphics/SVG/1.1/DTD/svg11.dtd">
<svg height="576pt" version="1.1" viewBox="0 0 864 576" width="864pt" xmlns="http://www.w3.org/2000/svg" xmlns:xlink="http://www.w3.org/1999/xlink">
 <metadata>
  <rdf:RDF xmlns:cc="http://creativecommons.org/ns#" xmlns:dc="http://purl.org/dc/elements/1.1/" xmlns:rdf="http://www.w3.org/1999/02/22-rdf-syntax-ns#">
   <cc:Work>
    <dc:type rdf:resource="http://purl.org/dc/dcmitype/StillImage"/>
    <dc:date>2021-11-09T13:49:56.324707</dc:date>
    <dc:format>image/svg+xml</dc:format>
    <dc:creator>
     <cc:Agent>
      <dc:title>Matplotlib v3.4.2, https://matplotlib.org/</dc:title>
     </cc:Agent>
    </dc:creator>
   </cc:Work>
  </rdf:RDF>
 </metadata>
 <defs>
  <style type="text/css">*{stroke-linecap:butt;stroke-linejoin:round;}</style>
 </defs>
 <g id="figure_1">
  <g id="patch_1">
   <path d="M 0 576 
L 864 576 
L 864 0 
L 0 0 
z
" style="fill:#ffffff;"/>
  </g>
  <g id="axes_1">
   <g id="patch_2">
    <path d="M 108 512.64 
L 777.6 512.64 
L 777.6 69.12 
L 108 69.12 
z
" style="fill:#ffffff;"/>
   </g>
   <g id="matplotlib.axis_1">
    <g id="xtick_1">
     <g id="line2d_1">
      <defs>
       <path d="M 0 0 
L 0 3.5 
" id="m3cbf8ebea8" style="stroke:#000000;stroke-width:0.8;"/>
      </defs>
      <g>
       <use style="stroke:#000000;stroke-width:0.8;" x="108" xlink:href="#m3cbf8ebea8" y="512.64"/>
      </g>
     </g>
     <g id="line2d_2">
      <defs>
       <path d="M 0 0 
L 0 -3.5 
" id="m517578c673" style="stroke:#000000;stroke-width:0.8;"/>
      </defs>
      <g>
       <use style="stroke:#000000;stroke-width:0.8;" x="108" xlink:href="#m517578c673" y="69.12"/>
      </g>
     </g>
    </g>
    <g id="xtick_2">
     <g id="line2d_3">
      <g>
       <use style="stroke:#000000;stroke-width:0.8;" x="184.090909" xlink:href="#m3cbf8ebea8" y="512.64"/>
      </g>
     </g>
     <g id="line2d_4">
      <g>
       <use style="stroke:#000000;stroke-width:0.8;" x="184.090909" xlink:href="#m517578c673" y="69.12"/>
      </g>
     </g>
    </g>
    <g id="xtick_3">
     <g id="line2d_5">
      <g>
       <use style="stroke:#000000;stroke-width:0.8;" x="260.181818" xlink:href="#m3cbf8ebea8" y="512.64"/>
      </g>
     </g>
     <g id="line2d_6">
      <g>
       <use style="stroke:#000000;stroke-width:0.8;" x="260.181818" xlink:href="#m517578c673" y="69.12"/>
      </g>
     </g>
    </g>
    <g id="xtick_4">
     <g id="line2d_7">
      <g>
       <use style="stroke:#000000;stroke-width:0.8;" x="336.272727" xlink:href="#m3cbf8ebea8" y="512.64"/>
      </g>
     </g>
     <g id="line2d_8">
      <g>
       <use style="stroke:#000000;stroke-width:0.8;" x="336.272727" xlink:href="#m517578c673" y="69.12"/>
      </g>
     </g>
    </g>
    <g id="xtick_5">
     <g id="line2d_9">
      <g>
       <use style="stroke:#000000;stroke-width:0.8;" x="412.363636" xlink:href="#m3cbf8ebea8" y="512.64"/>
      </g>
     </g>
     <g id="line2d_10">
      <g>
       <use style="stroke:#000000;stroke-width:0.8;" x="412.363636" xlink:href="#m517578c673" y="69.12"/>
      </g>
     </g>
    </g>
    <g id="xtick_6">
     <g id="line2d_11">
      <g>
       <use style="stroke:#000000;stroke-width:0.8;" x="488.454545" xlink:href="#m3cbf8ebea8" y="512.64"/>
      </g>
     </g>
     <g id="line2d_12">
      <g>
       <use style="stroke:#000000;stroke-width:0.8;" x="488.454545" xlink:href="#m517578c673" y="69.12"/>
      </g>
     </g>
    </g>
    <g id="xtick_7">
     <g id="line2d_13">
      <g>
       <use style="stroke:#000000;stroke-width:0.8;" x="564.545455" xlink:href="#m3cbf8ebea8" y="512.64"/>
      </g>
     </g>
     <g id="line2d_14">
      <g>
       <use style="stroke:#000000;stroke-width:0.8;" x="564.545455" xlink:href="#m517578c673" y="69.12"/>
      </g>
     </g>
    </g>
    <g id="xtick_8">
     <g id="line2d_15">
      <g>
       <use style="stroke:#000000;stroke-width:0.8;" x="640.636364" xlink:href="#m3cbf8ebea8" y="512.64"/>
      </g>
     </g>
     <g id="line2d_16">
      <g>
       <use style="stroke:#000000;stroke-width:0.8;" x="640.636364" xlink:href="#m517578c673" y="69.12"/>
      </g>
     </g>
    </g>
    <g id="xtick_9">
     <g id="line2d_17">
      <g>
       <use style="stroke:#000000;stroke-width:0.8;" x="716.727273" xlink:href="#m3cbf8ebea8" y="512.64"/>
      </g>
     </g>
     <g id="line2d_18">
      <g>
       <use style="stroke:#000000;stroke-width:0.8;" x="716.727273" xlink:href="#m517578c673" y="69.12"/>
      </g>
     </g>
    </g>
   </g>
   <g id="matplotlib.axis_2">
    <g id="ytick_1">
     <g id="line2d_19">
      <defs>
       <path d="M 0 0 
L -3.5 0 
" id="mce60d95f27" style="stroke:#000000;stroke-width:0.8;"/>
      </defs>
      <g>
       <use style="stroke:#000000;stroke-width:0.8;" x="108" xlink:href="#mce60d95f27" y="512.64"/>
      </g>
     </g>
     <g id="line2d_20">
      <defs>
       <path d="M 0 0 
L 3.5 0 
" id="mcc1d005910" style="stroke:#000000;stroke-width:0.8;"/>
      </defs>
      <g>
       <use style="stroke:#000000;stroke-width:0.8;" x="777.6" xlink:href="#mcc1d005910" y="512.64"/>
      </g>
     </g>
     <g id="text_1">
      <!-- $\mathdefault{0.98}$ -->
      <g transform="translate(71.44965 518.81469)scale(0.18 -0.18)">
       <defs>
        <path d="M 2688 2038 
C 2688 2430 2682 3099 2413 3613 
C 2176 4063 1798 4224 1466 4224 
C 1158 4224 768 4082 525 3620 
C 269 3137 243 2539 243 2038 
C 243 1671 250 1112 448 623 
C 723 -39 1216 -128 1466 -128 
C 1760 -128 2208 -7 2470 604 
C 2662 1048 2688 1568 2688 2038 
z
M 1466 -26 
C 1056 -26 813 328 723 816 
C 653 1196 653 1749 653 2109 
C 653 2604 653 3015 736 3407 
C 858 3954 1216 4121 1466 4121 
C 1728 4121 2067 3947 2189 3420 
C 2272 3054 2278 2623 2278 2109 
C 2278 1691 2278 1176 2202 797 
C 2067 96 1690 -26 1466 -26 
z
" id="CMR17-30" transform="scale(0.015625)"/>
        <path d="M 1178 307 
C 1178 492 1024 620 870 620 
C 685 620 557 467 557 313 
C 557 128 710 0 864 0 
C 1050 0 1178 153 1178 307 
z
" id="CMMI12-3a" transform="scale(0.015625)"/>
        <path d="M 2253 1871 
C 2253 448 1670 25 1190 25 
C 1043 25 685 43 538 281 
C 704 256 826 345 826 505 
C 826 678 685 736 595 736 
C 538 736 365 710 365 492 
C 365 68 742 -128 1203 -128 
C 1939 -128 2688 665 2688 2090 
C 2688 3857 1971 4224 1485 4224 
C 851 4224 243 3664 243 2800 
C 243 2000 762 1408 1414 1408 
C 1952 1408 2189 1910 2253 2122 
L 2253 1871 
z
M 1427 1510 
C 1254 1510 1011 1542 813 1929 
C 678 2181 678 2477 678 2793 
C 678 3174 678 3438 858 3722 
C 947 3857 1114 4076 1485 4076 
C 2240 4076 2240 2909 2240 2651 
C 2240 2193 2035 1510 1427 1510 
z
" id="CMR17-39" transform="scale(0.015625)"/>
        <path d="M 1741 2289 
C 2144 2494 2554 2803 2554 3298 
C 2554 3884 1990 4224 1472 4224 
C 890 4224 378 3800 378 3215 
C 378 3054 416 2777 666 2533 
C 730 2469 998 2276 1171 2154 
C 883 2006 211 1652 211 945 
C 211 282 838 -128 1459 -128 
C 2144 -128 2720 366 2720 1022 
C 2720 1607 2330 1877 2074 2051 
L 1741 2289 
z
M 902 2855 
C 851 2887 595 3086 595 3388 
C 595 3781 998 4076 1459 4076 
C 1965 4076 2336 3716 2336 3298 
C 2336 2700 1670 2359 1638 2359 
C 1632 2359 1626 2359 1574 2398 
L 902 2855 
z
M 2080 1536 
C 2176 1466 2483 1253 2483 861 
C 2483 385 2010 25 1472 25 
C 890 25 448 443 448 951 
C 448 1459 838 1884 1280 2083 
L 2080 1536 
z
" id="CMR17-38" transform="scale(0.015625)"/>
       </defs>
       <use transform="scale(0.996264)" xlink:href="#CMR17-30"/>
       <use transform="translate(45.690477 0)scale(0.996264)" xlink:href="#CMMI12-3a"/>
       <use transform="translate(72.787654 0)scale(0.996264)" xlink:href="#CMR17-39"/>
       <use transform="translate(118.478131 0)scale(0.996264)" xlink:href="#CMR17-38"/>
      </g>
     </g>
    </g>
    <g id="ytick_2">
     <g id="line2d_21">
      <g>
       <use style="stroke:#000000;stroke-width:0.8;" x="108" xlink:href="#mce60d95f27" y="457.2"/>
      </g>
     </g>
     <g id="line2d_22">
      <g>
       <use style="stroke:#000000;stroke-width:0.8;" x="777.6" xlink:href="#mcc1d005910" y="457.2"/>
      </g>
     </g>
     <g id="text_2">
      <!-- $\mathdefault{0.99}$ -->
      <g transform="translate(71.44965 463.37469)scale(0.18 -0.18)">
       <use transform="scale(0.996264)" xlink:href="#CMR17-30"/>
       <use transform="translate(45.690477 0)scale(0.996264)" xlink:href="#CMMI12-3a"/>
       <use transform="translate(72.787654 0)scale(0.996264)" xlink:href="#CMR17-39"/>
       <use transform="translate(118.478131 0)scale(0.996264)" xlink:href="#CMR17-39"/>
      </g>
     </g>
    </g>
    <g id="ytick_3">
     <g id="line2d_23">
      <g>
       <use style="stroke:#000000;stroke-width:0.8;" x="108" xlink:href="#mce60d95f27" y="401.76"/>
      </g>
     </g>
     <g id="line2d_24">
      <g>
       <use style="stroke:#000000;stroke-width:0.8;" x="777.6" xlink:href="#mcc1d005910" y="401.76"/>
      </g>
     </g>
     <g id="text_3">
      <!-- $\mathdefault{1.00}$ -->
      <g transform="translate(71.44965 407.93469)scale(0.18 -0.18)">
       <defs>
        <path d="M 1702 4083 
C 1702 4217 1696 4224 1606 4224 
C 1357 3927 979 3833 621 3820 
C 602 3820 570 3820 563 3808 
C 557 3795 557 3782 557 3648 
C 755 3648 1088 3686 1344 3839 
L 1344 467 
C 1344 243 1331 166 781 166 
L 589 166 
L 589 0 
C 896 6 1216 12 1523 12 
C 1830 12 2150 6 2458 0 
L 2458 166 
L 2266 166 
C 1715 166 1702 236 1702 467 
L 1702 4083 
z
" id="CMR17-31" transform="scale(0.015625)"/>
       </defs>
       <use transform="scale(0.996264)" xlink:href="#CMR17-31"/>
       <use transform="translate(45.690477 0)scale(0.996264)" xlink:href="#CMMI12-3a"/>
       <use transform="translate(72.787654 0)scale(0.996264)" xlink:href="#CMR17-30"/>
       <use transform="translate(118.478131 0)scale(0.996264)" xlink:href="#CMR17-30"/>
      </g>
     </g>
    </g>
    <g id="ytick_4">
     <g id="line2d_25">
      <g>
       <use style="stroke:#000000;stroke-width:0.8;" x="108" xlink:href="#mce60d95f27" y="346.32"/>
      </g>
     </g>
     <g id="line2d_26">
      <g>
       <use style="stroke:#000000;stroke-width:0.8;" x="777.6" xlink:href="#mcc1d005910" y="346.32"/>
      </g>
     </g>
     <g id="text_4">
      <!-- $\mathdefault{1.01}$ -->
      <g transform="translate(71.44965 352.49469)scale(0.18 -0.18)">
       <use transform="scale(0.996264)" xlink:href="#CMR17-31"/>
       <use transform="translate(45.690477 0)scale(0.996264)" xlink:href="#CMMI12-3a"/>
       <use transform="translate(72.787654 0)scale(0.996264)" xlink:href="#CMR17-30"/>
       <use transform="translate(118.478131 0)scale(0.996264)" xlink:href="#CMR17-31"/>
      </g>
     </g>
    </g>
    <g id="ytick_5">
     <g id="line2d_27">
      <g>
       <use style="stroke:#000000;stroke-width:0.8;" x="108" xlink:href="#mce60d95f27" y="290.88"/>
      </g>
     </g>
     <g id="line2d_28">
      <g>
       <use style="stroke:#000000;stroke-width:0.8;" x="777.6" xlink:href="#mcc1d005910" y="290.88"/>
      </g>
     </g>
     <g id="text_5">
      <!-- $\mathdefault{1.02}$ -->
      <g transform="translate(71.44965 297.05469)scale(0.18 -0.18)">
       <defs>
        <path d="M 2669 990 
L 2554 990 
C 2490 537 2438 460 2413 422 
C 2381 371 1920 371 1830 371 
L 602 371 
C 832 620 1280 1073 1824 1596 
C 2214 1966 2669 2400 2669 3033 
C 2669 3788 2067 4224 1395 4224 
C 691 4224 262 3603 262 3027 
C 262 2777 448 2745 525 2745 
C 589 2745 781 2783 781 3007 
C 781 3206 614 3264 525 3264 
C 486 3264 448 3257 422 3244 
C 544 3788 915 4057 1306 4057 
C 1862 4057 2227 3616 2227 3033 
C 2227 2477 1901 1998 1536 1583 
L 262 147 
L 262 0 
L 2515 0 
L 2669 990 
z
" id="CMR17-32" transform="scale(0.015625)"/>
       </defs>
       <use transform="scale(0.996264)" xlink:href="#CMR17-31"/>
       <use transform="translate(45.690477 0)scale(0.996264)" xlink:href="#CMMI12-3a"/>
       <use transform="translate(72.787654 0)scale(0.996264)" xlink:href="#CMR17-30"/>
       <use transform="translate(118.478131 0)scale(0.996264)" xlink:href="#CMR17-32"/>
      </g>
     </g>
    </g>
    <g id="ytick_6">
     <g id="line2d_29">
      <g>
       <use style="stroke:#000000;stroke-width:0.8;" x="108" xlink:href="#mce60d95f27" y="235.44"/>
      </g>
     </g>
     <g id="line2d_30">
      <g>
       <use style="stroke:#000000;stroke-width:0.8;" x="777.6" xlink:href="#mcc1d005910" y="235.44"/>
      </g>
     </g>
     <g id="text_6">
      <!-- $\mathdefault{1.03}$ -->
      <g transform="translate(71.44965 241.61469)scale(0.18 -0.18)">
       <defs>
        <path d="M 1414 2176 
C 1984 2176 2234 1673 2234 1094 
C 2234 322 1824 25 1453 25 
C 1114 25 563 193 390 691 
C 422 678 454 678 486 678 
C 640 678 755 780 755 947 
C 755 1132 614 1216 486 1216 
C 378 1216 211 1164 211 927 
C 211 335 787 -128 1466 -128 
C 2176 -128 2720 432 2720 1087 
C 2720 1718 2208 2176 1600 2246 
C 2086 2347 2554 2776 2554 3353 
C 2554 3856 2048 4224 1472 4224 
C 890 4224 378 3862 378 3347 
C 378 3123 544 3084 627 3084 
C 762 3084 877 3167 877 3334 
C 877 3500 762 3584 627 3584 
C 602 3584 570 3584 544 3571 
C 730 3999 1235 4076 1459 4076 
C 1683 4076 2106 3966 2106 3347 
C 2106 3167 2080 2851 1862 2574 
C 1670 2329 1453 2316 1242 2297 
C 1210 2297 1062 2284 1037 2284 
C 992 2278 966 2272 966 2227 
C 966 2182 973 2176 1101 2176 
L 1414 2176 
z
" id="CMR17-33" transform="scale(0.015625)"/>
       </defs>
       <use transform="scale(0.996264)" xlink:href="#CMR17-31"/>
       <use transform="translate(45.690477 0)scale(0.996264)" xlink:href="#CMMI12-3a"/>
       <use transform="translate(72.787654 0)scale(0.996264)" xlink:href="#CMR17-30"/>
       <use transform="translate(118.478131 0)scale(0.996264)" xlink:href="#CMR17-33"/>
      </g>
     </g>
    </g>
    <g id="ytick_7">
     <g id="line2d_31">
      <g>
       <use style="stroke:#000000;stroke-width:0.8;" x="108" xlink:href="#mce60d95f27" y="180"/>
      </g>
     </g>
     <g id="line2d_32">
      <g>
       <use style="stroke:#000000;stroke-width:0.8;" x="777.6" xlink:href="#mcc1d005910" y="180"/>
      </g>
     </g>
     <g id="text_7">
      <!-- $\mathdefault{1.04}$ -->
      <g transform="translate(71.44965 186.17469)scale(0.18 -0.18)">
       <defs>
        <path d="M 2150 4147 
C 2150 4281 2144 4288 2029 4288 
L 128 1254 
L 128 1088 
L 1779 1088 
L 1779 460 
C 1779 230 1766 166 1318 166 
L 1197 166 
L 1197 0 
C 1402 12 1747 12 1965 12 
C 2182 12 2528 12 2733 0 
L 2733 166 
L 2611 166 
C 2163 166 2150 230 2150 460 
L 2150 1088 
L 2803 1088 
L 2803 1254 
L 2150 1254 
L 2150 4147 
z
M 1798 3723 
L 1798 1254 
L 256 1254 
L 1798 3723 
z
" id="CMR17-34" transform="scale(0.015625)"/>
       </defs>
       <use transform="scale(0.996264)" xlink:href="#CMR17-31"/>
       <use transform="translate(45.690477 0)scale(0.996264)" xlink:href="#CMMI12-3a"/>
       <use transform="translate(72.787654 0)scale(0.996264)" xlink:href="#CMR17-30"/>
       <use transform="translate(118.478131 0)scale(0.996264)" xlink:href="#CMR17-34"/>
      </g>
     </g>
    </g>
    <g id="ytick_8">
     <g id="line2d_33">
      <g>
       <use style="stroke:#000000;stroke-width:0.8;" x="108" xlink:href="#mce60d95f27" y="124.56"/>
      </g>
     </g>
     <g id="line2d_34">
      <g>
       <use style="stroke:#000000;stroke-width:0.8;" x="777.6" xlink:href="#mcc1d005910" y="124.56"/>
      </g>
     </g>
     <g id="text_8">
      <!-- $\mathdefault{1.05}$ -->
      <g transform="translate(71.44965 130.73469)scale(0.18 -0.18)">
       <defs>
        <path d="M 730 3750 
C 794 3724 1056 3641 1325 3641 
C 1920 3641 2246 3961 2432 4140 
C 2432 4191 2432 4224 2394 4224 
C 2387 4224 2374 4224 2323 4198 
C 2099 4102 1837 4032 1517 4032 
C 1325 4032 1037 4055 723 4191 
C 653 4224 640 4224 634 4224 
C 602 4224 595 4217 595 4090 
L 595 2231 
C 595 2113 595 2080 659 2080 
C 691 2080 704 2093 736 2139 
C 941 2435 1222 2560 1542 2560 
C 1766 2560 2246 2415 2246 1293 
C 2246 1087 2246 716 2054 422 
C 1894 159 1645 25 1370 25 
C 947 25 518 319 403 812 
C 429 806 480 793 506 793 
C 589 793 749 838 749 1036 
C 749 1209 627 1280 506 1280 
C 358 1280 262 1190 262 1011 
C 262 454 704 -128 1382 -128 
C 2042 -128 2669 441 2669 1267 
C 2669 2054 2170 2662 1549 2662 
C 1222 2662 947 2540 730 2304 
L 730 3750 
z
" id="CMR17-35" transform="scale(0.015625)"/>
       </defs>
       <use transform="scale(0.996264)" xlink:href="#CMR17-31"/>
       <use transform="translate(45.690477 0)scale(0.996264)" xlink:href="#CMMI12-3a"/>
       <use transform="translate(72.787654 0)scale(0.996264)" xlink:href="#CMR17-30"/>
       <use transform="translate(118.478131 0)scale(0.996264)" xlink:href="#CMR17-35"/>
      </g>
     </g>
    </g>
    <g id="ytick_9">
     <g id="line2d_35">
      <g>
       <use style="stroke:#000000;stroke-width:0.8;" x="108" xlink:href="#mce60d95f27" y="69.12"/>
      </g>
     </g>
     <g id="line2d_36">
      <g>
       <use style="stroke:#000000;stroke-width:0.8;" x="777.6" xlink:href="#mcc1d005910" y="69.12"/>
      </g>
     </g>
     <g id="text_9">
      <!-- $\mathdefault{1.06}$ -->
      <g transform="translate(71.44965 75.29469)scale(0.18 -0.18)">
       <defs>
        <path d="M 678 2198 
C 678 3712 1395 4076 1811 4076 
C 1946 4076 2272 4049 2400 3782 
C 2298 3782 2106 3782 2106 3558 
C 2106 3385 2246 3328 2336 3328 
C 2394 3328 2566 3353 2566 3571 
C 2566 3987 2246 4224 1805 4224 
C 1043 4224 243 3411 243 2011 
C 243 257 966 -128 1478 -128 
C 2099 -128 2688 431 2688 1295 
C 2688 2101 2170 2688 1517 2688 
C 1126 2688 838 2430 678 1979 
L 678 2198 
z
M 1478 25 
C 691 25 691 1212 691 1450 
C 691 1914 909 2585 1504 2585 
C 1613 2585 1926 2585 2138 2140 
C 2253 1889 2253 1624 2253 1302 
C 2253 954 2253 696 2118 438 
C 1978 173 1773 25 1478 25 
z
" id="CMR17-36" transform="scale(0.015625)"/>
       </defs>
       <use transform="scale(0.996264)" xlink:href="#CMR17-31"/>
       <use transform="translate(45.690477 0)scale(0.996264)" xlink:href="#CMMI12-3a"/>
       <use transform="translate(72.787654 0)scale(0.996264)" xlink:href="#CMR17-30"/>
       <use transform="translate(118.478131 0)scale(0.996264)" xlink:href="#CMR17-36"/>
      </g>
     </g>
    </g>
    <g id="text_10">
     <!-- Growth Factors -->
     <g transform="translate(63.18704 360.140894)rotate(-90)scale(0.22 -0.22)">
      <defs>
       <path d="M 3539 514 
L 3546 514 
C 3578 357 3718 19 3808 19 
L 3814 19 
C 3821 25 3827 38 3827 57 
C 3827 76 3821 109 3821 122 
L 3821 1214 
C 3821 1253 3814 1305 3814 1351 
C 3814 1574 3968 1587 4218 1587 
L 4218 1728 
L 2790 1728 
L 2790 1587 
C 2867 1587 2957 1593 3053 1593 
C 3328 1593 3507 1574 3507 1292 
L 3507 907 
C 3507 560 3347 76 2458 76 
C 1363 76 678 1050 678 2246 
C 678 2854 845 3481 1293 3897 
C 1574 4160 1984 4339 2374 4339 
C 3104 4339 3565 3680 3699 2988 
L 3718 2854 
C 3731 2816 3718 2752 3776 2752 
C 3814 2752 3821 2777 3821 2809 
L 3821 4422 
C 3821 4384 3821 4409 3802 4416 
L 3795 4416 
C 3744 4416 3526 3826 3501 3726 
C 3187 4140 2906 4480 2298 4480 
C 1120 4480 320 3353 320 2220 
C 320 1103 1075 -64 2330 -64 
C 2752 -64 3398 83 3539 514 
z
" id="SFRM3583-47" transform="scale(0.015625)"/>
       <path d="M 288 2744 
L 288 2602 
L 352 2602 
C 557 2602 666 2557 666 2273 
L 666 360 
C 666 153 512 140 288 140 
L 288 0 
L 1389 0 
L 1389 140 
L 1261 140 
C 1075 140 922 160 922 405 
L 922 1349 
C 922 1898 1037 2738 1658 2738 
C 1728 2738 1798 2719 1862 2693 
C 1786 2660 1722 2609 1722 2518 
C 1722 2428 1792 2337 1901 2337 
C 1997 2337 2074 2421 2074 2518 
C 2074 2732 1837 2816 1664 2816 
C 1274 2816 979 2434 922 2079 
L 915 2816 
L 288 2744 
z
" id="SFRM3583-72" transform="scale(0.015625)"/>
       <path d="M 1350 2816 
C 614 2725 237 2032 237 1359 
C 237 673 685 -64 1440 -64 
L 1504 -64 
C 2240 26 2624 712 2624 1366 
C 2624 2021 2182 2816 1440 2816 
C 1408 2822 1382 2816 1350 2816 
z
M 563 1256 
L 563 1359 
C 563 1845 621 2388 1114 2660 
C 1197 2699 1293 2731 1389 2738 
L 1434 2738 
C 2054 2738 2298 2006 2298 1482 
C 2298 971 2246 240 1606 46 
C 1549 33 1491 20 1434 20 
C 960 20 653 499 595 958 
C 576 1055 576 1159 563 1256 
z
" id="SFRM3583-6f" transform="scale(0.015625)"/>
       <path d="M 90 2752 
L 90 2611 
L 141 2611 
C 397 2611 429 2494 563 2081 
L 1216 91 
C 1235 39 1248 -64 1318 -64 
L 1325 -64 
C 1382 -52 1402 65 1421 116 
L 1792 1247 
C 1850 1428 1907 1609 1971 1790 
C 2003 1893 2048 1997 2067 2100 
L 2074 2100 
C 2093 1997 2138 1893 2170 1790 
C 2234 1609 2291 1428 2349 1247 
L 2720 116 
C 2739 65 2758 -52 2816 -64 
L 2822 -64 
C 2893 -64 2906 39 2925 91 
L 3098 614 
C 3264 1124 3430 1629 3597 2139 
C 3661 2346 3776 2611 4051 2611 
L 4051 2752 
L 3296 2752 
L 3296 2611 
C 3456 2611 3552 2462 3552 2346 
C 3552 2249 3514 2152 3482 2061 
C 3290 1486 3104 905 2912 330 
C 2835 511 2784 704 2726 892 
C 2579 1338 2426 1790 2278 2242 
C 2259 2307 2221 2385 2221 2456 
C 2221 2591 2387 2611 2490 2611 
L 2490 2752 
L 1600 2752 
L 1600 2611 
L 1645 2611 
C 1824 2611 1920 2572 1984 2352 
C 1997 2320 2016 2275 2016 2236 
L 2016 2223 
C 2010 2158 1984 2100 1965 2042 
L 1843 1687 
C 1690 1247 1536 795 1408 349 
L 1402 349 
C 1389 420 1357 491 1338 562 
L 1216 931 
C 1094 1299 973 1661 851 2029 
L 762 2313 
C 742 2359 723 2410 723 2456 
L 723 2475 
C 742 2591 896 2611 992 2611 
L 992 2752 
L 90 2752 
z
" id="SFRM3583-77" transform="scale(0.015625)"/>
       <path d="M 845 3968 
C 845 3593 762 2687 109 2687 
L 109 2611 
L 666 2611 
L 666 1118 
C 666 1028 659 924 659 827 
C 659 427 787 -64 1318 -64 
C 1811 -64 1907 485 1907 885 
L 1907 1137 
L 1824 1137 
C 1824 1040 1830 944 1830 840 
C 1830 549 1773 20 1376 20 
C 1005 20 922 478 922 827 
C 922 937 928 1040 928 1150 
L 928 2611 
L 1811 2611 
L 1811 2752 
L 928 2752 
L 928 3968 
L 845 3968 
z
" id="SFRM3583-74" transform="scale(0.015625)"/>
       <path d="M 301 4408 
L 301 4266 
L 378 4266 
C 602 4266 678 4169 678 3950 
L 678 373 
C 678 179 595 140 301 140 
L 301 0 
L 1318 0 
L 1318 140 
L 1229 140 
C 1082 140 941 160 941 360 
L 941 1774 
C 979 2213 1203 2736 1709 2736 
C 2112 2736 2266 2413 2266 1948 
L 2266 360 
C 2266 153 2112 140 1888 140 
L 1888 0 
L 2906 0 
L 2906 140 
L 2803 140 
C 2656 140 2528 160 2528 386 
L 2528 1877 
C 2528 2310 2445 2814 1760 2814 
C 1427 2814 1178 2626 1030 2355 
C 992 2291 954 2213 941 2142 
L 934 4480 
L 301 4408 
z
" id="SFRM3583-68" transform="scale(0.015625)"/>
       <path d="M 467 4352 
L 467 4211 
L 576 4211 
C 742 4211 877 4192 877 3942 
L 877 407 
C 877 159 768 140 467 140 
L 467 0 
L 1702 0 
L 1702 140 
L 1555 140 
C 1331 140 1190 159 1190 401 
L 1190 2099 
L 1779 2099 
C 1984 2099 2221 2086 2336 1908 
C 2419 1787 2426 1615 2426 1463 
L 2426 1355 
L 2509 1355 
L 2509 2988 
L 2426 2988 
L 2426 2880 
C 2426 2400 2285 2240 1645 2240 
L 1190 2240 
L 1190 4032 
C 1190 4147 1242 4211 1363 4211 
L 2202 4211 
C 2630 4211 3117 4204 3302 3641 
C 3379 3424 3392 3187 3418 2963 
L 3501 2963 
L 3366 4352 
L 467 4352 
z
" id="SFRM3583-46" transform="scale(0.015625)"/>
       <path d="M 576 2058 
C 659 2401 883 2738 1274 2738 
C 1619 2738 1869 2408 1920 2090 
C 1933 2006 1933 1915 1933 1831 
L 1933 1579 
C 1318 1579 474 1436 320 659 
C 314 620 314 575 314 536 
C 314 102 800 -64 1133 -64 
C 1446 -64 1856 141 1939 497 
L 1946 497 
C 1946 225 2125 -45 2394 -45 
C 2746 -45 2829 335 2829 614 
L 2829 905 
L 2746 905 
L 2746 575 
C 2746 368 2701 70 2470 70 
C 2208 70 2195 413 2195 588 
L 2195 1792 
C 2195 1954 2189 2123 2125 2278 
C 1990 2595 1638 2816 1293 2816 
C 800 2816 480 2375 480 1896 
C 480 1773 570 1702 672 1702 
C 774 1702 858 1786 858 1890 
C 858 1987 794 2077 672 2077 
C 640 2077 608 2071 576 2058 
z
M 1933 1507 
L 1933 873 
C 1933 445 1670 44 1229 12 
L 1190 12 
C 896 12 627 245 627 562 
C 627 1236 1363 1507 1933 1507 
z
" id="SFRM3583-61" transform="scale(0.015625)"/>
       <path d="M 2221 2078 
C 2189 2084 2157 2091 2125 2091 
C 2022 2091 1946 2000 1946 1903 
C 1946 1806 2022 1709 2131 1709 
C 2221 1709 2310 1773 2323 1871 
L 2323 1909 
C 2323 2356 1965 2816 1440 2816 
C 717 2816 269 2058 269 1372 
C 269 693 678 0 1363 -64 
L 1427 -64 
C 1882 -64 2240 227 2368 660 
C 2374 686 2381 712 2381 738 
C 2381 757 2368 764 2355 764 
C 2285 764 2272 641 2246 576 
C 2131 246 1824 20 1498 20 
C 890 20 595 744 595 1275 
C 595 1819 710 2731 1453 2731 
C 1811 2731 2138 2434 2221 2078 
z
" id="SFRM3583-63" transform="scale(0.015625)"/>
       <path d="M 422 357 
C 576 111 781 -64 1126 -64 
C 1549 -64 2067 117 2067 740 
C 2067 1051 1901 1337 1600 1486 
C 1216 1680 538 1590 384 2076 
C 371 2115 365 2160 365 2206 
C 365 2588 749 2751 1094 2751 
C 1466 2751 1786 2537 1837 1927 
C 1843 1894 1837 1810 1882 1810 
C 1920 1810 1926 1842 1926 1881 
L 1926 2757 
C 1926 2783 1926 2816 1901 2816 
C 1869 2816 1766 2634 1734 2537 
C 1562 2721 1376 2816 1120 2816 
C 730 2816 192 2689 192 2112 
C 192 1433 1030 1433 1408 1300 
C 1670 1211 1894 989 1894 704 
L 1894 691 
C 1882 291 1568 69 1139 69 
C 544 69 371 621 294 1078 
C 288 1116 288 1192 237 1192 
C 198 1192 192 1167 192 1135 
L 192 50 
C 192 31 192 6 211 0 
L 218 0 
C 262 0 371 279 422 405 
L 422 357 
z
" id="SFRM3583-73" transform="scale(0.015625)"/>
      </defs>
      <use transform="scale(0.996264)" xlink:href="#SFRM3583-47"/>
      <use transform="translate(69.984157 0)scale(0.996264)" xlink:href="#SFRM3583-72"/>
      <use transform="translate(104.642503 0)scale(0.996264)" xlink:href="#SFRM3583-6f"/>
      <use transform="translate(146.740981 0)scale(0.996264)" xlink:href="#SFRM3583-77"/>
      <use transform="translate(211.159568 0)scale(0.996264)" xlink:href="#SFRM3583-74"/>
      <use transform="translate(245.817914 0)scale(0.996264)" xlink:href="#SFRM3583-68"/>
      <use transform="translate(325.054635 0)scale(0.996264)" xlink:href="#SFRM3583-46"/>
      <use transform="translate(375.804357 0)scale(0.996264)" xlink:href="#SFRM3583-61"/>
      <use transform="translate(420.382823 0)scale(0.996264)" xlink:href="#SFRM3583-63"/>
      <use transform="translate(460.001222 0)scale(0.996264)" xlink:href="#SFRM3583-74"/>
      <use transform="translate(494.659568 0)scale(0.996264)" xlink:href="#SFRM3583-6f"/>
      <use transform="translate(539.238035 0)scale(0.996264)" xlink:href="#SFRM3583-72"/>
      <use transform="translate(573.896381 0)scale(0.996264)" xlink:href="#SFRM3583-73"/>
     </g>
    </g>
   </g>
   <g id="line2d_37">
    <path clip-path="url(#p58cc5f4628)" d="M -1 377.419831 
L 640.636364 377.419831 
" style="fill:none;stroke:#0000ff;stroke-linecap:square;stroke-width:1.5;"/>
   </g>
   <g id="line2d_38">
    <path clip-path="url(#p58cc5f4628)" d="M -1 235.44 
L 640.636364 235.44 
" style="fill:none;stroke:#000000;stroke-linecap:square;stroke-width:1.5;"/>
   </g>
   <g id="line2d_39">
    <path clip-path="url(#p58cc5f4628)" d="M 102.293055 -1 
L 108.382366 12.340792 
L 114.500228 25.136619 
L 120.61809 37.350377 
L 126.735952 49.007093 
L 132.853815 60.130733 
L 138.971677 70.74587 
L 145.089539 80.875471 
L 151.207401 90.541437 
L 157.325263 99.765354 
L 163.443125 108.568619 
L 169.560987 116.970062 
L 175.678849 124.989236 
L 181.796711 132.645267 
L 187.914573 139.954843 
L 194.032435 146.934608 
L 200.150297 153.601458 
L 206.268159 159.969861 
L 212.386021 166.054886 
L 218.503883 171.86983 
L 224.621745 177.428907 
L 230.739607 182.743513 
L 236.857469 187.826994 
L 242.975331 192.688848 
L 249.093193 197.342128 
L 255.211055 201.79475 
L 261.328917 206.058775 
L 270.50571 212.120569 
L 279.682503 217.802171 
L 288.859296 223.13667 
L 298.03609 228.145983 
L 307.212883 232.849761 
L 316.389676 237.27351 
L 325.566469 241.43632 
L 334.743262 245.356197 
L 343.920055 249.048516 
L 353.096848 252.527749 
L 362.273641 255.809007 
L 374.509365 259.89714 
L 386.745089 263.687316 
L 398.980813 267.203331 
L 411.216537 270.467518 
L 423.452261 273.500256 
L 435.687985 276.320392 
L 447.923709 278.945273 
L 460.159434 281.390417 
L 475.454089 284.216003 
L 490.748744 286.807207 
L 506.043399 289.186866 
L 524.396985 291.786949 
L 542.750571 294.13795 
L 561.104157 296.267446 
L 579.457743 298.195303 
L 600.87026 300.217466 
L 622.282778 302.022048 
L 640.636364 303.413619 
L 640.636364 303.413619 
" style="fill:none;stroke:#0000ff;stroke-linecap:square;stroke-width:1.5;"/>
   </g>
   <g id="line2d_40">
    <path clip-path="url(#p58cc5f4628)" d="M 215.883584 -1 
L 221.562814 11.093343 
L 227.680676 23.773044 
L 233.798538 36.111298 
L 242.975331 54.003304 
L 252.152124 71.188175 
L 261.328917 87.703899 
L 270.50571 103.583827 
L 279.682503 118.856844 
L 288.859296 133.556453 
L 298.03609 147.708886 
L 307.212883 161.338602 
L 316.389676 174.472882 
L 325.566469 187.134971 
L 334.743262 199.346594 
L 343.920055 211.128056 
L 353.096848 222.498407 
L 362.273641 233.476705 
L 371.450434 244.08051 
L 380.627227 254.32652 
L 389.80402 264.229368 
L 398.980813 273.804287 
L 408.157606 283.065254 
L 417.334399 292.025887 
L 426.511192 300.69879 
L 435.687985 309.094858 
L 444.864778 317.2248 
L 454.041571 325.101123 
L 463.218365 332.732704 
L 472.395158 340.128715 
L 481.571951 347.299808 
L 490.748744 354.252373 
L 502.984468 363.200412 
L 515.220192 371.793287 
L 527.455916 380.051676 
L 539.69164 387.988576 
L 551.927364 395.621414 
L 564.163088 402.964167 
L 576.398812 410.028624 
L 588.634536 416.828395 
L 600.87026 423.375357 
L 613.105984 429.680639 
L 625.341709 435.754503 
L 637.577433 441.607069 
L 640.636364 443.036704 
L 640.636364 443.036704 
" style="fill:none;stroke:#ff0000;stroke-linecap:square;stroke-width:1.5;"/>
   </g>
   <g id="line2d_41">
    <path clip-path="url(#p58cc5f4628)" d="M 149.601174 -1 
L 154.266332 12.099403 
L 160.384194 28.807243 
L 166.502056 45.023668 
L 172.619918 60.766288 
L 178.73778 76.051454 
L 184.855642 90.895545 
L 190.973504 105.313554 
L 197.091366 119.321512 
L 203.209228 132.932329 
L 209.32709 146.161452 
L 215.444952 159.020922 
L 221.562814 171.524837 
L 227.680676 183.684443 
L 233.798538 195.512822 
L 239.9164 207.02037 
L 249.093193 223.706302 
L 258.269986 239.729501 
L 267.446779 255.125626 
L 276.623572 269.927743 
L 285.800365 284.159543 
L 294.977159 297.854212 
L 304.153952 311.037281 
L 313.330745 323.730864 
L 322.507538 335.959125 
L 331.684331 347.744684 
L 340.861124 359.108185 
L 350.037917 370.068578 
L 359.21471 380.644112 
L 368.391503 390.852137 
L 377.568296 400.708784 
L 386.745089 410.229661 
L 395.921882 419.429426 
L 405.098675 428.321918 
L 414.275468 436.920473 
L 423.452261 445.23665 
L 432.629054 453.281543 
L 441.805847 461.067744 
L 450.98264 468.606286 
L 460.159434 475.903797 
L 469.336227 482.973329 
L 478.51302 489.821909 
L 487.689813 496.458802 
L 499.925537 504.992436 
L 512.161261 513.181271 
L 524.396985 521.043423 
L 536.632709 528.593634 
L 548.868433 535.847358 
L 561.104157 542.81917 
L 573.339881 549.521045 
L 585.575605 555.965507 
L 597.811329 562.164627 
L 610.047053 568.129313 
L 622.282778 573.869721 
L 629.159625 577 
L 629.159625 577 
" style="fill:none;stroke:#008000;stroke-linecap:square;stroke-width:1.5;"/>
   </g>
   <g id="line2d_42">
    <path clip-path="url(#p58cc5f4628)" d="M 363.949454 235.44 
" style="fill:none;stroke:#000000;stroke-linecap:square;stroke-width:1.5;"/>
    <defs>
     <path d="M 0 3 
C 0.795609 3 1.55874 2.683901 2.12132 2.12132 
C 2.683901 1.55874 3 0.795609 3 0 
C 3 -0.795609 2.683901 -1.55874 2.12132 -2.12132 
C 1.55874 -2.683901 0.795609 -3 0 -3 
C -0.795609 -3 -1.55874 -2.683901 -2.12132 -2.12132 
C -2.683901 -1.55874 -3 -0.795609 -3 0 
C -3 0.795609 -2.683901 1.55874 -2.12132 2.12132 
C -1.55874 2.683901 -0.795609 3 0 3 
z
" id="m27e047cc9c" style="stroke:#000000;"/>
    </defs>
    <g clip-path="url(#p58cc5f4628)">
     <use style="stroke:#000000;" x="363.949454" xlink:href="#m27e047cc9c" y="235.44"/>
    </g>
   </g>
   <g id="line2d_43">
    <path clip-path="url(#p58cc5f4628)" d="M 378.565553 401.76 
" style="fill:none;stroke:#000000;stroke-linecap:square;stroke-width:1.5;"/>
    <g clip-path="url(#p58cc5f4628)">
     <use style="stroke:#000000;" x="378.565553" xlink:href="#m27e047cc9c" y="401.76"/>
    </g>
   </g>
   <g id="line2d_44">
    <path clip-path="url(#p58cc5f4628)" d="M 378.565553 512.64 
L 378.565553 69.12 
" style="fill:none;stroke:#1f77b4;stroke-dasharray:1.5,2.475;stroke-dashoffset:0;stroke-width:1.5;"/>
   </g>
   <g id="patch_3">
    <path d="M 108 512.64 
L 108 69.12 
" style="fill:none;stroke:#000000;stroke-linecap:square;stroke-linejoin:miter;stroke-width:0.8;"/>
   </g>
   <g id="patch_4">
    <path d="M 777.6 512.64 
L 777.6 69.12 
" style="fill:none;stroke:#000000;stroke-linecap:square;stroke-linejoin:miter;stroke-width:0.8;"/>
   </g>
   <g id="patch_5">
    <path d="M 108 512.64 
L 777.6 512.64 
" style="fill:none;stroke:#000000;stroke-linecap:square;stroke-linejoin:miter;stroke-width:0.8;"/>
   </g>
   <g id="patch_6">
    <path d="M 108 69.12 
L 777.6 69.12 
" style="fill:none;stroke:#000000;stroke-linecap:square;stroke-linejoin:miter;stroke-width:0.8;"/>
   </g>
   <g id="text_11">
    <!-- $1.00 = \Ex_{t}[\mNrm_{t+1}/\mNrm_{t}]:~ \Trg{m} \rightarrow~~$ -->
    <g transform="translate(124.909504 407.304)scale(0.22 -0.22)">
     <defs>
      <path d="M 4115 2048 
C 4211 2048 4307 2048 4307 2156 
C 4307 2272 4198 2272 4090 2272 
L 512 2272 
C 403 2272 294 2272 294 2156 
C 294 2048 390 2048 486 2048 
L 4115 2048 
z
M 4090 927 
C 4198 927 4307 927 4307 1043 
C 4307 1152 4211 1152 4115 1152 
L 486 1152 
C 390 1152 294 1152 294 1043 
C 294 927 403 927 512 927 
L 4090 927 
z
" id="CMR17-3d" transform="scale(0.015625)"/>
      <path d="M 1658 2176 
C 1818 2176 2125 2176 2349 2039 
C 2656 1838 2682 1488 2682 1449 
C 2688 1358 2688 1274 2797 1274 
C 2906 1274 2906 1365 2906 1482 
L 2906 3228 
C 2906 3331 2906 3434 2797 3434 
C 2688 3434 2682 3337 2682 3286 
C 2643 2457 1990 2412 1658 2406 
L 1658 3761 
C 1658 4191 1779 4191 1933 4191 
L 2240 4191 
C 3104 4191 3533 3748 3571 3305 
C 3578 3254 3584 3157 3686 3157 
C 3795 3157 3795 3260 3795 3369 
L 3795 4204 
C 3795 4403 3782 4416 3584 4416 
L 307 4416 
C 192 4416 90 4416 90 4300 
C 90 4191 211 4191 262 4191 
C 627 4191 653 4140 653 3825 
L 653 593 
C 653 288 634 224 294 224 
C 198 224 90 224 90 115 
C 90 0 192 0 307 0 
L 3699 0 
C 3821 0 3885 0 3904 89 
C 3910 96 4090 1177 4090 1209 
C 4090 1281 4032 1326 3981 1326 
C 3891 1326 3866 1242 3866 1235 
C 3827 1067 3763 794 3296 515 
C 2963 314 2637 224 2285 224 
L 1933 224 
C 1779 224 1658 224 1658 658 
L 1658 2176 
z
M 3571 4191 
L 3571 3883 
C 3462 4005 3341 4108 3206 4191 
L 3571 4191 
z
M 2323 2310 
C 2426 2355 2566 2451 2682 2586 
L 2682 2046 
C 2528 2220 2330 2304 2323 2304 
L 2323 2310 
z
M 877 3838 
C 877 3915 877 4076 826 4191 
L 1504 4191 
C 1434 4044 1434 3832 1434 3774 
L 1434 645 
C 1434 412 1478 282 1504 224 
L 826 224 
C 877 340 877 502 877 580 
L 877 3838 
z
M 3258 224 
L 3258 230 
C 3462 334 3635 470 3763 587 
C 3757 561 3712 275 3706 224 
L 3258 224 
z
" id="MSBM10-45" transform="scale(0.015625)"/>
      <path d="M 1286 2566 
L 1875 2566 
C 1997 2566 2061 2566 2061 2681 
C 2061 2752 2022 2752 1894 2752 
L 1331 2752 
L 1568 3664 
C 1594 3752 1594 3764 1594 3808 
C 1594 3910 1510 3968 1427 3968 
C 1376 3968 1229 3948 1178 3746 
L 928 2752 
L 326 2752 
C 198 2752 141 2752 141 2630 
C 141 2566 186 2566 307 2566 
L 877 2566 
L 454 881 
C 403 657 384 593 384 510 
C 384 210 595 -64 954 -64 
C 1600 -64 1946 868 1946 913 
C 1946 951 1920 970 1882 970 
C 1869 970 1843 970 1830 944 
C 1824 938 1818 932 1773 830 
C 1638 510 1344 64 973 64 
C 781 64 768 223 768 364 
C 768 370 768 491 787 568 
L 1286 2566 
z
" id="CMMI12-74" transform="scale(0.015625)"/>
      <path d="M 1504 -1600 
L 1504 -1376 
L 902 -1376 
L 902 4575 
L 1504 4575 
L 1504 4800 
L 678 4800 
L 678 -1600 
L 1504 -1600 
z
" id="CMR17-5b" transform="scale(0.015625)"/>
      <path d="M 1318 1870 
C 1331 1909 1491 2228 1728 2432 
C 1894 2585 2112 2687 2362 2687 
C 2618 2687 2707 2496 2707 2241 
C 2707 2202 2707 2075 2630 1775 
L 2470 1117 
C 2419 925 2298 453 2285 383 
C 2259 287 2221 121 2221 95 
C 2221 6 2291 -64 2387 -64 
C 2579 -64 2611 83 2669 313 
L 3053 1838 
C 3066 1890 3398 2687 4102 2687 
C 4358 2687 4448 2496 4448 2241 
C 4448 1883 4198 1187 4058 804 
C 4000 651 3968 568 3968 453 
C 3968 166 4166 -64 4474 -64 
C 5069 -64 5293 874 5293 913 
C 5293 945 5267 970 5229 970 
C 5171 970 5165 951 5133 842 
C 4986 332 4749 64 4493 64 
C 4429 64 4326 70 4326 274 
C 4326 440 4403 645 4429 715 
C 4544 1021 4832 1775 4832 2145 
C 4832 2528 4608 2816 4122 2816 
C 3693 2816 3347 2573 3091 2196 
C 3072 2541 2861 2816 2381 2816 
C 1811 2816 1510 2413 1395 2253 
C 1376 2617 1114 2816 832 2816 
C 646 2816 499 2726 378 2483 
C 262 2253 173 1864 173 1838 
C 173 1813 198 1781 243 1781 
C 294 1781 301 1787 339 1934 
C 435 2311 557 2687 813 2687 
C 960 2687 1011 2585 1011 2394 
C 1011 2253 947 2004 902 1807 
L 723 1117 
C 698 996 627 708 595 593 
C 550 427 480 127 480 95 
C 480 6 550 -64 646 -64 
C 723 -64 813 -26 864 70 
C 877 102 934 325 966 453 
L 1107 1028 
L 1318 1870 
z
" id="CMMI12-6d" transform="scale(0.015625)"/>
      <path d="M 2413 1472 
L 4109 1472 
C 4198 1472 4307 1472 4307 1580 
C 4307 1696 4205 1696 4109 1696 
L 2413 1696 
L 2413 3385 
C 2413 3475 2413 3584 2304 3584 
C 2189 3584 2189 3481 2189 3385 
L 2189 1696 
L 493 1696 
C 403 1696 294 1696 294 1587 
C 294 1472 397 1472 493 1472 
L 2189 1472 
L 2189 -194 
C 2189 -282 2189 -391 2298 -391 
C 2413 -391 2413 -289 2413 -194 
L 2413 1472 
z
" id="CMR17-2b" transform="scale(0.015625)"/>
      <path d="M 2746 4563 
C 2746 4569 2784 4665 2784 4678 
C 2784 4755 2720 4800 2669 4800 
C 2637 4800 2579 4800 2528 4659 
L 384 -1364 
C 384 -1370 346 -1466 346 -1479 
C 346 -1556 410 -1600 461 -1600 
C 499 -1600 557 -1594 602 -1460 
L 2746 4563 
z
" id="CMMI12-3d" transform="scale(0.015625)"/>
      <path d="M 915 4800 
L 90 4800 
L 90 4575 
L 691 4575 
L 691 -1376 
L 90 -1376 
L 90 -1600 
L 915 -1600 
L 915 4800 
z
" id="CMR17-5d" transform="scale(0.015625)"/>
      <path d="M 1062 2489 
C 1062 2649 934 2752 800 2752 
C 672 2752 538 2649 538 2489 
C 538 2329 666 2227 800 2227 
C 928 2227 1062 2329 1062 2489 
z
M 1062 262 
C 1062 422 934 524 800 524 
C 672 524 538 422 538 262 
C 538 102 666 0 800 0 
C 928 0 1062 102 1062 262 
z
" id="CMR17-3a" transform="scale(0.015625)"/>
      <path d="M 1466 4416 
L 678 3532 
L 755 3456 
L 1466 4159 
L 2176 3456 
L 2253 3532 
L 1466 4416 
z
" id="CMR17-5e" transform="scale(0.015625)"/>
      <path d="M 5338 1472 
C 4986 1203 4813 940 4762 857 
C 4474 415 4422 12 4422 6 
C 4422 -71 4499 -71 4550 -71 
C 4659 -71 4666 -58 4691 57 
C 4838 684 5216 1222 5939 1516 
C 6016 1542 6035 1555 6035 1600 
C 6035 1644 5997 1664 5984 1670 
C 5702 1779 4928 2099 4685 3174 
C 4666 3251 4659 3270 4550 3270 
C 4499 3270 4422 3270 4422 3193 
C 4422 3180 4480 2777 4749 2348 
C 4877 2156 5062 1932 5338 1728 
L 582 1728 
C 467 1728 352 1728 352 1600 
C 352 1472 467 1472 582 1472 
L 5338 1472 
z
" id="CMSY10-21" transform="scale(0.015625)"/>
     </defs>
     <use transform="scale(0.996264)" xlink:href="#CMR17-31"/>
     <use transform="translate(45.690477 0)scale(0.996264)" xlink:href="#CMMI12-3a"/>
     <use transform="translate(72.787654 0)scale(0.996264)" xlink:href="#CMR17-30"/>
     <use transform="translate(118.478131 0)scale(0.996264)" xlink:href="#CMR17-30"/>
     <use transform="translate(191.842617 0)scale(0.996264)" xlink:href="#CMR17-3d"/>
     <use transform="translate(291.231414 0)scale(0.996264)" xlink:href="#MSBM10-45"/>
     <use transform="translate(357.649233 -14.943915)scale(0.697382)" xlink:href="#CMMI12-74"/>
     <use transform="translate(382.805674 0)scale(0.996264)" xlink:href="#CMR17-5b"/>
     <use transform="translate(407.676733 0)scale(0.996264)" xlink:href="#CMMI12-6d"/>
     <use transform="translate(493.003957 -14.943915)scale(0.697382)" xlink:href="#CMMI12-74"/>
     <use transform="translate(517.662267 -14.943915)scale(0.697382)" xlink:href="#CMR17-2b"/>
     <use transform="translate(567.862398 -14.943915)scale(0.697382)" xlink:href="#CMR17-31"/>
     <use transform="translate(600.343712 0)scale(0.996264)" xlink:href="#CMMI12-3d"/>
     <use transform="translate(649.118631 0)scale(0.996264)" xlink:href="#CMMI12-6d"/>
     <use transform="translate(734.445856 -14.943915)scale(0.697382)" xlink:href="#CMMI12-74"/>
     <use transform="translate(759.602297 0)scale(0.996264)" xlink:href="#CMR17-5d"/>
     <use transform="translate(812.147364 0)scale(0.996264)" xlink:href="#CMR17-3a"/>
     <use transform="translate(914.209106 0.006461)scale(0.996264)" xlink:href="#CMR17-5e"/>
     <use transform="translate(894.390725 0)scale(0.996264)" xlink:href="#CMMI12-6d"/>
     <use transform="translate(1007.391958 0)scale(0.996264)" xlink:href="#CMSY10-21"/>
    </g>
   </g>
   <g id="text_12">
    <!-- $\PermGroFac$ -->
    <g transform="translate(648.245455 240.984)scale(0.22 -0.22)">
     <defs>
      <path d="M 3315 4352 
L 326 4352 
L 326 4185 
C 768 4185 838 4185 838 3897 
L 838 453 
C 838 166 768 166 326 166 
L 326 0 
C 512 12 870 12 1069 12 
C 1331 12 1638 12 1901 0 
L 1901 166 
L 1760 166 
C 1274 166 1261 230 1261 460 
L 1261 3936 
C 1261 4153 1274 4185 1530 4185 
L 2234 4185 
C 3206 4185 3258 3738 3354 2939 
L 3469 2939 
L 3315 4352 
z
" id="CMR17-0" transform="scale(0.015625)"/>
     </defs>
     <use transform="scale(0.996264)" xlink:href="#CMR17-0"/>
    </g>
   </g>
   <g id="text_13">
    <!-- $\Ex_{t}[\cLev_{t+1}/\cLev_{t}]$ -->
    <g transform="translate(648.245455 303.413619)scale(0.22 -0.22)">
     <defs>
      <path d="M 2995 724 
C 2995 801 2925 801 2861 801 
C 2758 801 2752 795 2720 718 
C 2675 596 2502 166 1914 166 
C 1011 166 1011 1141 1011 1430 
C 1011 1808 1018 2649 1856 2649 
C 1901 2649 2278 2636 2278 2604 
C 2278 2598 2272 2591 2259 2585 
C 2240 2566 2157 2469 2157 2309 
C 2157 2039 2374 1930 2534 1930 
C 2669 1930 2912 2014 2912 2315 
C 2912 2841 2176 2880 1830 2880 
C 691 2880 243 2136 243 1398 
C 243 525 851 -64 1792 -64 
C 2797 -64 2995 679 2995 724 
z
" id="CMBX12-63" transform="scale(0.015625)"/>
     </defs>
     <use transform="scale(0.996264)" xlink:href="#MSBM10-45"/>
     <use transform="translate(66.417819 -14.943915)scale(0.697382)" xlink:href="#CMMI12-74"/>
     <use transform="translate(91.57426 0)scale(0.996264)" xlink:href="#CMR17-5b"/>
     <use transform="translate(116.445319 0)scale(0.996264)" xlink:href="#CMBX12-63"/>
     <use transform="translate(166.258519 -14.943915)scale(0.697382)" xlink:href="#CMMI12-74"/>
     <use transform="translate(190.916829 -14.943915)scale(0.697382)" xlink:href="#CMR17-2b"/>
     <use transform="translate(241.11696 -14.943915)scale(0.697382)" xlink:href="#CMR17-31"/>
     <use transform="translate(273.598274 0)scale(0.996264)" xlink:href="#CMMI12-3d"/>
     <use transform="translate(322.373193 0)scale(0.996264)" xlink:href="#CMBX12-63"/>
     <use transform="translate(372.186393 -14.943915)scale(0.697382)" xlink:href="#CMMI12-74"/>
     <use transform="translate(397.342835 0)scale(0.996264)" xlink:href="#CMR17-5d"/>
    </g>
   </g>
   <g id="text_14">
    <!-- $\pmb{\text{\TH}} = (\Rfree\DiscFac)^{1/\CRRA}$ -->
    <g transform="translate(648.245455 382.963831)scale(0.22 -0.22)">
     <defs>
      <path d="M 474 4352 
L 474 4211 
L 582 4211 
C 749 4211 883 4192 883 3951 
L 883 409 
C 883 160 774 140 474 140 
L 474 0 
L 1594 0 
L 1594 140 
L 1466 140 
C 1318 140 1184 160 1184 364 
L 1184 1139 
L 2176 1139 
C 2797 1196 3251 1722 3251 2326 
C 3251 2872 2861 3411 2266 3500 
C 2163 3520 2061 3520 1958 3520 
L 1184 3520 
L 1184 3964 
C 1184 4137 1210 4211 1594 4211 
L 1594 4352 
L 474 4352 
z
M 1184 1280 
L 1184 3379 
L 1786 3379 
C 2093 3379 2394 3353 2624 3077 
C 2803 2872 2899 2596 2899 2326 
C 2899 1870 2586 1350 2003 1280 
L 1184 1280 
z
" id="SFRM3583-de" transform="scale(0.015625)"/>
      <path d="M 1958 -1562 
C 1958 -1556 1958 -1543 1939 -1524 
C 1645 -1223 858 -403 858 1596 
C 858 3595 1632 4408 1946 4729 
C 1946 4735 1958 4748 1958 4767 
C 1958 4787 1939 4800 1914 4800 
C 1843 4800 1299 4325 986 3620 
C 666 2909 576 2218 576 1603 
C 576 1141 621 360 1005 -467 
C 1312 -1133 1837 -1600 1914 -1600 
C 1946 -1600 1958 -1588 1958 -1562 
z
" id="CMR17-28" transform="scale(0.015625)"/>
      <path d="M 2522 2099 
L 2534 2105 
C 3533 2450 3539 3125 3539 3244 
C 3539 3838 2925 4416 2003 4416 
L 570 4416 
L 570 0 
L 1094 0 
L 1094 2041 
L 2035 2041 
L 3168 0 
L 3706 0 
L 2522 2099 
z
M 1094 2432 
L 1094 4057 
L 1933 4057 
C 2746 4057 3034 3607 3034 3244 
C 3034 2907 2778 2432 1933 2432 
L 1094 2432 
z
" id="CMSS17-52" transform="scale(0.015625)"/>
      <path d="M 3622 3739 
C 3622 4131 3296 4544 2714 4544 
C 1888 4544 1363 3510 1197 2830 
L 186 -1152 
C 173 -1204 211 -1216 243 -1216 
C 288 -1216 320 -1210 326 -1178 
L 774 592 
C 838 231 1190 -64 1568 -64 
C 2483 -64 3347 657 3347 1618 
C 3347 1863 3290 2108 3155 2314 
C 3078 2437 2982 2527 2880 2599 
C 3341 2823 3622 3222 3622 3739 
z
M 2509 2605 
C 2406 2571 2304 2560 2182 2560 
C 2093 2560 2010 2553 1894 2588 
C 1958 2627 2054 2639 2189 2639 
C 2304 2639 2419 2627 2509 2605 
z
M 3290 3798 
C 3290 3438 3117 2915 2701 2684 
C 2579 2723 2413 2752 2272 2752 
C 2138 2752 1754 2765 1754 2582 
C 1754 2411 2106 2430 2214 2430 
C 2381 2430 2528 2469 2682 2514 
C 2886 2347 2976 2127 2976 1805 
C 2976 1431 2874 1128 2752 850 
C 2541 373 2042 64 1600 64 
C 1133 64 890 438 890 876 
C 890 934 890 1018 915 1115 
L 1331 2784 
C 1542 3641 2080 4413 2701 4413 
C 3162 4413 3290 4086 3290 3798 
z
" id="CMMI12-c" transform="scale(0.015625)"/>
      <path d="M 1683 1596 
C 1683 2057 1638 2839 1254 3665 
C 947 4332 422 4800 346 4800 
C 326 4800 301 4793 301 4761 
C 301 4748 307 4742 314 4729 
C 621 4408 1402 3595 1402 1603 
C 1402 -396 627 -1210 314 -1530 
C 307 -1543 301 -1549 301 -1562 
C 301 -1594 326 -1600 346 -1600 
C 416 -1600 960 -1127 1274 -422 
C 1594 289 1683 981 1683 1596 
z
" id="CMR17-29" transform="scale(0.015625)"/>
      <path d="M 198 -1085 
C 192 -1116 179 -1154 179 -1191 
C 179 -1287 256 -1351 352 -1351 
C 448 -1351 538 -1287 576 -1198 
C 602 -1141 781 -390 986 389 
C 1114 70 1350 -64 1600 -64 
C 2323 -64 3142 830 3142 1794 
C 3142 2477 2726 2816 2285 2816 
C 1722 2816 1037 2234 826 1385 
L 198 -1085 
z
M 1594 64 
C 1158 64 1050 568 1050 645 
C 1050 683 1210 1289 1229 1385 
C 1555 2656 2182 2687 2278 2687 
C 2566 2687 2726 2426 2726 2049 
C 2726 1724 2554 1091 2445 823 
C 2253 383 1920 64 1594 64 
z
" id="CMMI12-1a" transform="scale(0.015625)"/>
     </defs>
     <use transform="scale(0.996264)" xlink:href="#SFRM3583-de"/>
     <use transform="translate(2.213881 2.767393)scale(0.996264)" xlink:href="#SFRM3583-de"/>
     <use transform="translate(4.427762 0)scale(0.996264)" xlink:href="#SFRM3583-de"/>
     <use transform="translate(87.811454 0)scale(0.996264)" xlink:href="#CMR17-3d"/>
     <use transform="translate(187.200251 0)scale(0.996264)" xlink:href="#CMR17-28"/>
     <use transform="translate(222.481019 0)scale(0.996264)" xlink:href="#CMSS17-52"/>
     <use transform="translate(282.897174 0)scale(0.996264)" xlink:href="#CMMI12-c"/>
     <use transform="translate(343.49119 0)scale(0.996264)" xlink:href="#CMR17-29"/>
     <use transform="translate(378.771957 36.153639)scale(0.697382)" xlink:href="#CMR17-31"/>
     <use transform="translate(410.755139 36.153639)scale(0.697382)" xlink:href="#CMMI12-3d"/>
     <use transform="translate(444.897431 36.153639)scale(0.697382)" xlink:href="#CMMI12-1a"/>
    </g>
   </g>
   <g id="text_15">
    <!-- $\check{\mNrm}_{\searrow}~$ -->
    <g transform="translate(318.294909 223.625128)scale(0.22 -0.22)">
     <defs>
      <path d="M 1466 3584 
L 749 4096 
L 685 4006 
L 1466 3327 
L 2246 4006 
L 2182 4096 
L 1466 3584 
z
" id="CMR17-14" transform="scale(0.015625)"/>
      <path d="M 5434 -807 
C 5325 -788 5178 -776 5062 -776 
C 4934 -776 4621 -788 4250 -922 
C 4205 -941 3731 -1140 3731 -1242 
C 3731 -1287 3834 -1389 3878 -1389 
C 3904 -1389 3923 -1383 3962 -1357 
C 4467 -1025 4909 -1025 5069 -1025 
C 5459 -1025 5747 -1127 5894 -1197 
C 5933 -1217 5952 -1223 5971 -1223 
C 5997 -1223 6035 -1210 6035 -1159 
C 6035 -1146 6035 -1133 6016 -1082 
C 5933 -909 5837 -636 5837 -260 
C 5837 7 5875 388 6170 840 
C 6195 884 6202 897 6202 923 
C 6202 967 6099 1069 6054 1069 
C 5965 1069 5786 675 5734 554 
C 5600 197 5587 -108 5587 -254 
C 5587 -458 5587 -464 5619 -623 
L 621 4339 
C 544 4416 531 4428 480 4428 
C 403 4428 352 4364 352 4300 
C 352 4249 365 4236 448 4154 
L 5434 -807 
z
" id="CMSY10-26" transform="scale(0.015625)"/>
     </defs>
     <use transform="translate(19.818381 0.006461)scale(0.996264)" xlink:href="#CMR17-14"/>
     <use transform="scale(0.996264)" xlink:href="#CMMI12-6d"/>
     <use transform="translate(85.327224 -14.943915)scale(0.697382)" xlink:href="#CMSY10-26"/>
    </g>
   </g>
   <g id="text_16">
    <!-- $\Ex_{t}[\mNrm_{t+1}/\mNrm_{t}] ^{\nearrow}$ -->
    <g transform="translate(156.214809 301.585527)scale(0.22 -0.22)">
     <defs>
      <path d="M 5619 3821 
C 5600 3713 5587 3567 5587 3452 
C 5587 3325 5600 3013 5734 2643 
C 5766 2567 5958 2127 6054 2127 
C 6099 2127 6202 2229 6202 2274 
C 6202 2299 6195 2312 6170 2357 
C 5856 2841 5837 3235 5837 3458 
C 5837 3847 5939 4134 6010 4281 
C 6029 4320 6035 4339 6035 4358 
C 6035 4409 5997 4422 5971 4422 
C 5958 4422 5946 4422 5894 4403 
C 5722 4320 5440 4224 5069 4224 
C 4883 4224 4454 4230 3962 4556 
C 3923 4582 3904 4588 3878 4588 
C 3834 4588 3731 4486 3731 4441 
C 3731 4352 4128 4172 4262 4121 
C 4634 3981 4947 3974 5062 3974 
C 5267 3974 5274 3974 5434 4006 
L 448 -961 
C 365 -1044 352 -1057 352 -1108 
C 352 -1172 410 -1236 480 -1236 
C 531 -1236 544 -1223 621 -1146 
L 5619 3821 
z
" id="CMSY10-25" transform="scale(0.015625)"/>
     </defs>
     <use transform="scale(0.996264)" xlink:href="#MSBM10-45"/>
     <use transform="translate(66.417819 -14.943915)scale(0.697382)" xlink:href="#CMMI12-74"/>
     <use transform="translate(91.57426 0)scale(0.996264)" xlink:href="#CMR17-5b"/>
     <use transform="translate(116.445319 0)scale(0.996264)" xlink:href="#CMMI12-6d"/>
     <use transform="translate(201.772543 -14.943915)scale(0.697382)" xlink:href="#CMMI12-74"/>
     <use transform="translate(226.430853 -14.943915)scale(0.697382)" xlink:href="#CMR17-2b"/>
     <use transform="translate(276.630984 -14.943915)scale(0.697382)" xlink:href="#CMR17-31"/>
     <use transform="translate(309.112298 0)scale(0.996264)" xlink:href="#CMMI12-3d"/>
     <use transform="translate(357.887217 0)scale(0.996264)" xlink:href="#CMMI12-6d"/>
     <use transform="translate(443.214441 -14.943915)scale(0.697382)" xlink:href="#CMMI12-74"/>
     <use transform="translate(468.370883 0)scale(0.996264)" xlink:href="#CMR17-5d"/>
     <use transform="translate(493.241941 36.153639)scale(0.697382)" xlink:href="#CMSY10-25"/>
    </g>
   </g>
   <g id="text_17">
    <!-- $\Ex_{t}[\mLev_{t+1}/\mLev_{t}]$ -->
    <g transform="translate(648.245455 453.93106)scale(0.22 -0.22)">
     <defs>
      <path d="M 5402 1958 
C 5402 2547 5152 2880 4435 2880 
C 3789 2880 3488 2444 3386 2240 
C 3283 2783 2848 2880 2438 2880 
C 1824 2880 1491 2483 1357 2176 
L 1350 2176 
L 1350 2880 
L 269 2828 
L 269 2553 
C 666 2553 710 2553 710 2304 
L 710 275 
L 269 275 
L 269 0 
C 416 12 877 12 1056 12 
C 1235 12 1702 12 1850 0 
L 1850 275 
L 1408 275 
L 1408 1638 
C 1408 2336 1926 2668 2330 2668 
C 2566 2668 2707 2528 2707 2028 
L 2707 275 
L 2266 275 
L 2266 0 
C 2413 12 2874 12 3053 12 
C 3232 12 3699 12 3846 0 
L 3846 275 
L 3405 275 
L 3405 1638 
C 3405 2336 3923 2668 4326 2668 
C 4563 2668 4704 2528 4704 2028 
L 4704 275 
L 4262 275 
L 4262 0 
C 4410 12 4870 12 5050 12 
C 5229 12 5696 12 5843 0 
L 5843 275 
L 5402 275 
L 5402 1958 
z
" id="CMBX12-6d" transform="scale(0.015625)"/>
     </defs>
     <use transform="scale(0.996264)" xlink:href="#MSBM10-45"/>
     <use transform="translate(66.417819 -14.943915)scale(0.697382)" xlink:href="#CMMI12-74"/>
     <use transform="translate(91.57426 0)scale(0.996264)" xlink:href="#CMR17-5b"/>
     <use transform="translate(116.445319 0)scale(0.996264)" xlink:href="#CMBX12-6d"/>
     <use transform="translate(209.84507 -14.943915)scale(0.697382)" xlink:href="#CMMI12-74"/>
     <use transform="translate(234.503379 -14.943915)scale(0.697382)" xlink:href="#CMR17-2b"/>
     <use transform="translate(284.703511 -14.943915)scale(0.697382)" xlink:href="#CMR17-31"/>
     <use transform="translate(317.184824 0)scale(0.996264)" xlink:href="#CMMI12-3d"/>
     <use transform="translate(365.959743 0)scale(0.996264)" xlink:href="#CMBX12-6d"/>
     <use transform="translate(459.359494 -14.943915)scale(0.697382)" xlink:href="#CMMI12-74"/>
     <use transform="translate(484.515936 0)scale(0.996264)" xlink:href="#CMR17-5d"/>
    </g>
   </g>
   <g id="legend_1">
    <g id="patch_7">
     <path d="M 536.930915 117.38261 
L 762.2 117.38261 
Q 766.6 117.38261 766.6 112.98261 
L 766.6 84.52 
Q 766.6 80.12 762.2 80.12 
L 536.930915 80.12 
Q 532.530915 80.12 532.530915 84.52 
L 532.530915 112.98261 
Q 532.530915 117.38261 536.930915 117.38261 
z
" style="fill:#ffffff;opacity:0.8;stroke:#cccccc;stroke-linejoin:miter;"/>
    </g>
    <g id="line2d_45">
     <path d="M 541.330915 96.62 
L 585.330915 96.62 
" style="fill:none;stroke:#1f77b4;stroke-dasharray:1.5,2.475;stroke-dashoffset:0;stroke-width:1.5;"/>
    </g>
    <g id="line2d_46"/>
    <g id="text_18">
     <!-- Individual Target -->
     <g transform="translate(602.930915 104.32)scale(0.22 -0.22)">
      <defs>
       <path d="M 448 4352 
L 448 4211 
L 582 4211 
C 736 4211 877 4185 877 3950 
L 877 554 
C 877 503 883 446 883 389 
C 883 159 717 140 544 140 
L 448 140 
L 448 0 
L 1619 0 
L 1619 140 
L 1517 140 
C 1338 140 1184 159 1184 389 
C 1184 446 1190 503 1190 554 
L 1190 3950 
C 1190 4198 1338 4211 1536 4211 
L 1619 4211 
L 1619 4352 
L 448 4352 
z
" id="SFRM3583-49" transform="scale(0.015625)"/>
       <path d="M 301 2744 
L 301 2602 
L 365 2602 
C 570 2602 678 2557 678 2273 
L 678 360 
C 678 153 525 140 301 140 
L 301 0 
L 1318 0 
L 1318 140 
L 1229 140 
C 1082 140 941 160 941 360 
L 941 1775 
C 979 2215 1203 2738 1709 2738 
C 2112 2738 2266 2415 2266 1950 
L 2266 360 
C 2266 153 2112 140 1888 140 
L 1888 0 
L 2906 0 
L 2906 140 
L 2803 140 
C 2656 140 2528 160 2528 386 
L 2528 1885 
C 2528 2299 2451 2816 1760 2816 
C 1414 2816 1178 2628 1024 2350 
C 986 2279 947 2202 934 2124 
L 928 2816 
L 301 2744 
z
" id="SFRM3583-6e" transform="scale(0.015625)"/>
       <path d="M 1882 4408 
L 1882 4265 
L 1952 4265 
C 2150 4265 2259 4207 2259 3960 
L 2253 2305 
C 2131 2603 1766 2805 1459 2805 
C 710 2805 269 2039 269 1357 
C 269 714 653 -19 1338 -64 
L 1395 -64 
C 1741 -64 2118 150 2246 468 
L 2253 -64 
L 2893 -26 
L 2893 117 
L 2816 117 
C 2605 117 2515 195 2515 422 
L 2515 4480 
L 1882 4408 
z
M 595 1214 
L 595 1312 
C 595 1760 659 2292 1056 2577 
C 1190 2675 1344 2727 1498 2727 
C 1862 2727 2259 2376 2259 2000 
C 2259 1928 2253 1850 2253 1779 
L 2253 734 
C 2253 383 1811 13 1440 13 
C 947 13 678 520 621 948 
C 608 1039 608 1123 595 1214 
z
" id="SFRM3583-64" transform="scale(0.015625)"/>
       <path d="M 326 2732 
L 326 2590 
L 358 2590 
C 563 2590 678 2558 678 2250 
L 678 359 
C 678 153 531 140 307 140 
L 307 0 
L 1274 0 
L 1274 140 
L 1190 140 
C 1056 140 934 153 934 372 
L 934 2803 
L 326 2732 
z
M 698 4160 
C 595 4160 531 4044 531 3960 
C 531 3864 608 3748 730 3748 
C 858 3748 934 3857 934 3954 
C 934 4044 858 4160 736 4160 
C 723 4166 710 4160 698 4160 
z
" id="SFRM3583-69" transform="scale(0.015625)"/>
       <path d="M 90 2752 
L 90 2611 
L 134 2611 
C 454 2611 461 2481 678 1939 
C 922 1325 1152 711 1402 97 
C 1421 45 1440 -64 1510 -64 
C 1594 -64 1734 388 1824 614 
C 2022 1118 2214 1622 2413 2126 
C 2502 2346 2624 2611 2931 2611 
L 2931 2752 
L 2189 2752 
L 2189 2611 
C 2304 2611 2394 2494 2394 2385 
C 2394 2268 2330 2139 2291 2042 
C 2144 1674 2003 1312 1862 944 
L 1709 556 
C 1670 465 1632 381 1606 291 
L 1600 291 
C 1549 491 1453 698 1370 892 
L 928 2016 
C 870 2158 768 2359 768 2456 
L 768 2469 
C 768 2604 928 2611 1018 2611 
L 1018 2752 
L 710 2752 
L 90 2752 
z
" id="SFRM3583-76" transform="scale(0.015625)"/>
       <path d="M 301 2744 
L 301 2600 
L 358 2600 
C 570 2600 685 2568 685 2183 
C 685 2099 678 2014 678 1929 
L 678 887 
C 678 418 762 -64 1459 -64 
C 1856 -64 2170 216 2266 587 
L 2272 -64 
L 2906 -25 
L 2906 118 
L 2842 118 
C 2675 118 2528 137 2528 411 
L 2528 2816 
L 1888 2744 
L 1888 2600 
L 1958 2600 
C 2176 2600 2266 2529 2266 2262 
L 2266 1063 
C 2266 587 2042 14 1491 14 
C 1318 14 1133 72 1030 222 
C 947 339 941 502 941 652 
L 941 2816 
L 301 2744 
z
" id="SFRM3583-75" transform="scale(0.015625)"/>
       <path d="M 307 4408 
L 307 4266 
L 384 4266 
C 608 4266 678 4163 678 3950 
L 678 373 
C 678 179 595 140 307 140 
L 307 0 
L 1306 0 
L 1306 140 
L 1203 140 
C 1062 140 934 160 934 366 
L 934 4480 
L 307 4408 
z
" id="SFRM3583-6c" transform="scale(0.015625)"/>
       <path d="M 301 4352 
L 205 2965 
L 288 2965 
C 307 3329 320 3827 576 4032 
C 787 4211 1075 4211 1331 4211 
L 1715 4211 
C 1830 4211 1920 4179 1920 4012 
C 1920 3974 1914 3929 1914 3891 
L 1914 536 
C 1914 498 1920 447 1920 402 
C 1920 166 1722 140 1523 140 
L 1338 140 
L 1338 0 
L 2803 0 
L 2803 140 
L 2605 140 
C 2400 140 2221 166 2221 402 
C 2221 447 2227 498 2227 536 
L 2227 3891 
C 2227 3929 2221 3974 2221 4012 
C 2221 4179 2310 4211 2426 4211 
L 2810 4211 
C 3200 4211 3661 4191 3776 3616 
C 3821 3405 3840 3182 3853 2965 
L 3936 2965 
L 3840 4352 
L 301 4352 
z
" id="SFRM3583-54" transform="scale(0.015625)"/>
       <path d="M 659 1211 
L 659 1205 
C 531 1077 474 867 474 689 
C 474 460 570 313 749 172 
C 448 121 154 -172 154 -497 
C 154 -1038 896 -1280 1421 -1280 
C 1933 -1280 2701 -1089 2701 -459 
C 2701 -108 2464 160 2138 262 
C 1907 339 1658 345 1414 345 
L 1222 345 
C 1165 345 1107 339 1050 339 
C 742 339 582 530 582 791 
C 582 905 646 1135 710 1135 
L 717 1135 
C 755 1135 870 1039 947 1007 
C 1050 963 1158 944 1274 944 
C 1805 944 2144 1402 2144 1867 
C 2144 2077 2067 2332 1914 2484 
L 1914 2491 
C 2086 2625 2266 2739 2490 2739 
C 2534 2739 2579 2733 2624 2720 
C 2586 2695 2554 2656 2554 2605 
C 2554 2542 2611 2497 2669 2497 
C 2746 2497 2784 2548 2784 2605 
C 2784 2758 2630 2816 2502 2816 
C 2291 2816 2086 2726 1920 2593 
C 1907 2580 1882 2561 1862 2561 
C 1824 2561 1696 2669 1613 2714 
C 1504 2758 1389 2784 1274 2784 
C 742 2784 397 2319 397 1861 
C 397 1644 480 1357 659 1211 
z
M 358 -548 
L 358 -497 
C 358 -261 506 -25 717 70 
C 826 121 941 128 1062 128 
L 1594 128 
C 1958 128 2502 0 2502 -497 
C 2502 -994 1850 -1204 1434 -1204 
C 1005 -1204 422 -1007 358 -548 
z
M 710 1733 
L 710 1816 
C 710 2166 787 2701 1267 2701 
C 1683 2701 1830 2281 1830 1886 
C 1830 1612 1805 1256 1523 1096 
C 1446 1049 1357 1024 1274 1024 
C 896 1024 749 1392 710 1735 
L 710 1733 
z
" id="SFRM3583-67" transform="scale(0.015625)"/>
       <path d="M 563 1515 
L 2246 1515 
C 2259 1515 2285 1508 2310 1508 
C 2355 1508 2374 1534 2374 1573 
C 2374 2149 2099 2816 1382 2816 
C 614 2816 237 2019 237 1385 
C 237 751 589 33 1350 -64 
C 1376 -58 1402 -64 1427 -64 
C 1869 -64 2208 245 2355 665 
C 2362 685 2368 710 2368 730 
C 2368 749 2362 768 2336 768 
C 2272 768 2266 665 2246 607 
C 2118 297 1843 26 1485 26 
C 1216 26 960 181 813 400 
C 576 723 563 1137 563 1517 
L 563 1515 
z
M 570 1595 
C 582 2099 832 2738 1370 2738 
C 1818 2738 2010 2260 2061 1886 
C 2067 1789 2067 1692 2080 1595 
L 570 1595 
z
" id="SFRM3583-65" transform="scale(0.015625)"/>
      </defs>
      <use transform="scale(0.996264)" xlink:href="#SFRM3583-49"/>
      <use transform="translate(32.120788 0)scale(0.996264)" xlink:href="#SFRM3583-6e"/>
      <use transform="translate(81.659217 0)scale(0.996264)" xlink:href="#SFRM3583-64"/>
      <use transform="translate(131.197645 0)scale(0.996264)" xlink:href="#SFRM3583-69"/>
      <use transform="translate(155.935977 0)scale(0.996264)" xlink:href="#SFRM3583-76"/>
      <use transform="translate(202.994417 0)scale(0.996264)" xlink:href="#SFRM3583-69"/>
      <use transform="translate(227.732748 0)scale(0.996264)" xlink:href="#SFRM3583-64"/>
      <use transform="translate(277.271177 0)scale(0.996264)" xlink:href="#SFRM3583-75"/>
      <use transform="translate(326.809605 0)scale(0.996264)" xlink:href="#SFRM3583-61"/>
      <use transform="translate(371.388072 0)scale(0.996264)" xlink:href="#SFRM3583-6c"/>
      <use transform="translate(425.824697 0)scale(0.996264)" xlink:href="#SFRM3583-54"/>
      <use transform="translate(482.803242 0)scale(0.996264)" xlink:href="#SFRM3583-61"/>
      <use transform="translate(527.381709 0)scale(0.996264)" xlink:href="#SFRM3583-72"/>
      <use transform="translate(562.040055 0)scale(0.996264)" xlink:href="#SFRM3583-67"/>
      <use transform="translate(606.618522 0)scale(0.996264)" xlink:href="#SFRM3583-65"/>
      <use transform="translate(646.23692 0)scale(0.996264)" xlink:href="#SFRM3583-74"/>
     </g>
    </g>
   </g>
  </g>
 </g>
 <defs>
  <clipPath id="p58cc5f4628">
   <rect height="443.52" width="669.6" x="108" y="69.12"/>
  </clipPath>
 </defs>
</svg>
