<?xml version="1.0" encoding="utf-8" standalone="no"?>
<!DOCTYPE svg PUBLIC "-//W3C//DTD SVG 1.1//EN"
  "http://www.w3.org/Graphics/SVG/1.1/DTD/svg11.dtd">
<svg height="576pt" version="1.1" viewBox="0 0 864 576" width="864pt" xmlns="http://www.w3.org/2000/svg" xmlns:xlink="http://www.w3.org/1999/xlink">
 <metadata>
  <rdf:RDF xmlns:cc="http://creativecommons.org/ns#" xmlns:dc="http://purl.org/dc/elements/1.1/" xmlns:rdf="http://www.w3.org/1999/02/22-rdf-syntax-ns#">
   <cc:Work>
    <dc:type rdf:resource="http://purl.org/dc/dcmitype/StillImage"/>
    <dc:date>2021-11-20T11:20:44.460712</dc:date>
    <dc:format>image/svg+xml</dc:format>
    <dc:creator>
     <cc:Agent>
      <dc:title>Matplotlib v3.4.2, https://matplotlib.org/</dc:title>
     </cc:Agent>
    </dc:creator>
   </cc:Work>
  </rdf:RDF>
 </metadata>
 <defs>
  <style type="text/css">*{stroke-linecap:butt;stroke-linejoin:round;}</style>
 </defs>
 <g id="figure_1">
  <g id="patch_1">
   <path d="M 0 576 
L 864 576 
L 864 0 
L 0 0 
z
" style="fill:#ffffff;"/>
  </g>
  <g id="axes_1">
   <g id="patch_2">
    <path d="M 108 512.64 
L 777.6 512.64 
L 777.6 69.12 
L 108 69.12 
z
" style="fill:#ffffff;"/>
   </g>
   <g id="matplotlib.axis_1">
    <g id="xtick_1">
     <g id="line2d_1">
      <defs>
       <path d="M 0 0 
L 0 3.5 
" id="m1761183c9a" style="stroke:#000000;stroke-width:0.8;"/>
      </defs>
      <g>
       <use style="stroke:#000000;stroke-width:0.8;" x="108" xlink:href="#m1761183c9a" y="512.64"/>
      </g>
     </g>
     <g id="line2d_2">
      <defs>
       <path d="M 0 0 
L 0 -3.5 
" id="md9b392aac1" style="stroke:#000000;stroke-width:0.8;"/>
      </defs>
      <g>
       <use style="stroke:#000000;stroke-width:0.8;" x="108" xlink:href="#md9b392aac1" y="69.12"/>
      </g>
     </g>
    </g>
    <g id="xtick_2">
     <g id="line2d_3">
      <g>
       <use style="stroke:#000000;stroke-width:0.8;" x="191.7" xlink:href="#m1761183c9a" y="512.64"/>
      </g>
     </g>
     <g id="line2d_4">
      <g>
       <use style="stroke:#000000;stroke-width:0.8;" x="191.7" xlink:href="#md9b392aac1" y="69.12"/>
      </g>
     </g>
    </g>
    <g id="xtick_3">
     <g id="line2d_5">
      <g>
       <use style="stroke:#000000;stroke-width:0.8;" x="275.4" xlink:href="#m1761183c9a" y="512.64"/>
      </g>
     </g>
     <g id="line2d_6">
      <g>
       <use style="stroke:#000000;stroke-width:0.8;" x="275.4" xlink:href="#md9b392aac1" y="69.12"/>
      </g>
     </g>
    </g>
    <g id="xtick_4">
     <g id="line2d_7">
      <g>
       <use style="stroke:#000000;stroke-width:0.8;" x="359.1" xlink:href="#m1761183c9a" y="512.64"/>
      </g>
     </g>
     <g id="line2d_8">
      <g>
       <use style="stroke:#000000;stroke-width:0.8;" x="359.1" xlink:href="#md9b392aac1" y="69.12"/>
      </g>
     </g>
    </g>
    <g id="xtick_5">
     <g id="line2d_9">
      <g>
       <use style="stroke:#000000;stroke-width:0.8;" x="442.8" xlink:href="#m1761183c9a" y="512.64"/>
      </g>
     </g>
     <g id="line2d_10">
      <g>
       <use style="stroke:#000000;stroke-width:0.8;" x="442.8" xlink:href="#md9b392aac1" y="69.12"/>
      </g>
     </g>
    </g>
    <g id="xtick_6">
     <g id="line2d_11">
      <g>
       <use style="stroke:#000000;stroke-width:0.8;" x="526.5" xlink:href="#m1761183c9a" y="512.64"/>
      </g>
     </g>
     <g id="line2d_12">
      <g>
       <use style="stroke:#000000;stroke-width:0.8;" x="526.5" xlink:href="#md9b392aac1" y="69.12"/>
      </g>
     </g>
    </g>
    <g id="xtick_7">
     <g id="line2d_13">
      <g>
       <use style="stroke:#000000;stroke-width:0.8;" x="610.2" xlink:href="#m1761183c9a" y="512.64"/>
      </g>
     </g>
     <g id="line2d_14">
      <g>
       <use style="stroke:#000000;stroke-width:0.8;" x="610.2" xlink:href="#md9b392aac1" y="69.12"/>
      </g>
     </g>
    </g>
    <g id="xtick_8">
     <g id="line2d_15">
      <g>
       <use style="stroke:#000000;stroke-width:0.8;" x="693.9" xlink:href="#m1761183c9a" y="512.64"/>
      </g>
     </g>
     <g id="line2d_16">
      <g>
       <use style="stroke:#000000;stroke-width:0.8;" x="693.9" xlink:href="#md9b392aac1" y="69.12"/>
      </g>
     </g>
    </g>
    <g id="xtick_9">
     <g id="line2d_17">
      <g>
       <use style="stroke:#000000;stroke-width:0.8;" x="777.6" xlink:href="#m1761183c9a" y="512.64"/>
      </g>
     </g>
     <g id="line2d_18">
      <g>
       <use style="stroke:#000000;stroke-width:0.8;" x="777.6" xlink:href="#md9b392aac1" y="69.12"/>
      </g>
     </g>
    </g>
    <g id="text_1">
     <!-- $\mathit{m}$ -->
     <g transform="translate(760.065595 531.733242)scale(0.22 -0.22)">
      <defs>
       <path d="M 3187 1730 
C 3226 1877 3571 2687 4186 2687 
C 4480 2687 4480 2368 4480 2260 
C 4480 1864 4198 1098 4090 785 
C 4032 625 4006 568 4006 434 
C 4006 127 4205 -64 4467 -64 
C 5062 -64 5267 887 5267 913 
C 5267 970 5210 970 5184 970 
C 5107 970 5101 951 5075 855 
C 5018 638 4845 64 4486 64 
C 4390 64 4339 108 4339 255 
C 4339 408 4410 606 4461 734 
C 4627 1200 4845 1794 4845 2164 
C 4845 2502 4698 2816 4205 2816 
C 3808 2816 3488 2585 3258 2234 
C 3219 2668 2918 2816 2611 2816 
C 2240 2816 1926 2617 1696 2298 
C 1677 2585 1478 2816 1184 2816 
C 1037 2816 870 2751 736 2477 
C 614 2241 531 1858 531 1845 
C 531 1794 563 1781 621 1781 
C 691 1781 698 1787 736 1934 
C 832 2311 954 2687 1171 2687 
C 1338 2687 1338 2502 1338 2426 
C 1338 2305 1312 2164 1286 2075 
L 819 210 
C 794 121 794 115 794 89 
C 794 12 845 -64 960 -64 
C 1037 -64 1139 -20 1184 108 
C 1197 172 1440 1130 1478 1289 
C 1510 1430 1549 1564 1581 1704 
C 1645 1941 1997 2687 2592 2687 
C 2886 2687 2886 2362 2886 2260 
C 2886 2132 2861 1992 2835 1877 
L 2413 191 
C 2394 121 2394 102 2394 89 
C 2394 19 2445 -64 2560 -64 
C 2707 -64 2771 51 2797 159 
L 3187 1730 
z
" id="CMTI12-6d" transform="scale(0.015625)"/>
      </defs>
      <use transform="scale(0.996264)" xlink:href="#CMTI12-6d"/>
     </g>
    </g>
   </g>
   <g id="matplotlib.axis_2">
    <g id="ytick_1">
     <g id="line2d_19">
      <defs>
       <path d="M 0 0 
L -3.5 0 
" id="mf5bd9c4c64" style="stroke:#000000;stroke-width:0.8;"/>
      </defs>
      <g>
       <use style="stroke:#000000;stroke-width:0.8;" x="108" xlink:href="#mf5bd9c4c64" y="512.64"/>
      </g>
     </g>
     <g id="line2d_20">
      <defs>
       <path d="M 0 0 
L 3.5 0 
" id="m2d722b8c62" style="stroke:#000000;stroke-width:0.8;"/>
      </defs>
      <g>
       <use style="stroke:#000000;stroke-width:0.8;" x="777.6" xlink:href="#m2d722b8c62" y="512.64"/>
      </g>
     </g>
    </g>
    <g id="ytick_2">
     <g id="line2d_21">
      <g>
       <use style="stroke:#000000;stroke-width:0.8;" x="108" xlink:href="#mf5bd9c4c64" y="460.994358"/>
      </g>
     </g>
     <g id="line2d_22">
      <g>
       <use style="stroke:#000000;stroke-width:0.8;" x="777.6" xlink:href="#m2d722b8c62" y="460.994358"/>
      </g>
     </g>
    </g>
    <g id="ytick_3">
     <g id="line2d_23">
      <g>
       <use style="stroke:#000000;stroke-width:0.8;" x="108" xlink:href="#mf5bd9c4c64" y="409.348715"/>
      </g>
     </g>
     <g id="line2d_24">
      <g>
       <use style="stroke:#000000;stroke-width:0.8;" x="777.6" xlink:href="#m2d722b8c62" y="409.348715"/>
      </g>
     </g>
    </g>
    <g id="ytick_4">
     <g id="line2d_25">
      <g>
       <use style="stroke:#000000;stroke-width:0.8;" x="108" xlink:href="#mf5bd9c4c64" y="357.703073"/>
      </g>
     </g>
     <g id="line2d_26">
      <g>
       <use style="stroke:#000000;stroke-width:0.8;" x="777.6" xlink:href="#m2d722b8c62" y="357.703073"/>
      </g>
     </g>
    </g>
    <g id="ytick_5">
     <g id="line2d_27">
      <g>
       <use style="stroke:#000000;stroke-width:0.8;" x="108" xlink:href="#mf5bd9c4c64" y="306.057431"/>
      </g>
     </g>
     <g id="line2d_28">
      <g>
       <use style="stroke:#000000;stroke-width:0.8;" x="777.6" xlink:href="#m2d722b8c62" y="306.057431"/>
      </g>
     </g>
    </g>
    <g id="ytick_6">
     <g id="line2d_29">
      <g>
       <use style="stroke:#000000;stroke-width:0.8;" x="108" xlink:href="#mf5bd9c4c64" y="254.411788"/>
      </g>
     </g>
     <g id="line2d_30">
      <g>
       <use style="stroke:#000000;stroke-width:0.8;" x="777.6" xlink:href="#m2d722b8c62" y="254.411788"/>
      </g>
     </g>
    </g>
    <g id="ytick_7">
     <g id="line2d_31">
      <g>
       <use style="stroke:#000000;stroke-width:0.8;" x="108" xlink:href="#mf5bd9c4c64" y="202.766146"/>
      </g>
     </g>
     <g id="line2d_32">
      <g>
       <use style="stroke:#000000;stroke-width:0.8;" x="777.6" xlink:href="#m2d722b8c62" y="202.766146"/>
      </g>
     </g>
    </g>
    <g id="ytick_8">
     <g id="line2d_33">
      <g>
       <use style="stroke:#000000;stroke-width:0.8;" x="108" xlink:href="#mf5bd9c4c64" y="151.120503"/>
      </g>
     </g>
     <g id="line2d_34">
      <g>
       <use style="stroke:#000000;stroke-width:0.8;" x="777.6" xlink:href="#m2d722b8c62" y="151.120503"/>
      </g>
     </g>
    </g>
    <g id="ytick_9">
     <g id="line2d_35">
      <g>
       <use style="stroke:#000000;stroke-width:0.8;" x="108" xlink:href="#mf5bd9c4c64" y="99.474861"/>
      </g>
     </g>
     <g id="line2d_36">
      <g>
       <use style="stroke:#000000;stroke-width:0.8;" x="777.6" xlink:href="#m2d722b8c62" y="99.474861"/>
      </g>
     </g>
    </g>
    <g id="text_2">
     <!-- $\mathit{c}$ -->
     <g transform="translate(94.136886 64.85739)scale(0.22 -0.22)">
      <defs>
       <path d="M 2752 2393 
C 2592 2387 2451 2265 2451 2112 
C 2451 1952 2592 1920 2650 1920 
C 2714 1920 2950 1958 2950 2291 
C 2950 2583 2682 2816 2291 2816 
C 1510 2816 704 1926 704 975 
C 704 320 1094 -64 1606 -64 
C 2400 -64 2925 584 2925 674 
C 2925 719 2874 770 2835 770 
C 2816 770 2810 763 2758 706 
C 2419 243 1939 64 1613 64 
C 1286 64 1114 352 1114 731 
C 1114 1027 1267 1733 1478 2099 
C 1696 2479 2010 2687 2285 2687 
C 2323 2687 2662 2687 2752 2393 
z
" id="CMTI12-63" transform="scale(0.015625)"/>
      </defs>
      <use transform="scale(0.996264)" xlink:href="#CMTI12-63"/>
     </g>
    </g>
   </g>
   <g id="line2d_37">
    <path clip-path="url(#p0e165f179c)" d="M 108 512.64 
L 131.459459 445.519539 
L 142.183784 415.493584 
L 150.227027 393.658401 
L 155.589189 379.663053 
L 160.281081 368.012175 
L 163.632432 360.168105 
L 166.983784 352.883988 
L 169.664865 347.550163 
L 172.345946 342.747661 
L 174.356757 339.523972 
L 176.367568 336.643421 
L 178.378378 334.101689 
L 180.389189 331.876852 
L 182.4 329.948118 
L 184.410811 328.268742 
L 187.091892 326.358443 
L 189.772973 324.748159 
L 192.454054 323.365626 
L 195.805405 321.875491 
L 199.827027 320.338722 
L 204.518919 318.782147 
L 210.551351 317.024762 
L 217.924324 315.109285 
L 227.978378 312.74467 
L 241.383784 309.834152 
L 262.162162 305.57166 
L 295.675676 298.938669 
L 340.583784 290.281704 
L 390.854054 280.824967 
L 443.805405 271.086458 
L 504.8 260.108673 
L 571.156757 248.414514 
L 640.194595 236.482073 
L 715.935135 223.627454 
L 777.6 213.320733 
L 777.6 213.320733 
" style="fill:none;stroke:#000000;stroke-linecap:square;stroke-width:1.5;"/>
   </g>
   <g id="line2d_38">
    <path clip-path="url(#p0e165f179c)" d="M 108 266.260505 
L 777.6 171.470769 
L 777.6 171.470769 
" style="fill:none;stroke:#000000;stroke-dasharray:5.55,2.4;stroke-dashoffset:0;stroke-width:1.5;"/>
   </g>
   <g id="line2d_39">
    <path clip-path="url(#p0e165f179c)" d="M 108 256.894752 
L 777.6 237.031043 
L 777.6 237.031043 
" style="fill:none;stroke:#000000;stroke-dasharray:1.5,2.475;stroke-dashoffset:0;stroke-width:1.5;"/>
   </g>
   <g id="line2d_40">
    <path clip-path="url(#p0e165f179c)" d="M 607.697695 242.071201 
" style="fill:none;stroke:#000000;stroke-linecap:square;stroke-width:1.5;"/>
    <defs>
     <path d="M 0 3.75 
C 0.994512 3.75 1.948425 3.354876 2.65165 2.65165 
C 3.354876 1.948425 3.75 0.994512 3.75 0 
C 3.75 -0.994512 3.354876 -1.948425 2.65165 -2.65165 
C 1.948425 -3.354876 0.994512 -3.75 0 -3.75 
C -0.994512 -3.75 -1.948425 -3.354876 -2.65165 -2.65165 
C -3.354876 -1.948425 -3.75 -0.994512 -3.75 0 
C -3.75 0.994512 -3.354876 1.948425 -2.65165 2.65165 
C -1.948425 3.354876 -0.994512 3.75 0 3.75 
z
" id="m1a74e17da6" style="stroke:#000000;"/>
    </defs>
    <g clip-path="url(#p0e165f179c)">
     <use style="stroke:#000000;" x="607.697695" xlink:href="#m1a74e17da6" y="242.071201"/>
    </g>
   </g>
   <g id="patch_3">
    <path d="M 108 512.64 
L 108 69.12 
" style="fill:none;stroke:#000000;stroke-linecap:square;stroke-linejoin:miter;stroke-width:0.8;"/>
   </g>
   <g id="patch_4">
    <path d="M 777.6 512.64 
L 777.6 69.12 
" style="fill:none;stroke:#000000;stroke-linecap:square;stroke-linejoin:miter;stroke-width:0.8;"/>
   </g>
   <g id="patch_5">
    <path d="M 108 512.64 
L 777.6 512.64 
" style="fill:none;stroke:#000000;stroke-linecap:square;stroke-linejoin:miter;stroke-width:0.8;"/>
   </g>
   <g id="patch_6">
    <path d="M 108 69.12 
L 777.6 69.12 
" style="fill:none;stroke:#000000;stroke-linecap:square;stroke-linejoin:miter;stroke-width:0.8;"/>
   </g>
   <g id="text_3">
    <!-- $\mathrm{c}(m_{t})$ -->
    <g transform="translate(191.7 357.703073)scale(0.22 -0.22)">
     <defs>
      <path d="M 2234 2240 
C 2112 2240 1933 2240 1933 2015 
C 1933 1836 2080 1785 2163 1785 
C 2208 1785 2394 1804 2394 2028 
C 2394 2476 1958 2816 1466 2816 
C 787 2816 211 2201 211 1379 
C 211 521 813 -64 1466 -64 
C 2259 -64 2458 676 2458 747 
C 2458 773 2451 792 2406 792 
C 2362 792 2355 786 2330 702 
C 2163 180 1798 51 1523 51 
C 1114 51 621 431 621 1385 
C 621 2358 1094 2700 1472 2700 
C 1722 2700 2093 2582 2234 2240 
z
" id="CMR17-63" transform="scale(0.015625)"/>
      <path d="M 1958 -1562 
C 1958 -1556 1958 -1543 1939 -1524 
C 1645 -1223 858 -403 858 1596 
C 858 3595 1632 4408 1946 4729 
C 1946 4735 1958 4748 1958 4767 
C 1958 4787 1939 4800 1914 4800 
C 1843 4800 1299 4325 986 3620 
C 666 2909 576 2218 576 1603 
C 576 1141 621 360 1005 -467 
C 1312 -1133 1837 -1600 1914 -1600 
C 1946 -1600 1958 -1588 1958 -1562 
z
" id="CMR17-28" transform="scale(0.015625)"/>
      <path d="M 1318 1870 
C 1331 1909 1491 2228 1728 2432 
C 1894 2585 2112 2687 2362 2687 
C 2618 2687 2707 2496 2707 2241 
C 2707 2202 2707 2075 2630 1775 
L 2470 1117 
C 2419 925 2298 453 2285 383 
C 2259 287 2221 121 2221 95 
C 2221 6 2291 -64 2387 -64 
C 2579 -64 2611 83 2669 313 
L 3053 1838 
C 3066 1890 3398 2687 4102 2687 
C 4358 2687 4448 2496 4448 2241 
C 4448 1883 4198 1187 4058 804 
C 4000 651 3968 568 3968 453 
C 3968 166 4166 -64 4474 -64 
C 5069 -64 5293 874 5293 913 
C 5293 945 5267 970 5229 970 
C 5171 970 5165 951 5133 842 
C 4986 332 4749 64 4493 64 
C 4429 64 4326 70 4326 274 
C 4326 440 4403 645 4429 715 
C 4544 1021 4832 1775 4832 2145 
C 4832 2528 4608 2816 4122 2816 
C 3693 2816 3347 2573 3091 2196 
C 3072 2541 2861 2816 2381 2816 
C 1811 2816 1510 2413 1395 2253 
C 1376 2617 1114 2816 832 2816 
C 646 2816 499 2726 378 2483 
C 262 2253 173 1864 173 1838 
C 173 1813 198 1781 243 1781 
C 294 1781 301 1787 339 1934 
C 435 2311 557 2687 813 2687 
C 960 2687 1011 2585 1011 2394 
C 1011 2253 947 2004 902 1807 
L 723 1117 
C 698 996 627 708 595 593 
C 550 427 480 127 480 95 
C 480 6 550 -64 646 -64 
C 723 -64 813 -26 864 70 
C 877 102 934 325 966 453 
L 1107 1028 
L 1318 1870 
z
" id="CMMI12-6d" transform="scale(0.015625)"/>
      <path d="M 1286 2566 
L 1875 2566 
C 1997 2566 2061 2566 2061 2681 
C 2061 2752 2022 2752 1894 2752 
L 1331 2752 
L 1568 3664 
C 1594 3752 1594 3764 1594 3808 
C 1594 3910 1510 3968 1427 3968 
C 1376 3968 1229 3948 1178 3746 
L 928 2752 
L 326 2752 
C 198 2752 141 2752 141 2630 
C 141 2566 186 2566 307 2566 
L 877 2566 
L 454 881 
C 403 657 384 593 384 510 
C 384 210 595 -64 954 -64 
C 1600 -64 1946 868 1946 913 
C 1946 951 1920 970 1882 970 
C 1869 970 1843 970 1830 944 
C 1824 938 1818 932 1773 830 
C 1638 510 1344 64 973 64 
C 781 64 768 223 768 364 
C 768 370 768 491 787 568 
L 1286 2566 
z
" id="CMMI12-74" transform="scale(0.015625)"/>
      <path d="M 1683 1596 
C 1683 2057 1638 2839 1254 3665 
C 947 4332 422 4800 346 4800 
C 326 4800 301 4793 301 4761 
C 301 4748 307 4742 314 4729 
C 621 4408 1402 3595 1402 1603 
C 1402 -396 627 -1210 314 -1530 
C 307 -1543 301 -1549 301 -1562 
C 301 -1594 326 -1600 346 -1600 
C 416 -1600 960 -1127 1274 -422 
C 1594 289 1683 981 1683 1596 
z
" id="CMR17-29" transform="scale(0.015625)"/>
     </defs>
     <use transform="scale(0.996264)" xlink:href="#CMR17-63"/>
     <use transform="translate(40.48566 0)scale(0.996264)" xlink:href="#CMR17-28"/>
     <use transform="translate(75.766428 0)scale(0.996264)" xlink:href="#CMMI12-6d"/>
     <use transform="translate(161.093653 -14.943915)scale(0.697382)" xlink:href="#CMMI12-74"/>
     <use transform="translate(186.250094 0)scale(0.996264)" xlink:href="#CMR17-29"/>
    </g>
   </g>
   <g id="text_4">
    <!-- $\nwarrow$ -->
    <g transform="translate(609.371695 267.894022)scale(0.22 -0.22)">
     <defs>
      <path d="M 960 4006 
C 1069 3987 1216 3974 1331 3974 
C 1459 3974 1773 3987 2144 4121 
C 2189 4140 2662 4339 2662 4441 
C 2662 4486 2560 4588 2515 4588 
C 2490 4588 2470 4582 2432 4556 
C 1926 4224 1485 4224 1325 4224 
C 934 4224 646 4326 499 4396 
C 461 4416 442 4422 422 4422 
C 384 4422 358 4396 358 4358 
C 358 4345 358 4332 378 4281 
C 461 4108 557 3828 557 3458 
C 557 3191 518 2809 224 2357 
C 198 2312 192 2299 192 2274 
C 192 2229 294 2127 339 2127 
C 429 2127 608 2522 659 2643 
C 794 3000 806 3306 806 3452 
C 806 3656 806 3662 774 3821 
L 5773 -1146 
C 5850 -1223 5862 -1236 5914 -1236 
C 5990 -1236 6042 -1172 6042 -1108 
C 6042 -1057 6029 -1044 5946 -961 
L 960 4006 
z
" id="CMSY10-2d" transform="scale(0.015625)"/>
     </defs>
     <use transform="scale(0.996264)" xlink:href="#CMSY10-2d"/>
    </g>
   </g>
   <g id="text_5">
    <!-- $\StE{m}~$ -->
    <g transform="translate(628.622695 288.552279)scale(0.22 -0.22)">
     <defs>
      <path d="M 1466 3584 
L 749 4096 
L 685 4006 
L 1466 3327 
L 2246 4006 
L 2182 4096 
L 1466 3584 
z
" id="CMR17-14" transform="scale(0.015625)"/>
     </defs>
     <use transform="translate(19.818381 0.006461)scale(0.996264)" xlink:href="#CMR17-14"/>
     <use transform="scale(0.996264)" xlink:href="#CMMI12-6d"/>
    </g>
   </g>
   <g id="legend_1">
    <g id="patch_7">
     <path d="M 536.876462 152.517551 
L 762.2 152.517551 
Q 766.6 152.517551 766.6 148.117551 
L 766.6 84.52 
Q 766.6 80.12 762.2 80.12 
L 536.876462 80.12 
Q 532.476462 80.12 532.476462 84.52 
L 532.476462 148.117551 
Q 532.476462 152.517551 536.876462 152.517551 
z
" style="fill:#ffffff;opacity:0.8;stroke:#cccccc;stroke-linejoin:miter;"/>
    </g>
    <g id="line2d_41">
     <path d="M 541.276462 97.638624 
L 585.276462 97.638624 
" style="fill:none;stroke:#000000;stroke-dasharray:5.55,2.4;stroke-dashoffset:0;stroke-width:1.5;"/>
    </g>
    <g id="line2d_42"/>
    <g id="text_6">
     <!-- $\Ex_{t}[\Delta m_{t+1}] = 0$ -->
     <g transform="translate(602.876462 105.338624)scale(0.22 -0.22)">
      <defs>
       <path d="M 1658 2176 
C 1818 2176 2125 2176 2349 2039 
C 2656 1838 2682 1488 2682 1449 
C 2688 1358 2688 1274 2797 1274 
C 2906 1274 2906 1365 2906 1482 
L 2906 3228 
C 2906 3331 2906 3434 2797 3434 
C 2688 3434 2682 3337 2682 3286 
C 2643 2457 1990 2412 1658 2406 
L 1658 3761 
C 1658 4191 1779 4191 1933 4191 
L 2240 4191 
C 3104 4191 3533 3748 3571 3305 
C 3578 3254 3584 3157 3686 3157 
C 3795 3157 3795 3260 3795 3369 
L 3795 4204 
C 3795 4403 3782 4416 3584 4416 
L 307 4416 
C 192 4416 90 4416 90 4300 
C 90 4191 211 4191 262 4191 
C 627 4191 653 4140 653 3825 
L 653 593 
C 653 288 634 224 294 224 
C 198 224 90 224 90 115 
C 90 0 192 0 307 0 
L 3699 0 
C 3821 0 3885 0 3904 89 
C 3910 96 4090 1177 4090 1209 
C 4090 1281 4032 1326 3981 1326 
C 3891 1326 3866 1242 3866 1235 
C 3827 1067 3763 794 3296 515 
C 2963 314 2637 224 2285 224 
L 1933 224 
C 1779 224 1658 224 1658 658 
L 1658 2176 
z
M 3571 4191 
L 3571 3883 
C 3462 4005 3341 4108 3206 4191 
L 3571 4191 
z
M 2323 2310 
C 2426 2355 2566 2451 2682 2586 
L 2682 2046 
C 2528 2220 2330 2304 2323 2304 
L 2323 2310 
z
M 877 3838 
C 877 3915 877 4076 826 4191 
L 1504 4191 
C 1434 4044 1434 3832 1434 3774 
L 1434 645 
C 1434 412 1478 282 1504 224 
L 826 224 
C 877 340 877 502 877 580 
L 877 3838 
z
M 3258 224 
L 3258 230 
C 3462 334 3635 470 3763 587 
C 3757 561 3712 275 3706 224 
L 3258 224 
z
" id="MSBM10-45" transform="scale(0.015625)"/>
       <path d="M 1504 -1600 
L 1504 -1376 
L 902 -1376 
L 902 4575 
L 1504 4575 
L 1504 4800 
L 678 4800 
L 678 -1600 
L 1504 -1600 
z
" id="CMR17-5b" transform="scale(0.015625)"/>
       <path d="M 2598 4435 
C 2547 4544 2522 4544 2470 4544 
C 2394 4544 2387 4531 2342 4441 
L 269 108 
C 262 96 237 38 237 32 
C 237 6 243 0 358 0 
L 4576 0 
C 4691 0 4698 6 4698 32 
C 4698 38 4672 96 4666 108 
L 2598 4435 
z
M 2310 4056 
L 4083 358 
L 531 358 
L 2310 4056 
z
" id="CMR17-1" transform="scale(0.015625)"/>
       <path d="M 2413 1472 
L 4109 1472 
C 4198 1472 4307 1472 4307 1580 
C 4307 1696 4205 1696 4109 1696 
L 2413 1696 
L 2413 3385 
C 2413 3475 2413 3584 2304 3584 
C 2189 3584 2189 3481 2189 3385 
L 2189 1696 
L 493 1696 
C 403 1696 294 1696 294 1587 
C 294 1472 397 1472 493 1472 
L 2189 1472 
L 2189 -194 
C 2189 -282 2189 -391 2298 -391 
C 2413 -391 2413 -289 2413 -194 
L 2413 1472 
z
" id="CMR17-2b" transform="scale(0.015625)"/>
       <path d="M 1702 4083 
C 1702 4217 1696 4224 1606 4224 
C 1357 3927 979 3833 621 3820 
C 602 3820 570 3820 563 3808 
C 557 3795 557 3782 557 3648 
C 755 3648 1088 3686 1344 3839 
L 1344 467 
C 1344 243 1331 166 781 166 
L 589 166 
L 589 0 
C 896 6 1216 12 1523 12 
C 1830 12 2150 6 2458 0 
L 2458 166 
L 2266 166 
C 1715 166 1702 236 1702 467 
L 1702 4083 
z
" id="CMR17-31" transform="scale(0.015625)"/>
       <path d="M 915 4800 
L 90 4800 
L 90 4575 
L 691 4575 
L 691 -1376 
L 90 -1376 
L 90 -1600 
L 915 -1600 
L 915 4800 
z
" id="CMR17-5d" transform="scale(0.015625)"/>
       <path d="M 4115 2048 
C 4211 2048 4307 2048 4307 2156 
C 4307 2272 4198 2272 4090 2272 
L 512 2272 
C 403 2272 294 2272 294 2156 
C 294 2048 390 2048 486 2048 
L 4115 2048 
z
M 4090 927 
C 4198 927 4307 927 4307 1043 
C 4307 1152 4211 1152 4115 1152 
L 486 1152 
C 390 1152 294 1152 294 1043 
C 294 927 403 927 512 927 
L 4090 927 
z
" id="CMR17-3d" transform="scale(0.015625)"/>
       <path d="M 2688 2038 
C 2688 2430 2682 3099 2413 3613 
C 2176 4063 1798 4224 1466 4224 
C 1158 4224 768 4082 525 3620 
C 269 3137 243 2539 243 2038 
C 243 1671 250 1112 448 623 
C 723 -39 1216 -128 1466 -128 
C 1760 -128 2208 -7 2470 604 
C 2662 1048 2688 1568 2688 2038 
z
M 1466 -26 
C 1056 -26 813 328 723 816 
C 653 1196 653 1749 653 2109 
C 653 2604 653 3015 736 3407 
C 858 3954 1216 4121 1466 4121 
C 1728 4121 2067 3947 2189 3420 
C 2272 3054 2278 2623 2278 2109 
C 2278 1691 2278 1176 2202 797 
C 2067 96 1690 -26 1466 -26 
z
" id="CMR17-30" transform="scale(0.015625)"/>
      </defs>
      <use transform="scale(0.996264)" xlink:href="#MSBM10-45"/>
      <use transform="translate(66.417819 -14.943915)scale(0.697382)" xlink:href="#CMMI12-74"/>
      <use transform="translate(91.57426 0)scale(0.996264)" xlink:href="#CMR17-5b"/>
      <use transform="translate(116.445319 0)scale(0.996264)" xlink:href="#CMR17-1"/>
      <use transform="translate(193.364908 0)scale(0.996264)" xlink:href="#CMMI12-6d"/>
      <use transform="translate(278.692133 -14.943915)scale(0.697382)" xlink:href="#CMMI12-74"/>
      <use transform="translate(303.350442 -14.943915)scale(0.697382)" xlink:href="#CMR17-2b"/>
      <use transform="translate(353.550574 -14.943915)scale(0.697382)" xlink:href="#CMR17-31"/>
      <use transform="translate(386.031888 0)scale(0.996264)" xlink:href="#CMR17-5d"/>
      <use transform="translate(438.576955 0)scale(0.996264)" xlink:href="#CMR17-3d"/>
      <use transform="translate(537.965752 0)scale(0.996264)" xlink:href="#CMR17-30"/>
     </g>
    </g>
    <g id="line2d_43">
     <path d="M 541.276462 130.538099 
L 585.276462 130.538099 
" style="fill:none;stroke:#000000;stroke-dasharray:1.5,2.475;stroke-dashoffset:0;stroke-width:1.5;"/>
    </g>
    <g id="line2d_44"/>
    <g id="text_7">
     <!-- $\Ex_{t}[{\mathbf{m}}_{t+1}/{\mathbf{m}}_{t}] = \PermGroFac$ -->
     <g transform="translate(602.876462 138.238099)scale(0.22 -0.22)">
      <defs>
       <path d="M 5402 1958 
C 5402 2547 5152 2880 4435 2880 
C 3789 2880 3488 2444 3386 2240 
C 3283 2783 2848 2880 2438 2880 
C 1824 2880 1491 2483 1357 2176 
L 1350 2176 
L 1350 2880 
L 269 2828 
L 269 2553 
C 666 2553 710 2553 710 2304 
L 710 275 
L 269 275 
L 269 0 
C 416 12 877 12 1056 12 
C 1235 12 1702 12 1850 0 
L 1850 275 
L 1408 275 
L 1408 1638 
C 1408 2336 1926 2668 2330 2668 
C 2566 2668 2707 2528 2707 2028 
L 2707 275 
L 2266 275 
L 2266 0 
C 2413 12 2874 12 3053 12 
C 3232 12 3699 12 3846 0 
L 3846 275 
L 3405 275 
L 3405 1638 
C 3405 2336 3923 2668 4326 2668 
C 4563 2668 4704 2528 4704 2028 
L 4704 275 
L 4262 275 
L 4262 0 
C 4410 12 4870 12 5050 12 
C 5229 12 5696 12 5843 0 
L 5843 275 
L 5402 275 
L 5402 1958 
z
" id="CMBX12-6d" transform="scale(0.015625)"/>
       <path d="M 2746 4563 
C 2746 4569 2784 4665 2784 4678 
C 2784 4755 2720 4800 2669 4800 
C 2637 4800 2579 4800 2528 4659 
L 384 -1364 
C 384 -1370 346 -1466 346 -1479 
C 346 -1556 410 -1600 461 -1600 
C 499 -1600 557 -1594 602 -1460 
L 2746 4563 
z
" id="CMMI12-3d" transform="scale(0.015625)"/>
       <path d="M 3315 4352 
L 326 4352 
L 326 4185 
C 768 4185 838 4185 838 3897 
L 838 453 
C 838 166 768 166 326 166 
L 326 0 
C 512 12 870 12 1069 12 
C 1331 12 1638 12 1901 0 
L 1901 166 
L 1760 166 
C 1274 166 1261 230 1261 460 
L 1261 3936 
C 1261 4153 1274 4185 1530 4185 
L 2234 4185 
C 3206 4185 3258 3738 3354 2939 
L 3469 2939 
L 3315 4352 
z
" id="CMR17-0" transform="scale(0.015625)"/>
      </defs>
      <use transform="scale(0.996264)" xlink:href="#MSBM10-45"/>
      <use transform="translate(66.417819 -14.943915)scale(0.697382)" xlink:href="#CMMI12-74"/>
      <use transform="translate(91.57426 0)scale(0.996264)" xlink:href="#CMR17-5b"/>
      <use transform="translate(116.445319 0)scale(0.996264)" xlink:href="#CMBX12-6d"/>
      <use transform="translate(209.84507 -14.943915)scale(0.697382)" xlink:href="#CMMI12-74"/>
      <use transform="translate(234.503379 -14.943915)scale(0.697382)" xlink:href="#CMR17-2b"/>
      <use transform="translate(284.703511 -14.943915)scale(0.697382)" xlink:href="#CMR17-31"/>
      <use transform="translate(317.184824 0)scale(0.996264)" xlink:href="#CMMI12-3d"/>
      <use transform="translate(365.959743 0)scale(0.996264)" xlink:href="#CMBX12-6d"/>
      <use transform="translate(459.359494 -14.943915)scale(0.697382)" xlink:href="#CMMI12-74"/>
      <use transform="translate(484.515936 0)scale(0.996264)" xlink:href="#CMR17-5d"/>
      <use transform="translate(537.061003 0)scale(0.996264)" xlink:href="#CMR17-3d"/>
      <use transform="translate(636.4498 0)scale(0.996264)" xlink:href="#CMR17-0"/>
     </g>
    </g>
   </g>
  </g>
 </g>
 <defs>
  <clipPath id="p0e165f179c">
   <rect height="443.52" width="669.6" x="108" y="69.12"/>
  </clipPath>
 </defs>
</svg>
