<?xml version="1.0" encoding="utf-8" standalone="no"?>
<!DOCTYPE svg PUBLIC "-//W3C//DTD SVG 1.1//EN"
  "http://www.w3.org/Graphics/SVG/1.1/DTD/svg11.dtd">
<svg height="576pt" version="1.1" viewBox="0 0 864 576" width="864pt" xmlns="http://www.w3.org/2000/svg" xmlns:xlink="http://www.w3.org/1999/xlink">
 <metadata>
  <rdf:RDF xmlns:cc="http://creativecommons.org/ns#" xmlns:dc="http://purl.org/dc/elements/1.1/" xmlns:rdf="http://www.w3.org/1999/02/22-rdf-syntax-ns#">
   <cc:Work>
    <dc:type rdf:resource="http://purl.org/dc/dcmitype/StillImage"/>
    <dc:date>2021-10-26T12:27:22.644808</dc:date>
    <dc:format>image/svg+xml</dc:format>
    <dc:creator>
     <cc:Agent>
      <dc:title>Matplotlib v3.4.2, https://matplotlib.org/</dc:title>
     </cc:Agent>
    </dc:creator>
   </cc:Work>
  </rdf:RDF>
 </metadata>
 <defs>
  <style type="text/css">*{stroke-linecap:butt;stroke-linejoin:round;}</style>
 </defs>
 <g id="figure_1">
  <g id="patch_1">
   <path d="M 0 576 
L 864 576 
L 864 0 
L 0 0 
z
" style="fill:#ffffff;"/>
  </g>
  <g id="axes_1">
   <g id="patch_2">
    <path d="M 108 512.64 
L 777.6 512.64 
L 777.6 69.12 
L 108 69.12 
z
" style="fill:#ffffff;"/>
   </g>
   <g id="patch_3">
    <path clip-path="url(#p041b716500)" d="M 195.885 242.0928 
L 198.396 237.6576 
L 198.396 241.87104 
L 229.365 241.87104 
L 229.365 242.31456 
L 198.396 242.31456 
L 198.396 246.528 
z
" style="stroke:#000000;stroke-linejoin:miter;"/>
   </g>
   <g id="patch_4">
    <path clip-path="url(#p041b716500)" d="M 308.88 486.0288 
L 306.330335 489.794016 
L 306.370043 485.585833 
L 292.13791 481.815083 
L 292.14209 481.372117 
L 306.374223 485.142867 
L 306.413931 480.934684 
z
" style="stroke:#000000;stroke-linejoin:miter;"/>
   </g>
   <g id="patch_5">
    <path clip-path="url(#p041b716500)" d="M 505.575 102.384 
L 508.18238 99.971628 
L 508.064427 104.138452 
L 522.321208 115.470293 
L 522.308792 115.908907 
L 508.052011 104.577065 
L 507.934058 108.743889 
z
" style="stroke:#000000;stroke-linejoin:miter;"/>
   </g>
   <g id="matplotlib.axis_1">
    <g id="xtick_1">
     <g id="line2d_1">
      <defs>
       <path d="M 0 0 
L 0 3.5 
" id="m20458702f8" style="stroke:#000000;stroke-width:0.8;"/>
      </defs>
      <g>
       <use style="stroke:#000000;stroke-width:0.8;" x="108" xlink:href="#m20458702f8" y="512.64"/>
      </g>
     </g>
     <g id="text_1">
      <!-- $\mathdefault{0}$ -->
      <g transform="translate(102.974048 534.733242)scale(0.22 -0.22)">
       <defs>
        <path d="M 2688 2038 
C 2688 2430 2682 3099 2413 3613 
C 2176 4063 1798 4224 1466 4224 
C 1158 4224 768 4082 525 3620 
C 269 3137 243 2539 243 2038 
C 243 1671 250 1112 448 623 
C 723 -39 1216 -128 1466 -128 
C 1760 -128 2208 -7 2470 604 
C 2662 1048 2688 1568 2688 2038 
z
M 1466 -26 
C 1056 -26 813 328 723 816 
C 653 1196 653 1749 653 2109 
C 653 2604 653 3015 736 3407 
C 858 3954 1216 4121 1466 4121 
C 1728 4121 2067 3947 2189 3420 
C 2272 3054 2278 2623 2278 2109 
C 2278 1691 2278 1176 2202 797 
C 2067 96 1690 -26 1466 -26 
z
" id="CMR17-30" transform="scale(0.015625)"/>
       </defs>
       <use transform="scale(0.996264)" xlink:href="#CMR17-30"/>
      </g>
     </g>
    </g>
    <g id="xtick_2">
     <g id="line2d_2">
      <g>
       <use style="stroke:#000000;stroke-width:0.8;" x="191.7" xlink:href="#m20458702f8" y="512.64"/>
      </g>
     </g>
     <g id="text_2">
      <!-- $\mathdefault{1}$ -->
      <g transform="translate(186.674048 534.733242)scale(0.22 -0.22)">
       <defs>
        <path d="M 1702 4083 
C 1702 4217 1696 4224 1606 4224 
C 1357 3927 979 3833 621 3820 
C 602 3820 570 3820 563 3808 
C 557 3795 557 3782 557 3648 
C 755 3648 1088 3686 1344 3839 
L 1344 467 
C 1344 243 1331 166 781 166 
L 589 166 
L 589 0 
C 896 6 1216 12 1523 12 
C 1830 12 2150 6 2458 0 
L 2458 166 
L 2266 166 
C 1715 166 1702 236 1702 467 
L 1702 4083 
z
" id="CMR17-31" transform="scale(0.015625)"/>
       </defs>
       <use transform="scale(0.996264)" xlink:href="#CMR17-31"/>
      </g>
     </g>
    </g>
    <g id="xtick_3">
     <g id="line2d_3">
      <g>
       <use style="stroke:#000000;stroke-width:0.8;" x="275.4" xlink:href="#m20458702f8" y="512.64"/>
      </g>
     </g>
     <g id="text_3">
      <!-- $\mathdefault{2}$ -->
      <g transform="translate(270.374048 534.733242)scale(0.22 -0.22)">
       <defs>
        <path d="M 2669 990 
L 2554 990 
C 2490 537 2438 460 2413 422 
C 2381 371 1920 371 1830 371 
L 602 371 
C 832 620 1280 1073 1824 1596 
C 2214 1966 2669 2400 2669 3033 
C 2669 3788 2067 4224 1395 4224 
C 691 4224 262 3603 262 3027 
C 262 2777 448 2745 525 2745 
C 589 2745 781 2783 781 3007 
C 781 3206 614 3264 525 3264 
C 486 3264 448 3257 422 3244 
C 544 3788 915 4057 1306 4057 
C 1862 4057 2227 3616 2227 3033 
C 2227 2477 1901 1998 1536 1583 
L 262 147 
L 262 0 
L 2515 0 
L 2669 990 
z
" id="CMR17-32" transform="scale(0.015625)"/>
       </defs>
       <use transform="scale(0.996264)" xlink:href="#CMR17-32"/>
      </g>
     </g>
    </g>
    <g id="xtick_4">
     <g id="line2d_4">
      <g>
       <use style="stroke:#000000;stroke-width:0.8;" x="359.1" xlink:href="#m20458702f8" y="512.64"/>
      </g>
     </g>
     <g id="text_4">
      <!-- $\mathdefault{3}$ -->
      <g transform="translate(354.074048 534.733242)scale(0.22 -0.22)">
       <defs>
        <path d="M 1414 2176 
C 1984 2176 2234 1673 2234 1094 
C 2234 322 1824 25 1453 25 
C 1114 25 563 193 390 691 
C 422 678 454 678 486 678 
C 640 678 755 780 755 947 
C 755 1132 614 1216 486 1216 
C 378 1216 211 1164 211 927 
C 211 335 787 -128 1466 -128 
C 2176 -128 2720 432 2720 1087 
C 2720 1718 2208 2176 1600 2246 
C 2086 2347 2554 2776 2554 3353 
C 2554 3856 2048 4224 1472 4224 
C 890 4224 378 3862 378 3347 
C 378 3123 544 3084 627 3084 
C 762 3084 877 3167 877 3334 
C 877 3500 762 3584 627 3584 
C 602 3584 570 3584 544 3571 
C 730 3999 1235 4076 1459 4076 
C 1683 4076 2106 3966 2106 3347 
C 2106 3167 2080 2851 1862 2574 
C 1670 2329 1453 2316 1242 2297 
C 1210 2297 1062 2284 1037 2284 
C 992 2278 966 2272 966 2227 
C 966 2182 973 2176 1101 2176 
L 1414 2176 
z
" id="CMR17-33" transform="scale(0.015625)"/>
       </defs>
       <use transform="scale(0.996264)" xlink:href="#CMR17-33"/>
      </g>
     </g>
    </g>
    <g id="xtick_5">
     <g id="line2d_5">
      <g>
       <use style="stroke:#000000;stroke-width:0.8;" x="442.8" xlink:href="#m20458702f8" y="512.64"/>
      </g>
     </g>
     <g id="text_5">
      <!-- $\mathdefault{4}$ -->
      <g transform="translate(437.774048 534.733242)scale(0.22 -0.22)">
       <defs>
        <path d="M 2150 4147 
C 2150 4281 2144 4288 2029 4288 
L 128 1254 
L 128 1088 
L 1779 1088 
L 1779 460 
C 1779 230 1766 166 1318 166 
L 1197 166 
L 1197 0 
C 1402 12 1747 12 1965 12 
C 2182 12 2528 12 2733 0 
L 2733 166 
L 2611 166 
C 2163 166 2150 230 2150 460 
L 2150 1088 
L 2803 1088 
L 2803 1254 
L 2150 1254 
L 2150 4147 
z
M 1798 3723 
L 1798 1254 
L 256 1254 
L 1798 3723 
z
" id="CMR17-34" transform="scale(0.015625)"/>
       </defs>
       <use transform="scale(0.996264)" xlink:href="#CMR17-34"/>
      </g>
     </g>
    </g>
    <g id="xtick_6">
     <g id="line2d_6">
      <g>
       <use style="stroke:#000000;stroke-width:0.8;" x="526.5" xlink:href="#m20458702f8" y="512.64"/>
      </g>
     </g>
     <g id="text_6">
      <!-- $\mathdefault{5}$ -->
      <g transform="translate(521.474048 534.733242)scale(0.22 -0.22)">
       <defs>
        <path d="M 730 3750 
C 794 3724 1056 3641 1325 3641 
C 1920 3641 2246 3961 2432 4140 
C 2432 4191 2432 4224 2394 4224 
C 2387 4224 2374 4224 2323 4198 
C 2099 4102 1837 4032 1517 4032 
C 1325 4032 1037 4055 723 4191 
C 653 4224 640 4224 634 4224 
C 602 4224 595 4217 595 4090 
L 595 2231 
C 595 2113 595 2080 659 2080 
C 691 2080 704 2093 736 2139 
C 941 2435 1222 2560 1542 2560 
C 1766 2560 2246 2415 2246 1293 
C 2246 1087 2246 716 2054 422 
C 1894 159 1645 25 1370 25 
C 947 25 518 319 403 812 
C 429 806 480 793 506 793 
C 589 793 749 838 749 1036 
C 749 1209 627 1280 506 1280 
C 358 1280 262 1190 262 1011 
C 262 454 704 -128 1382 -128 
C 2042 -128 2669 441 2669 1267 
C 2669 2054 2170 2662 1549 2662 
C 1222 2662 947 2540 730 2304 
L 730 3750 
z
" id="CMR17-35" transform="scale(0.015625)"/>
       </defs>
       <use transform="scale(0.996264)" xlink:href="#CMR17-35"/>
      </g>
     </g>
    </g>
    <g id="xtick_7">
     <g id="line2d_7">
      <g>
       <use style="stroke:#000000;stroke-width:0.8;" x="610.2" xlink:href="#m20458702f8" y="512.64"/>
      </g>
     </g>
     <g id="text_7">
      <!-- $\mathdefault{6}$ -->
      <g transform="translate(605.174048 534.733242)scale(0.22 -0.22)">
       <defs>
        <path d="M 678 2198 
C 678 3712 1395 4076 1811 4076 
C 1946 4076 2272 4049 2400 3782 
C 2298 3782 2106 3782 2106 3558 
C 2106 3385 2246 3328 2336 3328 
C 2394 3328 2566 3353 2566 3571 
C 2566 3987 2246 4224 1805 4224 
C 1043 4224 243 3411 243 2011 
C 243 257 966 -128 1478 -128 
C 2099 -128 2688 431 2688 1295 
C 2688 2101 2170 2688 1517 2688 
C 1126 2688 838 2430 678 1979 
L 678 2198 
z
M 1478 25 
C 691 25 691 1212 691 1450 
C 691 1914 909 2585 1504 2585 
C 1613 2585 1926 2585 2138 2140 
C 2253 1889 2253 1624 2253 1302 
C 2253 954 2253 696 2118 438 
C 1978 173 1773 25 1478 25 
z
" id="CMR17-36" transform="scale(0.015625)"/>
       </defs>
       <use transform="scale(0.996264)" xlink:href="#CMR17-36"/>
      </g>
     </g>
    </g>
    <g id="xtick_8">
     <g id="line2d_8">
      <g>
       <use style="stroke:#000000;stroke-width:0.8;" x="693.9" xlink:href="#m20458702f8" y="512.64"/>
      </g>
     </g>
     <g id="text_8">
      <!-- $\mathdefault{7}$ -->
      <g transform="translate(688.874048 534.733242)scale(0.22 -0.22)">
       <defs>
        <path d="M 2886 3955 
L 2886 4096 
L 1382 4096 
C 634 4096 621 4166 595 4288 
L 480 4288 
L 294 3104 
L 410 3104 
C 429 3226 474 3552 550 3673 
C 589 3724 1062 3724 1171 3724 
L 2579 3724 
L 1869 2670 
C 1395 1961 1069 1003 1069 166 
C 1069 89 1069 -128 1299 -128 
C 1530 -128 1530 89 1530 172 
L 1530 466 
C 1530 1514 1709 2204 2003 2644 
L 2886 3955 
z
" id="CMR17-37" transform="scale(0.015625)"/>
       </defs>
       <use transform="scale(0.996264)" xlink:href="#CMR17-37"/>
      </g>
     </g>
    </g>
    <g id="xtick_9">
     <g id="line2d_9">
      <g>
       <use style="stroke:#000000;stroke-width:0.8;" x="777.6" xlink:href="#m20458702f8" y="512.64"/>
      </g>
     </g>
     <g id="text_9">
      <!-- $\mathdefault{8}$ -->
      <g transform="translate(772.574048 534.733242)scale(0.22 -0.22)">
       <defs>
        <path d="M 1741 2289 
C 2144 2494 2554 2803 2554 3298 
C 2554 3884 1990 4224 1472 4224 
C 890 4224 378 3800 378 3215 
C 378 3054 416 2777 666 2533 
C 730 2469 998 2276 1171 2154 
C 883 2006 211 1652 211 945 
C 211 282 838 -128 1459 -128 
C 2144 -128 2720 366 2720 1022 
C 2720 1607 2330 1877 2074 2051 
L 1741 2289 
z
M 902 2855 
C 851 2887 595 3086 595 3388 
C 595 3781 998 4076 1459 4076 
C 1965 4076 2336 3716 2336 3298 
C 2336 2700 1670 2359 1638 2359 
C 1632 2359 1626 2359 1574 2398 
L 902 2855 
z
M 2080 1536 
C 2176 1466 2483 1253 2483 861 
C 2483 385 2010 25 1472 25 
C 890 25 448 443 448 951 
C 448 1459 838 1884 1280 2083 
L 2080 1536 
z
" id="CMR17-38" transform="scale(0.015625)"/>
       </defs>
       <use transform="scale(0.996264)" xlink:href="#CMR17-38"/>
      </g>
     </g>
    </g>
   </g>
   <g id="matplotlib.axis_2">
    <g id="ytick_1">
     <g id="line2d_10">
      <defs>
       <path d="M 0 0 
L -3.5 0 
" id="me37b0c56ca" style="stroke:#000000;stroke-width:0.8;"/>
      </defs>
      <g>
       <use style="stroke:#000000;stroke-width:0.8;" x="108" xlink:href="#me37b0c56ca" y="512.64"/>
      </g>
     </g>
     <g id="text_10">
      <!-- $\mathdefault{0.0}$ -->
      <g transform="translate(74.934811 520.186621)scale(0.22 -0.22)">
       <defs>
        <path d="M 1178 307 
C 1178 492 1024 620 870 620 
C 685 620 557 467 557 313 
C 557 128 710 0 864 0 
C 1050 0 1178 153 1178 307 
z
" id="CMMI12-3a" transform="scale(0.015625)"/>
       </defs>
       <use transform="scale(0.996264)" xlink:href="#CMR17-30"/>
       <use transform="translate(45.690477 0)scale(0.996264)" xlink:href="#CMMI12-3a"/>
       <use transform="translate(72.787654 0)scale(0.996264)" xlink:href="#CMR17-30"/>
      </g>
     </g>
    </g>
    <g id="ytick_2">
     <g id="line2d_11">
      <g>
       <use style="stroke:#000000;stroke-width:0.8;" x="108" xlink:href="#me37b0c56ca" y="423.936"/>
      </g>
     </g>
     <g id="text_11">
      <!-- $\mathdefault{0.2}$ -->
      <g transform="translate(74.934811 431.482621)scale(0.22 -0.22)">
       <use transform="scale(0.996264)" xlink:href="#CMR17-30"/>
       <use transform="translate(45.690477 0)scale(0.996264)" xlink:href="#CMMI12-3a"/>
       <use transform="translate(72.787654 0)scale(0.996264)" xlink:href="#CMR17-32"/>
      </g>
     </g>
    </g>
    <g id="ytick_3">
     <g id="line2d_12">
      <g>
       <use style="stroke:#000000;stroke-width:0.8;" x="108" xlink:href="#me37b0c56ca" y="335.232"/>
      </g>
     </g>
     <g id="text_12">
      <!-- $\mathdefault{0.4}$ -->
      <g transform="translate(74.934811 342.778621)scale(0.22 -0.22)">
       <use transform="scale(0.996264)" xlink:href="#CMR17-30"/>
       <use transform="translate(45.690477 0)scale(0.996264)" xlink:href="#CMMI12-3a"/>
       <use transform="translate(72.787654 0)scale(0.996264)" xlink:href="#CMR17-34"/>
      </g>
     </g>
    </g>
    <g id="ytick_4">
     <g id="line2d_13">
      <g>
       <use style="stroke:#000000;stroke-width:0.8;" x="108" xlink:href="#me37b0c56ca" y="246.528"/>
      </g>
     </g>
     <g id="text_13">
      <!-- $\mathdefault{0.6}$ -->
      <g transform="translate(74.934811 254.074621)scale(0.22 -0.22)">
       <use transform="scale(0.996264)" xlink:href="#CMR17-30"/>
       <use transform="translate(45.690477 0)scale(0.996264)" xlink:href="#CMMI12-3a"/>
       <use transform="translate(72.787654 0)scale(0.996264)" xlink:href="#CMR17-36"/>
      </g>
     </g>
    </g>
    <g id="ytick_5">
     <g id="line2d_14">
      <g>
       <use style="stroke:#000000;stroke-width:0.8;" x="108" xlink:href="#me37b0c56ca" y="157.824"/>
      </g>
     </g>
     <g id="text_14">
      <!-- $\mathdefault{0.8}$ -->
      <g transform="translate(74.934811 165.370621)scale(0.22 -0.22)">
       <use transform="scale(0.996264)" xlink:href="#CMR17-30"/>
       <use transform="translate(45.690477 0)scale(0.996264)" xlink:href="#CMMI12-3a"/>
       <use transform="translate(72.787654 0)scale(0.996264)" xlink:href="#CMR17-38"/>
      </g>
     </g>
    </g>
    <g id="ytick_6">
     <g id="line2d_15">
      <g>
       <use style="stroke:#000000;stroke-width:0.8;" x="108" xlink:href="#me37b0c56ca" y="69.12"/>
      </g>
     </g>
     <g id="text_15">
      <!-- $\mathdefault{1.0}$ -->
      <g transform="translate(74.934811 76.666621)scale(0.22 -0.22)">
       <use transform="scale(0.996264)" xlink:href="#CMR17-31"/>
       <use transform="translate(45.690477 0)scale(0.996264)" xlink:href="#CMMI12-3a"/>
       <use transform="translate(72.787654 0)scale(0.996264)" xlink:href="#CMR17-30"/>
      </g>
     </g>
    </g>
   </g>
   <g id="line2d_16">
    <path clip-path="url(#p041b716500)" d="M 108.0837 99.25507 
L 111.434632 99.31222 
L 118.136497 99.914693 
L 119.47687 100.261896 
L 120.147057 100.261896 
L 120.817243 100.463421 
L 121.48743 100.463421 
L 122.827803 100.923069 
L 123.497989 100.923069 
L 124.168176 101.181508 
L 124.838362 101.181508 
L 126.178735 101.756328 
L 126.848922 101.756328 
L 128.189295 102.408615 
L 128.859481 102.408615 
L 129.529668 102.764137 
L 130.199854 102.764137 
L 131.540227 103.535015 
L 132.210414 103.535015 
L 133.550786 104.386693 
L 134.220973 104.386693 
L 135.561346 105.320849 
L 136.231532 105.320849 
L 137.571905 106.338361 
L 138.242092 106.338361 
L 139.582465 107.440727 
L 140.252651 107.440727 
L 142.263211 109.254988 
L 142.933397 109.254988 
L 144.27377 110.573199 
L 144.943957 110.573199 
L 147.624703 113.47509 
L 148.294889 113.47509 
L 150.975635 116.737196 
L 151.645822 116.737196 
L 154.326568 120.361865 
L 157.007314 124.350321 
L 157.6775 125.404821 
L 158.347686 125.404821 
L 161.028432 129.84375 
L 161.698619 132.196307 
L 165.049551 138.452378 
L 166.389924 141.102406 
L 167.060111 143.830585 
L 169.07067 148.069678 
L 169.740857 150.986916 
L 171.08123 153.975102 
L 171.751416 157.029059 
L 172.421603 158.580885 
L 173.091789 161.730802 
L 173.761976 163.331052 
L 174.432162 166.56265 
L 175.102349 168.202145 
L 175.772535 171.510808 
L 176.442722 173.187205 
L 177.783095 179.983654 
L 178.453281 181.705351 
L 181.134027 195.745589 
L 181.804214 197.527642 
L 183.814773 208.251929 
L 184.484959 213.626014 
L 187.835892 231.407921 
L 188.506078 236.661622 
L 189.176265 240.126262 
L 189.846451 245.296255 
L 191.186824 252.05501 
L 191.857011 257.040381 
L 192.527197 260.315384 
L 193.86757 269.901344 
L 194.537757 273.028261 
L 195.87813 282.094954 
L 196.548316 285.042203 
L 199.229062 301.702979 
L 199.899249 304.327794 
L 202.579995 319.083381 
L 205.260741 332.319925 
L 207.2713 341.327774 
L 209.281859 349.619037 
L 209.952046 351.361834 
L 212.632792 361.200955 
L 215.313538 370.063104 
L 217.994284 378.037097 
L 218.66447 379.28221 
L 221.345216 386.382823 
L 222.015403 388.058192 
L 222.685589 389.142273 
L 224.696149 393.846182 
L 225.366335 394.853683 
L 226.706708 397.772433 
L 227.376895 398.719025 
L 228.717268 401.473209 
L 229.387454 402.361339 
L 230.727827 404.967934 
L 231.398014 405.802323 
L 232.0682 407.05265 
L 232.738386 407.863376 
L 233.408573 409.06706 
L 234.078759 409.851882 
L 234.748946 411.011706 
L 235.419132 411.771218 
L 236.089319 412.900988 
L 236.759505 413.637776 
L 237.429692 414.726592 
L 238.770065 416.143857 
L 239.440251 417.184702 
L 240.780624 418.549369 
L 241.450811 419.550592 
L 242.791184 420.855148 
L 243.46137 421.815986 
L 245.47193 423.680758 
L 246.142116 424.594751 
L 249.493049 427.522938 
L 250.163235 428.370808 
L 254.854541 432.1702 
L 260.216032 436.208927 
L 262.226592 437.652 
L 262.896778 437.888293 
L 266.247711 440.203332 
L 266.917897 440.43076 
L 268.928457 441.769036 
L 269.598643 441.98882 
L 271.609203 443.294708 
L 272.279389 443.508928 
L 273.619762 444.358759 
L 274.289949 444.57089 
L 275.630322 445.403502 
L 276.300508 445.609993 
L 276.970695 446.020856 
L 277.640881 446.226599 
L 278.981254 447.035378 
L 279.651441 447.235575 
L 280.321627 447.633256 
L 280.991814 447.831966 
L 281.662 448.227938 
L 282.332186 448.423359 
L 283.672559 449.198517 
L 284.342746 449.389935 
L 285.012932 449.770909 
L 285.683119 449.960705 
L 286.353305 450.339464 
L 287.023492 450.526814 
L 287.693678 450.897775 
L 289.034051 451.266743 
L 289.704238 451.633464 
L 290.374424 451.815845 
L 291.044611 452.176701 
L 291.714797 452.356248 
L 292.384984 452.712231 
L 293.725357 453.065832 
L 294.395543 453.416042 
L 295.735916 453.763841 
L 296.406103 454.107188 
L 297.076289 454.278334 
L 297.746476 454.617661 
L 299.086849 454.955014 
L 299.757035 455.287836 
L 301.767595 455.78112 
L 302.437781 456.106676 
L 303.778154 456.429204 
L 304.448341 456.747687 
L 306.4589 457.220953 
L 307.129086 457.532514 
L 309.809832 458.146789 
L 310.480019 458.449252 
L 313.160765 459.045715 
L 313.830951 459.339267 
L 317.181884 460.062232 
L 317.85207 460.346905 
L 336.617292 464.17637 
L 344.65953 465.616181 
L 345.329716 465.616181 
L 351.361395 466.646642 
L 352.031581 466.646642 
L 356.722886 467.421279 
L 358.063259 467.530186 
L 362.084378 468.066585 
L 366.105497 468.592753 
L 370.796803 469.209809 
L 372.137176 469.311199 
L 376.828481 469.91093 
L 378.168854 470.009638 
L 381.519786 470.39986 
L 382.860159 470.49679 
L 386.211092 470.879296 
L 387.551465 470.974106 
L 390.902397 471.349594 
L 392.24277 471.442918 
L 394.923516 471.720012 
L 396.263889 471.811353 
L 398.944635 472.083506 
L 400.285008 472.174081 
L 402.965754 472.442903 
L 404.306127 472.531671 
L 406.316686 472.708488 
L 407.657059 472.796543 
L 410.337805 473.057867 
L 412.348365 473.144396 
L 415.029111 473.402542 
L 416.369484 473.488509 
L 418.380043 473.658315 
L 419.720416 473.742747 
L 421.730976 473.910512 
L 423.741535 473.993831 
L 426.422281 474.243102 
L 428.432841 474.325223 
L 431.113586 474.570514 
L 433.124146 474.651633 
L 435.134705 474.813481 
L 436.475078 474.893814 
L 438.485638 475.05352 
L 440.496197 475.132885 
L 442.506757 475.290833 
L 444.517316 475.369624 
L 446.527876 475.526977 
L 448.538435 475.604767 
L 450.548995 475.759788 
L 452.559554 475.836649 
L 454.570114 475.990027 
L 456.580673 476.066499 
L 458.591232 476.218257 
L 460.601792 476.293633 
L 462.612351 476.444291 
L 464.622911 476.519133 
L 466.63347 476.667887 
L 469.314216 476.741929 
L 471.324776 476.888986 
L 473.335335 476.962369 
L 475.345895 477.10847 
L 478.026641 477.181148 
L 480.0372 477.325347 
L 482.717946 477.397152 
L 484.728505 477.540507 
L 487.409251 477.611659 
L 489.419811 477.753359 
L 492.100557 477.824074 
L 494.111116 477.964168 
L 496.791862 478.034046 
L 498.802422 478.173097 
L 501.483168 478.242322 
L 502.823541 478.311277 
L 504.8341 478.379929 
L 506.174473 478.448353 
L 508.185032 478.516654 
L 509.525405 478.584595 
L 511.535965 478.652451 
L 512.876338 478.719888 
L 515.557084 478.787295 
L 517.567643 478.921527 
L 520.918576 478.988476 
L 522.929135 479.121612 
L 526.280068 479.187917 
L 528.290627 479.319421 
L 531.641559 479.384814 
L 532.981932 479.450372 
L 535.662678 479.51559 
L 537.003051 479.58034 
L 539.013611 479.644974 
L 540.353984 479.70936 
L 543.03473 479.7736 
L 544.375103 479.837919 
L 547.055849 479.902122 
L 548.396222 479.965907 
L 551.076968 480.029625 
L 552.417341 480.093075 
L 555.098086 480.15619 
L 556.438459 480.219199 
L 559.119205 480.281751 
L 560.459578 480.344165 
L 563.140324 480.406429 
L 564.480697 480.468543 
L 567.83163 480.530573 
L 569.172003 480.592738 
L 571.852749 480.654538 
L 573.193122 480.716209 
L 576.544054 480.777388 
L 577.884427 480.838464 
L 580.565173 480.899247 
L 581.905546 480.959895 
L 585.256478 481.020345 
L 586.596851 481.080634 
L 589.947784 481.140971 
L 591.288157 481.201101 
L 593.968903 481.26105 
L 595.309276 481.320703 
L 598.660208 481.380141 
L 600.000581 481.439316 
L 603.351514 481.498409 
L 604.691886 481.55726 
L 608.713005 481.616007 
L 610.053378 481.674553 
L 613.404311 481.733298 
L 614.744684 481.791612 
L 618.095616 481.849641 
L 619.435989 481.907485 
L 623.457108 481.965138 
L 624.797481 482.022794 
L 628.8186 482.080212 
L 630.158973 482.137357 
L 633.509905 482.194523 
L 634.850278 482.251436 
L 638.871397 482.308063 
L 640.21177 482.364528 
L 644.232889 482.420982 
L 645.573262 482.477272 
L 649.594381 482.533323 
L 650.934754 482.589229 
L 655.626059 482.644957 
L 657.636619 482.700511 
L 663.668297 482.811237 
L 665.678857 482.866279 
L 672.380722 482.975909 
L 674.391281 483.03064 
L 681.093146 483.139483 
L 683.103705 483.193576 
L 690.475757 483.301487 
L 692.486316 483.355111 
L 699.858368 483.461918 
L 701.868927 483.515283 
L 709.240978 483.621072 
L 711.251538 483.673824 
L 718.623589 483.778688 
L 720.634149 483.830961 
L 728.676386 483.935148 
L 730.686946 483.986926 
L 739.39937 484.090256 
L 741.40993 484.141886 
L 749.452168 484.244472 
L 751.462727 484.295303 
L 760.175151 484.396737 
L 762.185711 484.447057 
L 771.568322 484.547507 
L 773.578881 484.597498 
L 777.6 484.647384 
L 777.6 484.647384 
" style="fill:none;stroke:#000000;stroke-linecap:square;stroke-width:1.5;"/>
   </g>
   <g id="line2d_17">
    <path clip-path="url(#p041b716500)" d="M 108 99.407778 
L 777.6 99.407778 
" style="fill:none;stroke:#000000;stroke-linecap:square;stroke-width:1.5;"/>
   </g>
   <g id="line2d_18">
    <path clip-path="url(#p041b716500)" d="M 108 497.453859 
L 777.6 497.453859 
" style="fill:none;stroke:#000000;stroke-linecap:square;stroke-width:1.5;"/>
   </g>
   <g id="patch_6">
    <path d="M 108 512.64 
L 108 69.12 
" style="fill:none;stroke:#000000;stroke-linecap:square;stroke-linejoin:miter;stroke-width:0.8;"/>
   </g>
   <g id="patch_7">
    <path d="M 777.6 512.64 
L 777.6 69.12 
" style="fill:none;stroke:#000000;stroke-linecap:square;stroke-linejoin:miter;stroke-width:0.8;"/>
   </g>
   <g id="patch_8">
    <path d="M 108 512.64 
L 777.6 512.64 
" style="fill:none;stroke:#000000;stroke-linecap:square;stroke-linejoin:miter;stroke-width:0.8;"/>
   </g>
   <g id="patch_9">
    <path d="M 108 69.12 
L 777.6 69.12 
" style="fill:none;stroke:#000000;stroke-linecap:square;stroke-linejoin:miter;stroke-width:0.8;"/>
   </g>
   <g id="text_16">
    <!-- $\MPC(m) \equiv c^{\prime}(m)$ -->
    <g transform="translate(233.55 246.528)scale(0.26 -0.26)">
     <defs>
      <path d="M 1363 1595 
C 1574 1710 1811 1908 1971 2042 
C 2355 2374 2496 2476 2739 2572 
C 2714 2534 2707 2483 2707 2438 
C 2707 2265 2854 2233 2918 2233 
C 3123 2233 3238 2425 3238 2547 
C 3238 2585 3226 2752 3002 2752 
C 2618 2752 2240 2425 1958 2188 
C 1587 1863 1402 1723 1139 1640 
L 1382 2655 
C 1382 2758 1299 2816 1216 2816 
C 1158 2816 1018 2796 966 2591 
L 371 223 
C 352 146 352 134 352 95 
C 352 6 422 -64 518 -64 
C 710 -64 749 102 781 236 
C 819 369 1082 1433 1094 1472 
C 1907 1433 2182 1229 2182 917 
C 2182 873 2182 854 2163 783 
C 2138 662 2138 592 2138 554 
C 2138 172 2387 -64 2701 -64 
C 2963 -64 3110 121 3206 286 
C 3341 535 3424 885 3424 911 
C 3424 943 3398 968 3360 968 
C 3302 968 3296 943 3270 841 
C 3187 535 3046 64 2720 64 
C 2579 64 2509 146 2509 369 
C 2509 490 2534 631 2560 726 
C 2573 790 2592 866 2592 936 
C 2592 1518 1786 1576 1363 1595 
z
" id="CMMI12-14" transform="scale(0.015625)"/>
      <path d="M 1958 -1562 
C 1958 -1556 1958 -1543 1939 -1524 
C 1645 -1223 858 -403 858 1596 
C 858 3595 1632 4408 1946 4729 
C 1946 4735 1958 4748 1958 4767 
C 1958 4787 1939 4800 1914 4800 
C 1843 4800 1299 4325 986 3620 
C 666 2909 576 2218 576 1603 
C 576 1141 621 360 1005 -467 
C 1312 -1133 1837 -1600 1914 -1600 
C 1946 -1600 1958 -1588 1958 -1562 
z
" id="CMR17-28" transform="scale(0.015625)"/>
      <path d="M 1318 1870 
C 1331 1909 1491 2228 1728 2432 
C 1894 2585 2112 2687 2362 2687 
C 2618 2687 2707 2496 2707 2241 
C 2707 2202 2707 2075 2630 1775 
L 2470 1117 
C 2419 925 2298 453 2285 383 
C 2259 287 2221 121 2221 95 
C 2221 6 2291 -64 2387 -64 
C 2579 -64 2611 83 2669 313 
L 3053 1838 
C 3066 1890 3398 2687 4102 2687 
C 4358 2687 4448 2496 4448 2241 
C 4448 1883 4198 1187 4058 804 
C 4000 651 3968 568 3968 453 
C 3968 166 4166 -64 4474 -64 
C 5069 -64 5293 874 5293 913 
C 5293 945 5267 970 5229 970 
C 5171 970 5165 951 5133 842 
C 4986 332 4749 64 4493 64 
C 4429 64 4326 70 4326 274 
C 4326 440 4403 645 4429 715 
C 4544 1021 4832 1775 4832 2145 
C 4832 2528 4608 2816 4122 2816 
C 3693 2816 3347 2573 3091 2196 
C 3072 2541 2861 2816 2381 2816 
C 1811 2816 1510 2413 1395 2253 
C 1376 2617 1114 2816 832 2816 
C 646 2816 499 2726 378 2483 
C 262 2253 173 1864 173 1838 
C 173 1813 198 1781 243 1781 
C 294 1781 301 1787 339 1934 
C 435 2311 557 2687 813 2687 
C 960 2687 1011 2585 1011 2394 
C 1011 2253 947 2004 902 1807 
L 723 1117 
C 698 996 627 708 595 593 
C 550 427 480 127 480 95 
C 480 6 550 -64 646 -64 
C 723 -64 813 -26 864 70 
C 877 102 934 325 966 453 
L 1107 1028 
L 1318 1870 
z
" id="CMMI12-6d" transform="scale(0.015625)"/>
      <path d="M 1683 1596 
C 1683 2057 1638 2839 1254 3665 
C 947 4332 422 4800 346 4800 
C 326 4800 301 4793 301 4761 
C 301 4748 307 4742 314 4729 
C 621 4408 1402 3595 1402 1603 
C 1402 -396 627 -1210 314 -1530 
C 307 -1543 301 -1549 301 -1562 
C 301 -1594 326 -1600 346 -1600 
C 416 -1600 960 -1127 1274 -422 
C 1594 289 1683 981 1683 1596 
z
" id="CMR17-29" transform="scale(0.015625)"/>
      <path d="M 4390 2688 
C 4499 2688 4621 2688 4621 2816 
C 4621 2944 4506 2944 4397 2944 
L 576 2944 
C 467 2944 352 2944 352 2816 
C 352 2688 480 2688 582 2688 
L 4390 2688 
z
M 4397 255 
C 4506 255 4621 255 4621 383 
C 4621 512 4499 512 4390 512 
L 582 512 
C 480 512 352 512 352 383 
C 352 255 467 255 576 255 
L 4397 255 
z
M 4397 1472 
C 4506 1472 4621 1472 4621 1600 
C 4621 1728 4506 1728 4397 1728 
L 576 1728 
C 467 1728 352 1728 352 1600 
C 352 1472 467 1472 576 1472 
L 4397 1472 
z
" id="CMSY10-11" transform="scale(0.015625)"/>
      <path d="M 2502 2432 
C 2381 2432 2323 2432 2234 2355 
C 2195 2323 2125 2227 2125 2124 
C 2125 1996 2221 1919 2342 1919 
C 2496 1919 2669 2047 2669 2303 
C 2669 2591 2374 2816 1933 2816 
C 1094 2816 256 1932 256 1011 
C 256 446 602 -64 1254 -64 
C 2125 -64 2675 622 2675 706 
C 2675 745 2637 777 2611 777 
C 2592 777 2586 771 2528 712 
C 2118 161 1510 64 1267 64 
C 826 64 685 453 685 777 
C 685 1004 794 1634 1024 2073 
C 1190 2374 1536 2687 1939 2687 
C 2022 2687 2374 2676 2502 2432 
z
" id="CMMI12-63" transform="scale(0.015625)"/>
      <path d="M 1619 3048 
C 1651 3125 1677 3182 1677 3246 
C 1677 3430 1510 3584 1312 3584 
C 1133 3584 1018 3462 973 3297 
L 211 517 
C 211 505 186 435 186 428 
C 186 358 352 313 403 313 
C 442 313 448 332 486 415 
L 1619 3048 
z
" id="CMSY10-30" transform="scale(0.015625)"/>
     </defs>
     <use transform="scale(0.996264)" xlink:href="#CMMI12-14"/>
     <use transform="translate(56.154624 0)scale(0.996264)" xlink:href="#CMR17-28"/>
     <use transform="translate(91.435392 0)scale(0.996264)" xlink:href="#CMMI12-6d"/>
     <use transform="translate(176.762616 0)scale(0.996264)" xlink:href="#CMR17-29"/>
     <use transform="translate(239.717393 0)scale(0.996264)" xlink:href="#CMSY10-11"/>
     <use transform="translate(344.878869 0)scale(0.996264)" xlink:href="#CMMI12-63"/>
     <use transform="translate(386.862103 36.153639)scale(0.697382)" xlink:href="#CMSY10-30"/>
     <use transform="translate(406.538195 0)scale(0.996264)" xlink:href="#CMR17-28"/>
     <use transform="translate(441.818963 0)scale(0.996264)" xlink:href="#CMMI12-6d"/>
     <use transform="translate(527.146188 0)scale(0.996264)" xlink:href="#CMR17-29"/>
    </g>
   </g>
   <g id="text_17">
    <!-- $(1-\UnempPrb^{1/\CRRA}\pmb{\text{\TH}})\equiv \overline{\MPC}$ -->
    <g transform="translate(526.5 126.7776)scale(0.26 -0.26)">
     <defs>
      <path d="M 4218 1472 
C 4326 1472 4442 1472 4442 1600 
C 4442 1728 4326 1728 4218 1728 
L 755 1728 
C 646 1728 531 1728 531 1600 
C 531 1472 646 1472 755 1472 
L 4218 1472 
z
" id="CMSY10-0" transform="scale(0.015625)"/>
      <path d="M 1050 776 
C 1446 1687 2195 2495 3046 2495 
C 3366 2495 3507 2226 3507 1873 
C 3507 1597 3379 1000 3174 628 
C 3014 339 2733 64 2432 64 
C 2304 64 2010 121 2010 474 
C 2099 493 2138 558 2138 615 
C 2138 686 2086 724 2029 724 
C 1869 724 1869 526 1869 461 
C 1869 108 2144 -64 2432 -64 
C 3136 -64 3872 801 3872 1674 
C 3872 2155 3603 2624 3059 2624 
C 2669 2624 2234 2476 1786 2059 
C 1542 1841 1274 1527 954 904 
C 800 1077 800 1283 800 1373 
C 800 1854 1107 2674 1549 2751 
C 1587 2758 1626 2764 1626 2828 
C 1626 2835 1626 2880 1555 2880 
C 1101 2880 525 2014 525 1193 
C 525 859 595 763 794 500 
C 570 -143 480 -702 480 -906 
C 480 -1175 582 -1408 883 -1408 
C 1306 -1408 1715 -847 1715 -341 
C 1715 -104 1658 -26 1440 269 
C 1350 378 1133 660 1050 776 
z
M 890 365 
L 1357 -248 
C 1427 -354 1434 -433 1434 -525 
C 1434 -906 1152 -1280 883 -1280 
C 704 -1280 621 -1149 621 -899 
C 621 -597 800 108 890 365 
z
" id="CMMI12-7d" transform="scale(0.015625)"/>
      <path d="M 2746 4563 
C 2746 4569 2784 4665 2784 4678 
C 2784 4755 2720 4800 2669 4800 
C 2637 4800 2579 4800 2528 4659 
L 384 -1364 
C 384 -1370 346 -1466 346 -1479 
C 346 -1556 410 -1600 461 -1600 
C 499 -1600 557 -1594 602 -1460 
L 2746 4563 
z
" id="CMMI12-3d" transform="scale(0.015625)"/>
      <path d="M 198 -1085 
C 192 -1116 179 -1154 179 -1191 
C 179 -1287 256 -1351 352 -1351 
C 448 -1351 538 -1287 576 -1198 
C 602 -1141 781 -390 986 389 
C 1114 70 1350 -64 1600 -64 
C 2323 -64 3142 830 3142 1794 
C 3142 2477 2726 2816 2285 2816 
C 1722 2816 1037 2234 826 1385 
L 198 -1085 
z
M 1594 64 
C 1158 64 1050 568 1050 645 
C 1050 683 1210 1289 1229 1385 
C 1555 2656 2182 2687 2278 2687 
C 2566 2687 2726 2426 2726 2049 
C 2726 1724 2554 1091 2445 823 
C 2253 383 1920 64 1594 64 
z
" id="CMMI12-1a" transform="scale(0.015625)"/>
      <path d="M 474 4352 
L 474 4211 
L 582 4211 
C 749 4211 883 4192 883 3951 
L 883 409 
C 883 160 774 140 474 140 
L 474 0 
L 1594 0 
L 1594 140 
L 1466 140 
C 1318 140 1184 160 1184 364 
L 1184 1139 
L 2176 1139 
C 2797 1196 3251 1722 3251 2326 
C 3251 2872 2861 3411 2266 3500 
C 2163 3520 2061 3520 1958 3520 
L 1184 3520 
L 1184 3964 
C 1184 4137 1210 4211 1594 4211 
L 1594 4352 
L 474 4352 
z
M 1184 1280 
L 1184 3379 
L 1786 3379 
C 2093 3379 2394 3353 2624 3077 
C 2803 2872 2899 2596 2899 2326 
C 2899 1870 2586 1350 2003 1280 
L 1184 1280 
z
" id="SFRM3583-de" transform="scale(0.015625)"/>
     </defs>
     <use transform="scale(0.996264)" xlink:href="#CMR17-28"/>
     <use transform="translate(35.280768 0)scale(0.996264)" xlink:href="#CMR17-31"/>
     <use transform="translate(103.110452 0)scale(0.996264)" xlink:href="#CMSY10-0"/>
     <use transform="translate(202.737127 0)scale(0.996264)" xlink:href="#CMMI12-7d"/>
     <use transform="translate(264.841622 36.153639)scale(0.697382)" xlink:href="#CMR17-31"/>
     <use transform="translate(296.824804 36.153639)scale(0.697382)" xlink:href="#CMMI12-3d"/>
     <use transform="translate(330.967095 36.153639)scale(0.697382)" xlink:href="#CMMI12-1a"/>
     <use transform="translate(362.257288 0)scale(0.996264)" xlink:href="#SFRM3583-de"/>
     <use transform="translate(364.47117 2.767393)scale(0.996264)" xlink:href="#SFRM3583-de"/>
     <use transform="translate(366.685051 0)scale(0.996264)" xlink:href="#SFRM3583-de"/>
     <use transform="translate(422.394734 0)scale(0.996264)" xlink:href="#CMR17-29"/>
     <use transform="translate(485.34951 0)scale(0.996264)" xlink:href="#CMSY10-11"/>
     <use transform="translate(590.510987 0)scale(0.996264)" xlink:href="#CMMI12-14"/>
     <path d="M 590.510987 54.849612 
L 646.665611 54.849612 
L 646.665611 58.834561 
L 590.510987 58.834561 
L 590.510987 54.849612 
z
"/>
    </g>
   </g>
   <g id="text_18">
    <!-- $\tilde{\kappa}\equiv(1-\pmb{\text{\TH}}_{R})$ -->
    <g transform="translate(149.85 481.5936)scale(0.26 -0.26)">
     <defs>
      <path d="M 2400 4198 
C 2182 3987 2061 3865 1862 3865 
C 1722 3865 1626 3936 1491 4032 
C 1363 4121 1261 4198 1120 4198 
C 890 4198 730 4012 461 3718 
L 531 3648 
C 749 3859 870 3980 1069 3980 
C 1210 3980 1306 3910 1440 3814 
C 1568 3724 1670 3648 1811 3648 
C 2042 3648 2202 3833 2470 4128 
L 2400 4198 
z
" id="CMR17-7e" transform="scale(0.015625)"/>
      <path d="M 2355 3917 
C 2413 4153 2438 4166 2688 4166 
L 3149 4166 
C 3699 4166 4109 4000 4109 3503 
C 4109 3177 3942 2240 2656 2240 
L 1933 2240 
L 2355 3917 
z
M 3245 2163 
C 4038 2335 4659 2846 4659 3394 
C 4659 3892 4154 4352 3264 4352 
L 1530 4352 
C 1402 4352 1344 4352 1344 4230 
C 1344 4166 1389 4166 1510 4166 
C 1894 4166 1894 4115 1894 4045 
C 1894 4032 1894 3994 1869 3898 
L 1005 475 
C 947 253 934 190 493 190 
C 346 190 301 190 301 69 
C 301 6 371 6 390 6 
C 506 6 640 19 762 19 
L 1517 19 
C 1632 19 1766 6 1882 6 
C 1933 6 2003 6 2003 126 
C 2003 190 1946 190 1850 190 
C 1459 190 1459 241 1459 304 
C 1459 310 1459 355 1472 405 
L 1901 2112 
L 2669 2112 
C 3277 2112 3392 1731 3392 1522 
C 3392 1426 3328 1179 3283 1014 
C 3213 723 3194 653 3194 532 
C 3194 82 3565 -128 3994 -128 
C 4512 -128 4736 501 4736 589 
C 4736 634 4704 653 4666 653 
C 4614 653 4602 615 4589 564 
C 4435 114 4173 0 4013 0 
C 3853 0 3750 69 3750 355 
C 3750 507 3827 1084 3834 1116 
C 3866 1350 3866 1376 3866 1426 
C 3866 1889 3488 2086 3245 2163 
z
" id="CMMI12-52" transform="scale(0.015625)"/>
     </defs>
     <use transform="translate(5.232073 0.006461)scale(0.996264)" xlink:href="#CMR17-7e"/>
     <use transform="scale(0.996264)" xlink:href="#CMMI12-14"/>
     <use transform="translate(83.828633 0)scale(0.996264)" xlink:href="#CMSY10-11"/>
     <use transform="translate(188.990109 0)scale(0.996264)" xlink:href="#CMR17-28"/>
     <use transform="translate(224.270877 0)scale(0.996264)" xlink:href="#CMR17-31"/>
     <use transform="translate(292.100561 0)scale(0.996264)" xlink:href="#CMSY10-0"/>
     <use transform="translate(387.299382 0)scale(0.996264)" xlink:href="#SFRM3583-de"/>
     <use transform="translate(389.513263 2.767393)scale(0.996264)" xlink:href="#SFRM3583-de"/>
     <use transform="translate(391.727144 0)scale(0.996264)" xlink:href="#SFRM3583-de"/>
     <use transform="translate(447.436827 -14.943915)scale(0.697382)" xlink:href="#CMMI12-52"/>
     <use transform="translate(500.48439 0)scale(0.996264)" xlink:href="#CMR17-29"/>
    </g>
   </g>
   <g id="text_19">
    <!-- $m$ -->
    <g transform="translate(781.785 512.64)scale(0.26 -0.26)">
     <use transform="scale(0.996264)" xlink:href="#CMMI12-6d"/>
    </g>
   </g>
  </g>
 </g>
 <defs>
  <clipPath id="p041b716500">
   <rect height="443.52" width="669.6" x="108" y="69.12"/>
  </clipPath>
 </defs>
</svg>
